<?xml version="1.0" encoding="utf-8"?>
<!DOCTYPE svg PUBLIC "-//W3C//DTD SVG 1.1//EN" "http://www.w3.org/Graphics/SVG/1.1/DTD/svg11.dtd">
<!-- exported from Silhouette Studio® Business Edition V4.4.945ssbe -->
<svg version="1.1" xmlns="http://www.w3.org/2000/svg" xmlns:xlink="http://www.w3.org/1999/xlink" width="215.9mm" height="279.4mm" viewBox="0 0 215.9 279.4">
<defs>
<path id="path_9ca12ad7ba93794b87da8b025be879ab" d="M 154.8288 166.0793 C 154.8434 168.7623 153.8517 171.8532 151.1987 174.253 C 149.7682 175.547 148.3356 176.1806 147.5264 176.4639 C 145.6923 177.1059 144.1165 177.1301 143.2537 177.0903 C 139.169 176.9022 136.6632 174.5703 135.8216 173.6778 C 135.0067 172.8136 134.2728 171.8236 133.648 170.3681 C 133.0483 168.971 132.8466 167.6125 132.7971 166.6635 C 132.7524 165.8079 132.7635 164.2412 133.403 162.4226 C 134.1329 160.3464 135.3273 158.9847 136.0118 158.286 C 137.0473 157.2293 138.3477 156.415 139.5162 155.9221 C 139.9193 155.7521 141.6172 155.0462 143.8049 155.055 C 146.3357 155.0652 149.2083 155.9033 151.5979 158.286 C 153.3901 160.0731 154.8104 162.7048 154.8288 166.0793" fill-rule="evenodd" fill="none" fill-opacity="1" stroke="#FF0000" stroke-opacity="1" stroke-width="0.1" stroke-linecap="round" stroke-linejoin="round"/>
<path id="path_d113663198825ddc5af4be3c881191e8" d="M 204.4137 166.3651 C 204.4246 177.1391 201.5341 185.4222 199.6691 189.8325 C 195.4583 199.7898 189.5333 206.3018 186.0851 209.6479 C 178.3098 217.1931 170.3171 220.9272 165.8195 222.6473 C 164.7592 223.0529 160.4748 224.6981 154.892 225.723 C 153.4286 225.9916 149.9779 226.5869 145.0193 226.6798 C 144.0405 226.6981 140.0931 226.7545 135.2498 226.0444 C 133.9359 225.8518 128.5976 225.0685 122.4072 222.6684 C 120.1946 221.8105 116.3247 220.1799 111.8161 217.3198 C 109.4092 215.793 105.2468 212.9074 100.7674 208.3177 C 99.8763 207.4046 96.28738 203.6789 92.90427 198.271 C 92.29534 197.2976 89.83244 193.3585 87.77227 188 C 87.38631 186.9961 85.83117 182.9387 84.82803 177.6554 C 84.76739 177.3359 84.21839 174.4514 83.95913 171.2099 C 83.93185 170.8687 83.68342 167.7868 83.80129 164.3659 C 83.89271 161.7129 84.18562 157.9773 85.07658 153.8245 C 85.31513 152.7126 86.27402 148.2144 88.47991 142.9738 C 92.53219 133.3467 98.16946 127.0098 101.447 123.7221 C 102.3033 122.8633 105.7786 119.3916 110.8348 116.0442 C 111.7929 115.4099 115.671 112.8473 120.9754 110.6399 C 124.32 109.248 127.8111 108.1882 130.8413 107.5101 C 136.6952 106.2002 141.4245 106.0532 144.0906 106.0428 C 145.3571 106.0379 150.4924 106.0496 156.6871 107.3652 C 159.4742 107.9572 163.3622 109.0054 167.5583 110.7875 C 168.6316 111.2433 172.9814 113.0778 177.8046 116.3529 C 181.6359 118.9545 184.6798 121.6832 186.7342 123.7221 C 188.992 125.9631 191.9707 129.342 194.7406 133.6121 C 195.3639 134.5729 197.8913 138.4579 200.0299 143.7696 C 202.0456 148.7759 203.1096 153.4379 203.6467 156.7679 C 203.8767 158.1936 204.4093 162.0326 204.4137 166.3651" fill-rule="evenodd" fill="none" fill-opacity="1" stroke="#FF0000" stroke-opacity="1" stroke-width="0.1" stroke-linecap="round" stroke-linejoin="round"/>
<path id="path_9579c95c84c7a8de49982668133cfa52" d="M 79.89486 65.80883 C 79.90951 68.49184 78.91779 71.5827 76.2648 73.98248 C 74.83429 75.27647 73.40161 75.91012 72.59246 76.19335 C 70.7583 76.8354 69.18251 76.85954 68.31975 76.8198 C 64.23506 76.63171 61.72926 74.29981 60.88767 73.40728 C 60.07276 72.54304 59.33883 71.55308 58.7141 70.09766 C 58.11439 68.70049 57.91267 67.34197 57.86316 66.39298 C 57.8185 65.53736 57.82957 63.97074 58.469 62.15212 C 59.199 60.07594 60.39336 58.71416 61.0779 58.01554 C 62.11336 56.95878 63.41381 56.14449 64.58224 55.65163 C 64.9854 55.48161 66.68321 54.77567 68.87092 54.78449 C 71.40176 54.79472 74.27432 55.63282 76.66394 58.01554 C 78.45615 59.80257 79.87642 62.43426 79.89486 65.80883" fill-rule="evenodd" fill="none" fill-opacity="1" stroke="#FF0000" stroke-opacity="1" stroke-width="0.1" stroke-linecap="round" stroke-linejoin="round"/>
<path id="path_0dcfc3252be6a404224cd426fd469fa5" d="M 129.4798 66.09462 C 129.4906 76.86864 126.6001 85.1517 124.7351 89.56203 C 120.5243 99.5193 114.5993 106.0313 111.1511 109.3774 C 103.3758 116.9226 95.38313 120.6567 90.88551 122.3768 C 89.82521 122.7823 85.54076 124.4276 79.95796 125.4525 C 78.49458 125.7211 75.04395 126.3164 70.08531 126.4093 C 69.10646 126.4276 65.1591 126.484 60.3158 125.7739 C 59.00195 125.5813 53.66364 124.798 47.47318 122.3979 C 45.26067 121.54 41.39072 119.9094 36.88213 117.0493 C 34.47519 115.5225 30.31282 112.6369 25.83344 108.0472 C 24.94235 107.1341 21.35341 103.4084 17.97031 98.00044 C 17.36137 97.02705 14.89845 93.088 12.83829 87.72954 C 12.45233 86.72563 10.89717 82.66824 9.894028 77.38492 C 9.833389 77.06543 9.284393 74.18095 9.025131 70.93941 C 8.997849 70.59821 8.74942 67.51627 8.867294 64.09535 C 8.95871 61.4424 9.251617 57.7068 10.14258 53.55402 C 10.38113 52.44212 11.34003 47.94394 13.54591 42.70335 C 17.59819 33.07625 23.23546 26.73927 26.51303 23.45165 C 27.36928 22.59278 30.84464 19.12113 35.90083 15.77371 C 36.85895 15.1394 40.73701 12.57681 46.04143 10.36937 C 49.38603 8.977501 52.87715 7.917671 55.90735 7.239601 C 61.7612 5.929672 66.49055 5.782654 69.15659 5.772316 C 70.42314 5.76741 75.55843 5.779114 81.75307 7.094742 C 84.54021 7.686684 88.42821 8.734863 92.62434 10.51701 C 93.69759 10.97282 98.04738 12.80727 102.8706 16.08239 C 106.7019 18.68397 109.7458 21.41269 111.8002 23.45165 C 114.058 25.6926 117.0367 29.0715 119.8067 33.34159 C 120.4299 34.30237 122.9573 38.18739 125.0959 43.49908 C 127.1116 48.50537 128.1756 53.16737 128.7127 56.49736 C 128.9427 57.92313 129.4754 61.76208 129.4798 66.09462" fill-rule="evenodd" fill="none" fill-opacity="1" stroke="#FF0000" stroke-opacity="1" stroke-width="0.1" stroke-linecap="round" stroke-linejoin="round"/>
</defs>
<g>
<g>
<use xlink:href="#path_9ca12ad7ba93794b87da8b025be879ab"/>
</g>
<g>
<use xlink:href="#path_d113663198825ddc5af4be3c881191e8"/>
</g>
</g>
<g>
<use xlink:href="#path_9579c95c84c7a8de49982668133cfa52"/>
</g>
<g>
<use xlink:href="#path_0dcfc3252be6a404224cd426fd469fa5"/>
</g>
</svg>