<?xml version="1.0" encoding="utf-8"?>
<!DOCTYPE svg PUBLIC "-//W3C//DTD SVG 1.1//EN" "http://www.w3.org/Graphics/SVG/1.1/DTD/svg11.dtd">
<!-- exported from Silhouette Studio® Business Edition V4.4.945ssbe -->
<svg version="1.1" xmlns="http://www.w3.org/2000/svg" xmlns:xlink="http://www.w3.org/1999/xlink" width="215.9mm" height="279.4mm" viewBox="0 0 215.9 279.4">
<defs>
<path id="path_bb48652904a6f03135ead54774ececf3" d="M 57.5974 48.86473 L 57.5974 116.5615 L 125.2942 116.5615 L 125.2943 48.86473 L 57.5974 48.86473 Z" fill-rule="evenodd" fill="none" fill-opacity="1" stroke="#FF0000" stroke-opacity="1" stroke-width="0.1" stroke-dasharray="1 1" stroke-dashoffset="0" stroke-linecap="round" stroke-linejoin="round"/>
<path id="path_2465871ed6c1efcb3cb5f3090b12439a" d="M 125.0946 48.8307 L 125.2999 48.8307 L 125.2999 7.802278 C 125.2999 7.802278 74.52727 7.802278 57.60307 7.802278 L 51.74769 13.87245 L 51.60134 41.49106 L 57.60307 48.8307 L 57.62216 48.8307" fill-rule="evenodd" fill="none" fill-opacity="1" stroke="#FF0000" stroke-opacity="1" stroke-width="0.1" stroke-linecap="round" stroke-linejoin="round"/>
<path id="path_b7ea2037eebd1ad08a64cd32f47e3512" d="M 57.66302 7.803595 L 57.66302 48.9742" fill-rule="evenodd" fill="none" fill-opacity="1" stroke="#FF0000" stroke-opacity="1" stroke-width="0.1" stroke-dasharray="1 1" stroke-dashoffset="0" stroke-linecap="round" stroke-linejoin="round"/>
<path id="path_9b25530809f275580ddae9e642de3220" d="M 125.3682 116.2488 L 125.3678 116.4541 L 166.3962 116.5352 C 166.3962 116.5352 166.4965 65.7627 166.5299 48.83855 L 160.4713 42.97123 L 132.853 42.77034 L 125.5014 48.75753 L 125.5014 48.77664" fill-rule="evenodd" fill="none" fill-opacity="1" stroke="#FF0000" stroke-opacity="1" stroke-width="0.1" stroke-linecap="round" stroke-linejoin="round"/>
<path id="path_7239029b4217cef8b833fbe7495a91fa" d="M 166.5285 48.89851 L 125.3578 48.8172" fill-rule="evenodd" fill="none" fill-opacity="1" stroke="#FF0000" stroke-opacity="1" stroke-width="0.1" stroke-dasharray="1 1" stroke-dashoffset="0" stroke-linecap="round" stroke-linejoin="round"/>
<path id="path_36877a8bcaf346f2c04fa4ef5ac3da82" d="M 57.98227 116.6362 L 57.77699 116.6362 L 57.77697 157.6646 C 57.77697 157.6646 108.5496 157.6646 125.4738 157.6646 L 131.3292 151.5945 L 131.4755 123.9759 L 125.4738 116.6362 L 125.4547 116.6362" fill-rule="evenodd" fill="none" fill-opacity="1" stroke="#FF0000" stroke-opacity="1" stroke-width="0.1" stroke-linecap="round" stroke-linejoin="round"/>
<path id="path_cb3d393e5ce667ac9209a9d29f586c69" d="M 125.4138 157.6633 L 125.4138 116.4927" fill-rule="evenodd" fill="none" fill-opacity="1" stroke="#FF0000" stroke-opacity="1" stroke-width="0.1" stroke-dasharray="1 1" stroke-dashoffset="0" stroke-linecap="round" stroke-linejoin="round"/>
<path id="path_1010eea0d1fcea348053d216645855aa" d="M 57.41756 49.02637 L 57.41797 48.82109 L 16.38956 48.74006 C 16.38956 48.74006 16.28929 99.51244 16.25586 116.4366 L 22.31447 122.3039 L 49.93276 122.5048 L 57.28426 116.5176 L 57.28429 116.4985" fill-rule="evenodd" fill="none" fill-opacity="1" stroke="#FF0000" stroke-opacity="1" stroke-width="0.1" stroke-linecap="round" stroke-linejoin="round"/>
<path id="path_412744207d8909775aed66c841eb88e6" d="M 16.25729 116.3767 L 57.42786 116.458" fill-rule="evenodd" fill="none" fill-opacity="1" stroke="#FF0000" stroke-opacity="1" stroke-width="0.1" stroke-dasharray="1 1" stroke-dashoffset="0" stroke-linecap="round" stroke-linejoin="round"/>
<path id="path_7b2a172843ca9963899ef70a9ea1cb4d" d="M 23.58065 175.1019 L 23.58065 246.2219 L 94.70065 246.2219 L 94.70065 175.1019 L 23.58065 175.1019 Z" fill-rule="evenodd" fill="none" fill-opacity="1" stroke="#FF0000" stroke-opacity="1" stroke-width="0.1" stroke-dasharray="1 1" stroke-dashoffset="0" stroke-linecap="round" stroke-linejoin="round"/>
<path id="path_9f708f4e80f2cffbc1fdef4bb9e7e2e0" d="M 65.12436 210.0478 C 65.12436 213.2012 62.5628 215.7627 59.40935 215.7627 C 56.25591 215.7627 53.69436 213.2012 53.69436 210.0478 C 53.69436 206.8943 56.25591 204.3327 59.40935 204.3327 C 62.5628 204.3327 65.12436 206.8943 65.12436 210.0478 Z" fill-rule="evenodd" fill="none" fill-opacity="1" stroke="#FF0000" stroke-opacity="1" stroke-width="0.1" stroke-linecap="round" stroke-linejoin="round"/>
<path id="path_b4b5301bc247e0d4a062846e418ca1bd" d="M 22.8161 174.8593 L 7.569523 174.9162 C 7.569523 174.9162 7.770095 239.1329 7.792381 246.2681 L 10.2793 252.6465 L 20.38556 252.6889 L 23.10552 246.211 L 23.10517 246.1002" fill-rule="evenodd" fill="none" fill-opacity="1" stroke="#FF0000" stroke-opacity="1" stroke-width="0.1" stroke-linecap="round" stroke-linejoin="round"/>
<path id="path_1442d64f3554b7eccd0c2fa0e649bb4e" d="M 8.004524 246.1753 L 22.89267 246.1198" fill-rule="evenodd" fill="none" fill-opacity="1" stroke="#FF0000" stroke-opacity="1" stroke-width="0.1" stroke-dasharray="1 1" stroke-dashoffset="0" stroke-linecap="round" stroke-linejoin="round"/>
<path id="path_a2661259e3079870d8020405a2ac0dc6" d="M 95.10756 246.1373 L 110.3541 246.0804 C 110.3541 246.0804 110.1536 181.8637 110.1313 174.7285 L 107.6443 168.3501 L 97.5381 168.3076 L 94.81815 174.7856 L 94.8185 174.8964" fill-rule="evenodd" fill="none" fill-opacity="1" stroke="#FF0000" stroke-opacity="1" stroke-width="0.1" stroke-linecap="round" stroke-linejoin="round"/>
<path id="path_7a7b0e0d15fbd2b571fa7442de6e635c" d="M 109.9191 174.8213 L 95.03094 174.8768" fill-rule="evenodd" fill="none" fill-opacity="1" stroke="#FF0000" stroke-opacity="1" stroke-width="0.1" stroke-dasharray="1 1" stroke-dashoffset="0" stroke-linecap="round" stroke-linejoin="round"/>
<path id="path_3ef1d1b212a766518cbfa329e910a368" d="M 23.27192 246.4132 L 23.27013 261.6597 C 23.27013 261.6597 87.48671 261.7062 94.62187 261.7113 L 101.0097 259.249 L 101.091 249.1431 L 94.62363 246.3983 L 94.51283 246.3982" fill-rule="evenodd" fill="none" fill-opacity="1" stroke="#FF0000" stroke-opacity="1" stroke-width="0.1" stroke-linecap="round" stroke-linejoin="round"/>
<path id="path_7d80079a755a9b19e68d9a296cd79028" d="M 94.52988 261.4988 L 94.53159 246.6107" fill-rule="evenodd" fill="none" fill-opacity="1" stroke="#FF0000" stroke-opacity="1" stroke-width="0.1" stroke-dasharray="1 1" stroke-dashoffset="0" stroke-linecap="round" stroke-linejoin="round"/>
<path id="path_fd76dce9b949defd95cac6e12896cd8c" d="M 94.53781 174.6075 L 94.5396 159.3609 C 94.5396 159.3609 30.32282 159.3145 23.18762 159.3093 L 16.79973 161.7717 L 16.71842 171.8776 L 23.18584 174.6224 L 23.29665 174.6225" fill-rule="evenodd" fill="none" fill-opacity="1" stroke="#FF0000" stroke-opacity="1" stroke-width="0.1" stroke-linecap="round" stroke-linejoin="round"/>
<path id="path_f9fbef7f232c605e0689c9d3510aa91d" d="M 23.27958 159.5218 L 23.27784 174.41" fill-rule="evenodd" fill="none" fill-opacity="1" stroke="#FF0000" stroke-opacity="1" stroke-width="0.1" stroke-dasharray="1 1" stroke-dashoffset="0" stroke-linecap="round" stroke-linejoin="round"/>
<path id="path_e0ea0872b64878f163577d5d007888d3" d="M 128.0728 176.3675 L 128.0728 242.4075 L 194.1129 242.4075 L 194.1129 176.3675 L 128.0728 176.3675 Z" fill-rule="evenodd" fill="none" fill-opacity="1" stroke="#FF0000" stroke-opacity="1" stroke-width="0.1" stroke-dasharray="1 1" stroke-dashoffset="0" stroke-linecap="round" stroke-linejoin="round"/>
<path id="path_14734298244bf16119379930fa0d8c96" d="M 167.0766 208.7734 C 167.0766 211.9268 164.515 214.4884 161.3615 214.4884 C 158.2081 214.4884 155.6465 211.9268 155.6465 208.7734 C 155.6465 205.6199 158.2081 203.0584 161.3615 203.0584 C 164.515 203.0584 167.0766 205.6199 167.0766 208.7734 Z" fill-rule="evenodd" fill="none" fill-opacity="1" stroke="#FF0000" stroke-opacity="1" stroke-width="0.1" stroke-linecap="round" stroke-linejoin="round"/>
<path id="path_181c590b71558ca770d4de608cb3f91c" d="M 127.4832 176.4574 L 113.3449 176.5101 C 113.3449 176.5101 113.531 236.0588 113.5516 242.6753 L 115.8578 248.59 L 125.2294 248.6294 L 127.7516 242.6223 L 127.7513 242.5196" fill-rule="evenodd" fill="none" fill-opacity="1" stroke="#FF0000" stroke-opacity="1" stroke-width="0.1" stroke-linecap="round" stroke-linejoin="round"/>
<path id="path_42035b1ac7c90192ad5ed5051ac4d4b0" d="M 113.7483 242.5893 L 127.5543 242.5378" fill-rule="evenodd" fill="none" fill-opacity="1" stroke="#FF0000" stroke-opacity="1" stroke-width="0.1" stroke-dasharray="1 1" stroke-dashoffset="0" stroke-linecap="round" stroke-linejoin="round"/>
<path id="path_6f70b2ac231a1d996aa93f868f59148d" d="M 194.5197 242.5541 L 208.6579 242.5013 C 208.6579 242.5013 208.472 182.9526 208.4513 176.3361 L 206.1451 170.4214 L 196.7735 170.382 L 194.2513 176.3891 L 194.2516 176.4918" fill-rule="evenodd" fill="none" fill-opacity="1" stroke="#FF0000" stroke-opacity="1" stroke-width="0.1" stroke-linecap="round" stroke-linejoin="round"/>
<path id="path_f68416f0917469a048b9514fcacde606" d="M 208.2545 176.4221 L 194.4486 176.4736" fill-rule="evenodd" fill="none" fill-opacity="1" stroke="#FF0000" stroke-opacity="1" stroke-width="0.1" stroke-dasharray="1 1" stroke-dashoffset="0" stroke-linecap="round" stroke-linejoin="round"/>
<path id="path_2359f253fedda08407546e287a8dda32" d="M 127.9059 242.8099 L 127.9043 256.9481 C 127.9043 256.9481 187.4527 256.9912 194.0692 256.996 L 199.9928 254.7126 L 200.0682 245.3413 L 194.0709 242.796 L 193.9681 242.796" fill-rule="evenodd" fill="none" fill-opacity="1" stroke="#FF0000" stroke-opacity="1" stroke-width="0.1" stroke-linecap="round" stroke-linejoin="round"/>
<path id="path_36d78b0ec56be191fea41536c939d720" d="M 193.9839 256.7989 L 193.9855 242.993" fill-rule="evenodd" fill="none" fill-opacity="1" stroke="#FF0000" stroke-opacity="1" stroke-width="0.1" stroke-dasharray="1 1" stroke-dashoffset="0" stroke-linecap="round" stroke-linejoin="round"/>
<path id="path_100e2db0f21cd1586728af340cd5ab91" d="M 193.9913 176.2239 L 193.993 162.0857 C 193.993 162.0857 134.4443 162.0426 127.8277 162.0378 L 121.9042 164.3212 L 121.8288 173.6925 L 127.8261 176.2378 L 127.9288 176.2378" fill-rule="evenodd" fill="none" fill-opacity="1" stroke="#FF0000" stroke-opacity="1" stroke-width="0.1" stroke-linecap="round" stroke-linejoin="round"/>
<path id="path_eb9366c1b21b5fcd87e9cb020914f675" d="M 127.913 162.2349 L 127.9114 176.0407" fill-rule="evenodd" fill="none" fill-opacity="1" stroke="#FF0000" stroke-opacity="1" stroke-width="0.1" stroke-dasharray="1 1" stroke-dashoffset="0" stroke-linecap="round" stroke-linejoin="round"/>
</defs>
<g>
<g>
<use xlink:href="#path_bb48652904a6f03135ead54774ececf3"/>
</g>
<g>
<g>
<use xlink:href="#path_2465871ed6c1efcb3cb5f3090b12439a"/>
</g>
<g>
<use xlink:href="#path_b7ea2037eebd1ad08a64cd32f47e3512"/>
</g>
</g>
<g>
<g>
<use xlink:href="#path_9b25530809f275580ddae9e642de3220"/>
</g>
<g>
<use xlink:href="#path_7239029b4217cef8b833fbe7495a91fa"/>
</g>
</g>
<g>
<g>
<use xlink:href="#path_36877a8bcaf346f2c04fa4ef5ac3da82"/>
</g>
<g>
<use xlink:href="#path_cb3d393e5ce667ac9209a9d29f586c69"/>
</g>
</g>
<g>
<g>
<use xlink:href="#path_1010eea0d1fcea348053d216645855aa"/>
</g>
<g>
<use xlink:href="#path_412744207d8909775aed66c841eb88e6"/>
</g>
</g>
</g>
<g>
<g>
<use xlink:href="#path_7b2a172843ca9963899ef70a9ea1cb4d"/>
</g>
<g>
<use xlink:href="#path_9f708f4e80f2cffbc1fdef4bb9e7e2e0"/>
</g>
<g>
<g>
<use xlink:href="#path_b4b5301bc247e0d4a062846e418ca1bd"/>
</g>
<g>
<use xlink:href="#path_1442d64f3554b7eccd0c2fa0e649bb4e"/>
</g>
<g>
<use xlink:href="#path_a2661259e3079870d8020405a2ac0dc6"/>
</g>
<g>
<use xlink:href="#path_7a7b0e0d15fbd2b571fa7442de6e635c"/>
</g>
<g>
<use xlink:href="#path_3ef1d1b212a766518cbfa329e910a368"/>
</g>
<g>
<use xlink:href="#path_7d80079a755a9b19e68d9a296cd79028"/>
</g>
<g>
<use xlink:href="#path_fd76dce9b949defd95cac6e12896cd8c"/>
</g>
<g>
<use xlink:href="#path_f9fbef7f232c605e0689c9d3510aa91d"/>
</g>
</g>
</g>
<g>
<g>
<use xlink:href="#path_e0ea0872b64878f163577d5d007888d3"/>
</g>
<g>
<use xlink:href="#path_14734298244bf16119379930fa0d8c96"/>
</g>
<g>
<g>
<use xlink:href="#path_181c590b71558ca770d4de608cb3f91c"/>
</g>
<g>
<use xlink:href="#path_42035b1ac7c90192ad5ed5051ac4d4b0"/>
</g>
<g>
<use xlink:href="#path_6f70b2ac231a1d996aa93f868f59148d"/>
</g>
<g>
<use xlink:href="#path_f68416f0917469a048b9514fcacde606"/>
</g>
<g>
<use xlink:href="#path_2359f253fedda08407546e287a8dda32"/>
</g>
<g>
<use xlink:href="#path_36d78b0ec56be191fea41536c939d720"/>
</g>
<g>
<use xlink:href="#path_100e2db0f21cd1586728af340cd5ab91"/>
</g>
<g>
<use xlink:href="#path_eb9366c1b21b5fcd87e9cb020914f675"/>
</g>
</g>
</g>
</svg>