<?xml version="1.0" encoding="utf-8"?>
<!-- Generator: Adobe Illustrator 26.5.0, SVG Export Plug-In . SVG Version: 6.00 Build 0)  -->
<svg version="1.1" id="_x30_" xmlns="http://www.w3.org/2000/svg" xmlns:xlink="http://www.w3.org/1999/xlink" x="0px" y="0px"
	 viewBox="0 0 340.4 230" style="enable-background:new 0 0 340.4 230;" xml:space="preserve">
<style type="text/css">
	.st0{fill:none;stroke:#000000;stroke-width:1.000000e-03;stroke-linecap:round;stroke-linejoin:round;stroke-miterlimit:10;}
</style>
<g id="LWPOLYLINE_00000150099102796216082020000005102026509411120048_">
	<path class="st0" d="M31.8,63.1v-4.5c0.4,0,0.9,0,1.3,0C45,58.9,54.4,68.9,54,80.8c-0.4,11.9-10.3,21.2-22.2,20.9v-4.5
		c-8.9-0.4-16-7.5-16.3-16.3C15.1,71.4,22.4,63.5,31.8,63.1z"/>
</g>
<g id="LWPOLYLINE_00000129919861890339801440000005587968913457642142_">
	<path class="st0" d="M3.7,80.1c0,16.4,12.1,29.8,26.9,29.8l0,0h55.3V50.3H30.7C15.8,50.3,3.7,63.7,3.7,80.1z"/>
</g>
<g id="LWPOLYLINE_00000142873819429069268100000018253296600916422071_">
	<path class="st0" d="M336.4,15.2C336.4,7.3,330,1,322.2,1H101.1c-7.8,0-14.2,6.3-14.2,14.2v85c0,7.8,6.3,14.2,14.2,14.2h221.1
		c7.8,0,14.2-6.3,14.2-14.2V15.2z"/>
</g>
<g id="LWPOLYLINE_00000163063343968954422010000008876464575516755627_">
	<rect x="98.2" y="37.3" class="st0" width="8.3" height="40.8"/>
</g>
<g id="LWPOLYLINE_00000031167256187296515600000013412942055096968856_">
	<rect x="316.8" y="37.3" class="st0" width="8.3" height="40.8"/>
</g>
<g id="LWPOLYLINE_00000183951034395089321710000001083430048819233451_">
	<rect x="164.7" y="28.6" class="st0" width="8.3" height="58.1"/>
</g>
<g id="LWPOLYLINE_00000060735582177478706790000004358677253905686431_">
	<rect x="257.8" y="28.7" class="st0" width="8.3" height="58"/>
</g>
<g id="CIRCLE_00000144331372169476793080000015117290599145985194_">
	<circle class="st0" cx="32.5" cy="28.1" r="5.7"/>
</g>
<g id="LWPOLYLINE_00000014612554538098131070000014512580586512992954_">
	<path class="st0" d="M27.8,6.8c-11.7,0-21.3,9.5-21.3,21.3l0,0c0,11.7,9.5,21.3,21.3,21.3h58.1V6.8H27.8z"/>
</g>
<g id="LWPOLYLINE_00000008140903124324377800000013147288100492972987_">
	<path class="st0" d="M31.9,177v-4.5c0.4,0,0.9,0,1.3,0c11.9,0.4,21.2,10.3,20.9,22.2c-0.4,11.9-10.3,21.2-22.2,20.9V211
		c-8.9-0.4-16-7.5-16.3-16.3C15.2,185.3,22.5,177.4,31.9,177z"/>
</g>
<g id="LWPOLYLINE_00000086690311905300234150000014114158663028920223_">
	<path class="st0" d="M3.8,194c0,16.4,12.1,29.8,26.9,29.8l0,0H86v-59.5H30.8C15.9,164.3,3.8,177.6,3.8,194z"/>
</g>
<g id="LWPOLYLINE_00000065068718860491893700000007338006740352733372_">
	<path class="st0" d="M336.5,129.1c0-7.8-6.3-14.2-14.2-14.2H101.2c-7.8,0-14.2,6.3-14.2,14.2v85c0,7.8,6.3,14.2,14.2,14.2h221.1
		c7.8,0,14.2-6.3,14.2-14.2V129.1z"/>
</g>
<g id="LWPOLYLINE_00000173870403948089342180000005882171592682821038_">
	<rect x="98.3" y="151.2" class="st0" width="8.3" height="40.8"/>
</g>
<g id="LWPOLYLINE_00000080925656016858696110000018014581664006569102_">
	<rect x="316.9" y="151.2" class="st0" width="8.3" height="40.8"/>
</g>
<g id="LWPOLYLINE_00000078749922996114161840000005068682080517803710_">
	<rect x="164.8" y="142.6" class="st0" width="8.3" height="58.1"/>
</g>
<g id="LWPOLYLINE_00000042003463575282598790000009141434115428615837_">
	<rect x="257.9" y="142.6" class="st0" width="8.3" height="58"/>
</g>
<g id="CIRCLE_00000121977840692252872510000001564656689979382952_">
	<circle class="st0" cx="32.6" cy="142" r="5.7"/>
</g>
<g id="LWPOLYLINE_00000114042587001000475060000013584656697818300082_">
	<path class="st0" d="M27.9,120.7c-11.7,0-21.3,9.5-21.3,21.3l0,0c0,11.7,9.5,21.3,21.3,21.3H86v-42.5H27.9z"/>
</g>
</svg>
