<?xml version="1.0" encoding="utf-8"?>
<!DOCTYPE svg PUBLIC "-//W3C//DTD SVG 1.1//EN" "http://www.w3.org/Graphics/SVG/1.1/DTD/svg11.dtd">
<!-- exported from Silhouette Studio® Business Edition V4.4.270ssbe -->
<svg version="1.1" xmlns="http://www.w3.org/2000/svg" xmlns:xlink="http://www.w3.org/1999/xlink" width="215.9mm" height="279.4mm" viewBox="0 0 215.9 279.4">
<defs>
<path id="path_55a0df0c3970069c48d96e14fec8959c" d="M 57.5974 44.55199 L 57.5974 112.2488 L 125.2942 112.2488 L 125.2943 44.55199 L 57.5974 44.55199 Z" fill-rule="evenodd" fill="none" fill-opacity="1" stroke="#FF0000" stroke-opacity="1" stroke-width="0.1" stroke-dasharray="1 1" stroke-dashoffset="0" stroke-linecap="round" stroke-linejoin="round"/>
<path id="path_d10a2ccc1ade30bf87a92071b3884f32" d="M 125.0946 44.51795 L 125.2999 44.51795 L 125.2999 3.489533 C 125.2999 3.489533 74.52727 3.489533 57.60307 3.489533 L 51.74769 9.559709 L 51.60134 37.17831 L 57.60307 44.51795 L 57.62216 44.51795" fill-rule="evenodd" fill="none" fill-opacity="1" stroke="#FF0000" stroke-opacity="1" stroke-width="0.1" stroke-linecap="round" stroke-linejoin="round"/>
<path id="path_82ecc01685c0fed2d83d7e2cdf467287" d="M 57.66302 3.490849 L 57.66302 44.66145" fill-rule="evenodd" fill="none" fill-opacity="1" stroke="#FF0000" stroke-opacity="1" stroke-width="0.1" stroke-dasharray="1 1" stroke-dashoffset="0" stroke-linecap="round" stroke-linejoin="round"/>
<path id="path_83439ec458f421b5fc007de431b89063" d="M 125.3682 111.9361 L 125.3678 112.1414 L 166.3962 112.2224 C 166.3962 112.2224 166.4965 61.44995 166.5299 44.52581 L 160.4713 38.65848 L 132.853 38.45759 L 125.5015 44.44479 L 125.5014 44.4639" fill-rule="evenodd" fill="none" fill-opacity="1" stroke="#FF0000" stroke-opacity="1" stroke-width="0.1" stroke-linecap="round" stroke-linejoin="round"/>
<path id="path_3a7e48dca6b5f835ab8927604e1ae7d4" d="M 166.5285 44.58576 L 125.3578 44.50446" fill-rule="evenodd" fill="none" fill-opacity="1" stroke="#FF0000" stroke-opacity="1" stroke-width="0.1" stroke-dasharray="1 1" stroke-dashoffset="0" stroke-linecap="round" stroke-linejoin="round"/>
<path id="path_fb12ed15108d80a767824956c98a7a00" d="M 57.98227 112.3235 L 57.77699 112.3235 L 57.77697 153.3519 C 57.77697 153.3519 108.5496 153.3519 125.4738 153.3519 L 131.3292 147.2817 L 131.4755 119.6631 L 125.4738 112.3234 L 125.4547 112.3234" fill-rule="evenodd" fill="none" fill-opacity="1" stroke="#FF0000" stroke-opacity="1" stroke-width="0.1" stroke-linecap="round" stroke-linejoin="round"/>
<path id="path_3324d446b8617c6f4b84ea9ce02de788" d="M 125.4138 153.3506 L 125.4138 112.18" fill-rule="evenodd" fill="none" fill-opacity="1" stroke="#FF0000" stroke-opacity="1" stroke-width="0.1" stroke-dasharray="1 1" stroke-dashoffset="0" stroke-linecap="round" stroke-linejoin="round"/>
<path id="path_5a9e8aef7ca564910b04c6fff31af3ff" d="M 57.41756 44.71363 L 57.41797 44.50835 L 16.38956 44.42733 C 16.38956 44.42733 16.28929 95.19971 16.25586 112.1238 L 22.31447 117.9912 L 49.93276 118.192 L 57.28426 112.2049 L 57.28429 112.1858" fill-rule="evenodd" fill="none" fill-opacity="1" stroke="#FF0000" stroke-opacity="1" stroke-width="0.1" stroke-linecap="round" stroke-linejoin="round"/>
<path id="path_026a812b8710a5fccc27478881611283" d="M 16.25729 112.0639 L 57.42786 112.1452" fill-rule="evenodd" fill="none" fill-opacity="1" stroke="#FF0000" stroke-opacity="1" stroke-width="0.1" stroke-dasharray="1 1" stroke-dashoffset="0" stroke-linecap="round" stroke-linejoin="round"/>
<path id="path_30a418526147a64bc66a966505971c71" d="M 7.947456 20.03365 L 7.947456 10.94272 L 11.3581 10.94272 C 12.05263 10.94272 12.6097 11.03471 13.02932 11.21867 C 13.44893 11.40265 13.7776 11.68584 14.0153 12.06824 C 14.25301 12.45064 14.37187 12.85062 14.37187 13.26816 C 14.37187 13.65677 14.26645 14.02264 14.05561 14.36577 C 13.84477 14.70891 13.52644 14.98589 13.10063 15.19673 C 13.65047 15.35796 14.07318 15.63287 14.36877 16.02148 C 14.66436 16.4101 14.81216 16.86897 14.81216 17.39815 C 14.81216 17.82396 14.72224 18.2198 14.5424 18.58568 C 14.36257 18.95154 14.14036 19.23369 13.87578 19.43213 C 13.61119 19.63057 13.27943 19.78043 12.88049 19.88171 C 12.48154 19.983 11.99269 20.03365 11.41391 20.03365 L 7.947456 20.03365 Z M 9.150482 14.76265 L 11.11626 14.76265 C 11.64956 14.76265 12.03196 14.72751 12.26347 14.65723 C 12.5694 14.56628 12.79987 14.41539 12.9549 14.20454 C 13.10993 13.9937 13.18745 13.72913 13.18745 13.4108 C 13.18745 13.10901 13.1151 12.84338 12.97041 12.61394 C 12.82571 12.38449 12.619 12.2274 12.35029 12.14265 C 12.08157 12.05791 11.62062 12.01553 10.96743 12.01553 L 9.150482 12.01553 L 9.150482 14.76265 Z M 9.150482 18.96085 L 11.41391 18.96085 C 11.80252 18.96085 12.07537 18.94638 12.23247 18.91743 C 12.50945 18.86783 12.74096 18.78514 12.92699 18.66939 C 13.11303 18.55363 13.26599 18.38516 13.38589 18.16399 C 13.50578 17.94281 13.56572 17.68753 13.56572 17.39815 C 13.56572 17.05914 13.4789 16.76459 13.30527 16.51448 C 13.13164 16.26436 12.89082 16.08867 12.58283 15.98738 C 12.27484 15.88609 11.83146 15.83545 11.25268 15.83545 L 9.150482 15.83545 L 9.150482 18.96085 Z" fill-rule="evenodd" fill="none" fill-opacity="1" stroke="#FF0000" stroke-opacity="1" stroke-width="0.1" stroke-linecap="round" stroke-linejoin="round"/>
<path id="path_3b42edf9e3e6d7acf5c60d748e06792f" d="M 20.62265 19.2213 C 20.20924 19.57269 19.81133 19.82074 19.42892 19.96544 C 19.04652 20.11012 18.63621 20.18248 18.198 20.18248 C 17.47453 20.18248 16.91849 20.00574 16.52988 19.65227 C 16.14127 19.29881 15.94697 18.84715 15.94697 18.29732 C 15.94697 17.97485 16.02035 17.6803 16.16711 17.41365 C 16.31387 17.147 16.50611 16.93306 16.74382 16.77184 C 16.98153 16.6106 17.24921 16.48865 17.54688 16.40596 C 17.76598 16.34808 18.09671 16.29227 18.53906 16.23853 C 19.4403 16.13104 20.10382 16.00288 20.52963 15.85405 C 20.53377 15.7011 20.53584 15.60394 20.53584 15.56261 C 20.53584 15.10785 20.43042 14.78746 20.21957 14.60143 C 19.93433 14.34924 19.51057 14.22314 18.94833 14.22314 C 18.4233 14.22314 18.03573 14.31512 17.78561 14.4991 C 17.53551 14.68306 17.3505 15.00862 17.23061 15.47578 L 16.13921 15.32695 C 16.23843 14.8598 16.40173 14.48256 16.6291 14.19524 C 16.85648 13.90791 17.18513 13.68674 17.61508 13.53171 C 18.04504 13.37668 18.5432 13.29916 19.10957 13.29916 C 19.67181 13.29916 20.12862 13.36531 20.48003 13.4976 C 20.83143 13.6299 21.08981 13.7963 21.25517 13.99681 C 21.42054 14.19731 21.53629 14.45052 21.60244 14.75645 C 21.63965 14.94661 21.65825 15.28975 21.65825 15.78584 L 21.65825 17.27412 C 21.65825 18.31178 21.68202 18.96808 21.72956 19.243 C 21.77711 19.51791 21.87115 19.78146 22.01172 20.03365 L 20.84589 20.03365 C 20.73014 19.80214 20.65572 19.53136 20.62265 19.2213 Z M 20.52963 16.72842 C 20.1245 16.89378 19.51678 17.03435 18.70649 17.1501 C 18.2476 17.21625 17.92308 17.29066 17.73291 17.37334 C 17.54274 17.45602 17.39598 17.57695 17.29263 17.73611 C 17.18927 17.89528 17.1376 18.07201 17.1376 18.26631 C 17.1376 18.56396 17.25025 18.81201 17.47556 19.01045 C 17.70087 19.20889 18.03056 19.30811 18.46465 19.30811 C 18.89459 19.30811 19.277 19.21405 19.61186 19.02596 C 19.94672 18.83786 20.1927 18.58051 20.3498 18.25391 C 20.46969 18.00172 20.52963 17.62965 20.52963 17.1377 L 20.52963 16.72842 Z" fill-rule="evenodd" fill="none" fill-opacity="1" stroke="#FF0000" stroke-opacity="1" stroke-width="0.1" stroke-linecap="round" stroke-linejoin="round"/>
<path id="path_b1a86c1033e38246b650be5064eb9631" d="M 22.94189 18.06787 L 24.0457 17.89424 C 24.10771 18.33659 24.28031 18.67558 24.5635 18.91124 C 24.84668 19.14688 25.24252 19.26469 25.75102 19.26469 C 26.26365 19.26469 26.64399 19.16031 26.89204 18.95154 C 27.14008 18.74277 27.26411 18.49782 27.26411 18.21671 C 27.26411 17.96452 27.15456 17.76608 26.93545 17.62138 C 26.78249 17.52217 26.40215 17.39609 25.79443 17.24312 C 24.97588 17.03641 24.40847 16.8576 24.09221 16.70671 C 23.77595 16.55582 23.53617 16.34705 23.37287 16.0804 C 23.20957 15.81375 23.12792 15.5192 23.12792 15.19673 C 23.12792 14.90321 23.19511 14.63139 23.32946 14.38127 C 23.46382 14.13116 23.64676 13.92342 23.87827 13.75806 C 24.0519 13.6299 24.28858 13.52138 24.5883 13.4325 C 24.88802 13.34361 25.20945 13.29916 25.55258 13.29916 C 26.06935 13.29916 26.52306 13.37358 26.91374 13.52242 C 27.30441 13.67123 27.59277 13.87277 27.7788 14.12703 C 27.96484 14.38127 28.09299 14.72131 28.16328 15.14713 L 27.07187 15.29594 C 27.02226 14.95695 26.8786 14.69237 26.64089 14.5022 C 26.40318 14.31203 26.06728 14.21695 25.6332 14.21695 C 25.12057 14.21695 24.7547 14.3017 24.53559 14.47119 C 24.31648 14.64069 24.20693 14.83913 24.20693 15.06651 C 24.20693 15.2112 24.2524 15.34143 24.34335 15.45718 C 24.4343 15.57707 24.57693 15.67628 24.77123 15.75484 C 24.88286 15.79617 25.21152 15.89127 25.75723 16.04008 C 26.54684 16.25093 27.09771 16.42352 27.40984 16.55789 C 27.72196 16.69225 27.9669 16.88759 28.14468 17.14391 C 28.32244 17.40021 28.41132 17.71854 28.41132 18.09888 C 28.41132 18.47095 28.3028 18.82132 28.08576 19.14998 C 27.86872 19.47864 27.55556 19.73289 27.14629 19.91272 C 26.73701 20.09256 26.27399 20.18248 25.75723 20.18248 C 24.90146 20.18248 24.24931 20.0047 23.80075 19.64917 C 23.3522 19.29364 23.06591 18.76654 22.94189 18.06787 Z" fill-rule="evenodd" fill="none" fill-opacity="1" stroke="#FF0000" stroke-opacity="1" stroke-width="0.1" stroke-linecap="round" stroke-linejoin="round"/>
<path id="path_0aa64a5c03525fe681d68b0511575a39" d="M 34.24663 17.91284 L 35.40004 18.05547 C 35.21814 18.72934 34.88121 19.2523 34.38925 19.62437 C 33.89729 19.99644 33.26891 20.18248 32.5041 20.18248 C 31.54085 20.18248 30.77707 19.88585 30.21276 19.2926 C 29.64845 18.69936 29.3663 17.86737 29.3663 16.79663 C 29.3663 15.68869 29.65156 14.8288 30.22206 14.21695 C 30.79257 13.6051 31.53258 13.29916 32.44209 13.29916 C 33.32265 13.29916 34.04198 13.59889 34.60009 14.19835 C 35.1582 14.79779 35.43725 15.64114 35.43725 16.72842 C 35.43725 16.79457 35.43518 16.89378 35.43105 17.02608 L 30.51972 17.02608 C 30.56107 17.74954 30.7657 18.30351 31.13364 18.68799 C 31.50157 19.07246 31.96046 19.26469 32.5103 19.26469 C 32.91957 19.26469 33.26891 19.15721 33.5583 18.94225 C 33.84769 18.72726 34.07713 18.38414 34.24663 17.91284 Z M 30.58173 16.10831 L 34.25903 16.10831 C 34.20942 15.55434 34.06886 15.13885 33.83735 14.86186 C 33.48181 14.43192 33.02086 14.21695 32.45448 14.21695 C 31.94186 14.21695 31.51087 14.3885 31.16154 14.73164 C 30.81221 15.07477 30.61894 15.53366 30.58173 16.10831 Z" fill-rule="evenodd" fill="none" fill-opacity="1" stroke="#FF0000" stroke-opacity="1" stroke-width="0.1" stroke-linecap="round" stroke-linejoin="round"/>
<path id="path_e181ad5b7e484ac748238890c5e2d8b0" d="M 7.947456 34.22192 L 7.947456 25.13101 L 11.3581 25.13101 C 12.05263 25.13101 12.6097 25.22299 13.02932 25.40695 C 13.44893 25.59093 13.7776 25.87411 14.0153 26.25652 C 14.25301 26.63892 14.37187 27.03889 14.37187 27.45645 C 14.37187 27.84505 14.26645 28.21092 14.05561 28.55405 C 13.84477 28.89719 13.52644 29.17416 13.10063 29.38501 C 13.65047 29.54623 14.07318 29.82115 14.36877 30.20976 C 14.66436 30.59837 14.81216 31.05725 14.81216 31.58643 C 14.81216 32.01224 14.72224 32.40808 14.5424 32.77396 C 14.36257 33.13982 14.14036 33.42197 13.87578 33.62041 C 13.61119 33.81885 13.27943 33.9687 12.88049 34.06999 C 12.48154 34.17128 11.99269 34.22192 11.41391 34.22192 L 7.947456 34.22192 Z M 9.150482 28.95093 L 11.11626 28.95093 C 11.64956 28.95093 12.03196 28.91579 12.26347 28.8455 C 12.5694 28.75456 12.79987 28.60367 12.9549 28.39282 C 13.10993 28.18198 13.18745 27.9174 13.18745 27.59908 C 13.18745 27.29729 13.1151 27.03166 12.97041 26.80222 C 12.82571 26.57278 12.619 26.41568 12.35029 26.33093 C 12.08157 26.24619 11.62062 26.20381 10.96743 26.20381 L 9.150482 26.20381 L 9.150482 28.95093 Z M 9.150482 33.14912 L 11.41391 33.14912 C 11.80252 33.14912 12.07537 33.13466 12.23247 33.10571 C 12.50945 33.05611 12.74096 32.97342 12.92699 32.85767 C 13.11303 32.74191 13.26599 32.57344 13.38589 32.35226 C 13.50578 32.13109 13.56572 31.87581 13.56572 31.58643 C 13.56572 31.24742 13.4789 30.95287 13.30527 30.70276 C 13.13164 30.45264 12.89082 30.27695 12.58283 30.17566 C 12.27484 30.07437 11.83146 30.02373 11.25268 30.02373 L 9.150482 30.02373 L 9.150482 33.14912 Z" fill-rule="evenodd" fill="none" fill-opacity="1" stroke="#FF0000" stroke-opacity="1" stroke-width="0.1" stroke-linecap="round" stroke-linejoin="round"/>
<path id="path_3a0c1b283f8578f3eec6eb51adebf532" d="M 15.90976 30.92911 C 15.90976 29.70953 16.24876 28.80623 16.92676 28.21919 C 17.49313 27.73137 18.18353 27.48746 18.99795 27.48746 C 19.90332 27.48746 20.64333 27.78407 21.21796 28.37732 C 21.79261 28.97057 22.07993 29.79015 22.07993 30.83609 C 22.07993 31.68358 21.9528 32.3502 21.69855 32.83597 C 21.44431 33.32172 21.0743 33.69896 20.58855 33.96768 C 20.10279 34.23639 19.57259 34.37076 18.99795 34.37076 C 18.07604 34.37076 17.33086 34.07516 16.76242 33.48398 C 16.19398 32.89281 15.90976 32.04118 15.90976 30.92911 Z M 17.05698 30.92911 C 17.05698 31.77246 17.24095 32.40395 17.60889 32.82356 C 17.97682 33.24318 18.43984 33.45297 18.99795 33.45297 C 19.55192 33.45297 20.01287 33.24214 20.38081 32.82047 C 20.74874 32.39877 20.93271 31.75592 20.93271 30.89189 C 20.93271 30.07747 20.74771 29.46045 20.37771 29.04085 C 20.00771 28.62123 19.54778 28.41142 18.99795 28.41142 C 18.43984 28.41142 17.97682 28.62019 17.60889 29.03775 C 17.24095 29.45529 17.05698 30.08574 17.05698 30.92911 Z" fill-rule="evenodd" fill="none" fill-opacity="1" stroke="#FF0000" stroke-opacity="1" stroke-width="0.1" stroke-linecap="round" stroke-linejoin="round"/>
<path id="path_2804ce66319fad34492c7facb0778742" d="M 25.82543 33.22354 L 25.98666 34.20952 C 25.67247 34.27567 25.39135 34.30875 25.1433 34.30875 C 24.73816 34.30875 24.42397 34.24466 24.20073 34.1165 C 23.97749 33.98834 23.82039 33.81989 23.72944 33.61111 C 23.63849 33.40233 23.59301 32.96309 23.59301 32.29337 L 23.59301 28.50444 L 22.77446 28.50444 L 22.77446 27.63628 L 23.59301 27.63628 L 23.59301 26.00537 L 24.70303 25.33565 L 24.70303 27.63628 L 25.82543 27.63628 L 25.82543 28.50444 L 24.70303 28.50444 L 24.70303 32.35538 C 24.70303 32.67369 24.72266 32.87834 24.76193 32.96928 C 24.80121 33.06024 24.86529 33.13258 24.95417 33.18633 C 25.04305 33.24007 25.17018 33.26694 25.33554 33.26694 C 25.45956 33.26694 25.62286 33.25247 25.82543 33.22354 Z" fill-rule="evenodd" fill="none" fill-opacity="1" stroke="#FF0000" stroke-opacity="1" stroke-width="0.1" stroke-linecap="round" stroke-linejoin="round"/>
<path id="path_caa6f5b0b81c1d0d44b8e0731de2b55e" d="M 29.3539 33.22354 L 29.51513 34.20952 C 29.20094 34.27567 28.91982 34.30875 28.67177 34.30875 C 28.26662 34.30875 27.95244 34.24466 27.72919 34.1165 C 27.50595 33.98834 27.34885 33.81989 27.2579 33.61111 C 27.16695 33.40233 27.12148 32.96309 27.12148 32.29337 L 27.12148 28.50444 L 26.30293 28.50444 L 26.30293 27.63628 L 27.12148 27.63628 L 27.12148 26.00537 L 28.23149 25.33565 L 28.23149 27.63628 L 29.3539 27.63628 L 29.3539 28.50444 L 28.23149 28.50444 L 28.23149 32.35538 C 28.23149 32.67369 28.25112 32.87834 28.2904 32.96928 C 28.32967 33.06024 28.39375 33.13258 28.48264 33.18633 C 28.57152 33.24007 28.69865 33.26694 28.86401 33.26694 C 28.98803 33.26694 29.15133 33.25247 29.3539 33.22354 Z" fill-rule="evenodd" fill="none" fill-opacity="1" stroke="#FF0000" stroke-opacity="1" stroke-width="0.1" stroke-linecap="round" stroke-linejoin="round"/>
<path id="path_5d651c5b81774c24370c44d1a9418691" d="M 30.02982 30.92911 C 30.02982 29.70953 30.36882 28.80623 31.04682 28.21919 C 31.61319 27.73137 32.30359 27.48746 33.11801 27.48746 C 34.02338 27.48746 34.76339 27.78407 35.33803 28.37732 C 35.91267 28.97057 36.19999 29.79015 36.19999 30.83609 C 36.19999 31.68358 36.07287 32.3502 35.81862 32.83597 C 35.56437 33.32172 35.19437 33.69896 34.70861 33.96768 C 34.22285 34.23639 33.69265 34.37076 33.11801 34.37076 C 32.19611 34.37076 31.45093 34.07516 30.88248 33.48398 C 30.31405 32.89281 30.02982 32.04118 30.02982 30.92911 Z M 31.17704 30.92911 C 31.17704 31.77246 31.36101 32.40395 31.72895 32.82356 C 32.09689 33.24318 32.55991 33.45297 33.11801 33.45297 C 33.67198 33.45297 34.13293 33.24214 34.50087 32.82047 C 34.8688 32.39877 35.05277 31.75592 35.05277 30.89189 C 35.05277 30.07747 34.86777 29.46045 34.49777 29.04085 C 34.12777 28.62123 33.66785 28.41142 33.11801 28.41142 C 32.55991 28.41142 32.09689 28.62019 31.72895 29.03775 C 31.36102 29.45529 31.17704 30.08574 31.17704 30.92911 Z" fill-rule="evenodd" fill="none" fill-opacity="1" stroke="#FF0000" stroke-opacity="1" stroke-width="0.1" stroke-linecap="round" stroke-linejoin="round"/>
<path id="path_059b63b98e74dd60a912ffd918323fb7" d="M 37.50845 34.22192 L 37.50845 27.63628 L 38.50684 27.63628 L 38.50684 28.56026 C 38.71354 28.23779 38.98846 27.97838 39.33159 27.78201 C 39.67472 27.58563 40.0654 27.48746 40.50361 27.48746 C 40.99144 27.48746 41.39141 27.58873 41.70354 27.79131 C 42.01566 27.99388 42.23581 28.27707 42.36396 28.64087 C 42.88486 27.87192 43.56286 27.48746 44.39795 27.48746 C 45.05114 27.48746 45.55344 27.66832 45.90483 28.03006 C 46.25623 28.39178 46.43193 28.94885 46.43193 29.70126 L 46.43193 34.22192 L 45.32192 34.22192 L 45.32192 30.07333 C 45.32192 29.62686 45.28575 29.30542 45.2134 29.10905 C 45.14105 28.91269 45.0098 28.75456 44.81963 28.63467 C 44.62946 28.51477 44.40622 28.45483 44.1499 28.45483 C 43.68688 28.45483 43.30241 28.60883 42.99648 28.91682 C 42.69056 29.22481 42.5376 29.7178 42.5376 30.3958 L 42.5376 34.22192 L 41.42139 34.22192 L 41.42139 29.94312 C 41.42139 29.44702 41.33044 29.07495 41.14854 28.8269 C 40.96664 28.57886 40.66898 28.45483 40.25556 28.45483 C 39.94138 28.45483 39.65095 28.53752 39.3843 28.70288 C 39.11765 28.86824 38.92438 29.11009 38.80449 29.42842 C 38.6846 29.74675 38.62466 30.20563 38.62466 30.80508 L 38.62466 34.22192 L 37.50845 34.22192 Z" fill-rule="evenodd" fill="none" fill-opacity="1" stroke="#FF0000" stroke-opacity="1" stroke-width="0.1" stroke-linecap="round" stroke-linejoin="round"/>
<path id="path_1700c4c33e01f0649d8ae9184dfe81f3" d="M 23.58065 170.7892 L 23.58065 241.9092 L 94.70065 241.9092 L 94.70065 170.7892 L 23.58065 170.7892 Z" fill-rule="evenodd" fill="none" fill-opacity="1" stroke="#FF0000" stroke-opacity="1" stroke-width="0.1" stroke-dasharray="1 1" stroke-dashoffset="0" stroke-linecap="round" stroke-linejoin="round"/>
<path id="path_5c4c0c94e9656d43d195f054c61d8a7d" d="M 65.12436 205.735 C 65.12436 208.8884 62.5628 211.45 59.40935 211.45 C 56.25591 211.45 53.69436 208.8884 53.69436 205.735 C 53.69436 202.5816 56.25591 200.02 59.40935 200.02 C 62.5628 200.02 65.12436 202.5816 65.12436 205.735 Z" fill-rule="evenodd" fill="none" fill-opacity="1" stroke="#FF0000" stroke-opacity="1" stroke-width="0.1" stroke-linecap="round" stroke-linejoin="round"/>
<path id="path_279f1d418002e6c61f18f5d811afdd4c" d="M 22.8161 170.5466 L 7.569508 170.6034 C 7.569508 170.6034 7.770095 234.8201 7.792381 241.9553 L 10.2793 248.3337 L 20.38556 248.3762 L 23.10552 241.8983 L 23.10517 241.7874" fill-rule="evenodd" fill="none" fill-opacity="1" stroke="#FF0000" stroke-opacity="1" stroke-width="0.1" stroke-linecap="round" stroke-linejoin="round"/>
<path id="path_5901b3a2f892c2da6d2ed3795e63273c" d="M 8.004532 241.8626 L 22.89269 241.8071" fill-rule="evenodd" fill="none" fill-opacity="1" stroke="#FF0000" stroke-opacity="1" stroke-width="0.1" stroke-dasharray="1 1" stroke-dashoffset="0" stroke-linecap="round" stroke-linejoin="round"/>
<path id="path_e9a7801a9cdce42d0c23414ac56754c4" d="M 95.10757 241.8245 L 110.3542 241.7677 C 110.3542 241.7677 110.1536 177.5509 110.1313 170.4158 L 107.6444 164.0374 L 97.53812 163.9949 L 94.81815 170.4728 L 94.81851 170.5836" fill-rule="evenodd" fill="none" fill-opacity="1" stroke="#FF0000" stroke-opacity="1" stroke-width="0.1" stroke-linecap="round" stroke-linejoin="round"/>
<path id="path_7bc09f207d5247e4c68510a2986618d2" d="M 109.9191 170.5085 L 95.03094 170.5641" fill-rule="evenodd" fill="none" fill-opacity="1" stroke="#FF0000" stroke-opacity="1" stroke-width="0.1" stroke-dasharray="1 1" stroke-dashoffset="0" stroke-linecap="round" stroke-linejoin="round"/>
<path id="path_cb12e8a14e2c9509f65e4ae01ecfb09a" d="M 23.2719 242.1004 L 23.27011 257.3469 C 23.27011 257.3469 87.48669 257.3934 94.62187 257.3986 L 101.0097 254.9362 L 101.091 244.8303 L 94.62363 242.0855 L 94.51282 242.0854" fill-rule="evenodd" fill="none" fill-opacity="1" stroke="#FF0000" stroke-opacity="1" stroke-width="0.1" stroke-linecap="round" stroke-linejoin="round"/>
<path id="path_b9157b5f4c356620b2a9fe8d90d2b464" d="M 94.52986 257.1861 L 94.53159 242.298" fill-rule="evenodd" fill="none" fill-opacity="1" stroke="#FF0000" stroke-opacity="1" stroke-width="0.1" stroke-dasharray="1 1" stroke-dashoffset="0" stroke-linecap="round" stroke-linejoin="round"/>
<path id="path_4813378cc039a2187e66b4eec85a9f87" d="M 94.53781 170.2947 L 94.5396 155.0482 C 94.5396 155.0482 30.32282 155.0018 23.18762 154.9966 L 16.79973 157.459 L 16.71842 167.5649 L 23.18584 170.3097 L 23.29665 170.3098" fill-rule="evenodd" fill="none" fill-opacity="1" stroke="#FF0000" stroke-opacity="1" stroke-width="0.1" stroke-linecap="round" stroke-linejoin="round"/>
<path id="path_f68b8ca95098ab650ecc68d24fe9b018" d="M 23.27958 155.2091 L 23.27784 170.0972" fill-rule="evenodd" fill="none" fill-opacity="1" stroke="#FF0000" stroke-opacity="1" stroke-width="0.1" stroke-dasharray="1 1" stroke-dashoffset="0" stroke-linecap="round" stroke-linejoin="round"/>
<path id="path_dada3cd2cae9615020959133b0e959da" d="M 13.3 269.3068 L 13.3 260.2159 L 14.50303 260.2159 L 14.50303 268.234 L 18.98027 268.234 L 18.98027 269.3068 L 13.3 269.3068 Z" fill-rule="evenodd" fill="none" fill-opacity="1" stroke="#FF0000" stroke-opacity="1" stroke-width="0.1" stroke-linecap="round" stroke-linejoin="round"/>
<path id="path_88ee06e063bfe9e06653e1b9e07c7301" d="M 20.27632 261.4995 L 20.27632 260.2159 L 21.39253 260.2159 L 21.39253 261.4995 L 20.27632 261.4995 Z M 20.27632 269.3068 L 20.27632 262.7211 L 21.39253 262.7211 L 21.39253 269.3068 L 20.27632 269.3068 Z" fill-rule="evenodd" fill="none" fill-opacity="1" stroke="#FF0000" stroke-opacity="1" stroke-width="0.1" stroke-linecap="round" stroke-linejoin="round"/>
<path id="path_76cf4c6ba316feb6fddca12ee150bd26" d="M 27.36425 269.3068 L 27.36425 268.4758 C 26.94671 269.129 26.3328 269.4556 25.52251 269.4556 C 24.99748 269.4556 24.51482 269.3109 24.07454 269.0215 C 23.63425 268.7321 23.29319 268.3281 23.05134 267.8092 C 22.8095 267.2904 22.68857 266.694 22.68857 266.0202 C 22.68857 265.3629 22.79812 264.7665 23.01723 264.2311 C 23.23634 263.6958 23.56501 263.2855 24.00322 263.0002 C 24.44144 262.7149 24.93133 262.5723 25.4729 262.5723 C 25.86977 262.5723 26.22324 262.6561 26.5333 262.8235 C 26.84336 262.9909 27.09554 263.209 27.28984 263.4777 L 27.28984 260.2159 L 28.39985 260.2159 L 28.39985 269.3068 L 27.36425 269.3068 Z M 23.83579 266.0202 C 23.83579 266.8635 24.01355 267.494 24.36909 267.9115 C 24.72462 268.3291 25.14424 268.5378 25.62793 268.5378 C 26.11575 268.5378 26.5302 268.3384 26.87127 267.9395 C 27.21233 267.5405 27.38286 266.9318 27.38286 266.1132 C 27.38286 265.2119 27.20922 264.5505 26.86196 264.1288 C 26.5147 263.7072 26.08681 263.4963 25.57832 263.4963 C 25.08223 263.4963 24.66778 263.6989 24.33498 264.104 C 24.00219 264.5092 23.83579 265.1479 23.83579 266.0202 Z" fill-rule="evenodd" fill="none" fill-opacity="1" stroke="#FF0000" stroke-opacity="1" stroke-width="0.1" stroke-linecap="round" stroke-linejoin="round"/>
<path id="path_f76edfa47421bbc0556be41268ce9c7f" d="M 128.0728 172.0548 L 128.0728 238.0948 L 194.1129 238.0948 L 194.1129 172.0548 L 128.0728 172.0548 Z" fill-rule="evenodd" fill="none" fill-opacity="1" stroke="#FF0000" stroke-opacity="1" stroke-width="0.1" stroke-dasharray="1 1" stroke-dashoffset="0" stroke-linecap="round" stroke-linejoin="round"/>
<path id="path_c29777908dc8d569127dc92f4dd24c0c" d="M 167.0766 204.4606 C 167.0766 207.6141 164.515 210.1756 161.3615 210.1756 C 158.2081 210.1756 155.6465 207.6141 155.6465 204.4606 C 155.6465 201.3072 158.2081 198.7456 161.3615 198.7456 C 164.515 198.7456 167.0766 201.3072 167.0766 204.4606 Z" fill-rule="evenodd" fill="none" fill-opacity="1" stroke="#FF0000" stroke-opacity="1" stroke-width="0.1" stroke-linecap="round" stroke-linejoin="round"/>
<path id="path_8a65a5e4e88f40ec51834bc079ea26bd" d="M 127.4832 172.1447 L 113.3449 172.1974 C 113.3449 172.1974 113.531 231.746 113.5516 238.3626 L 115.8578 244.2773 L 125.2294 244.3167 L 127.7516 238.3096 L 127.7513 238.2069" fill-rule="evenodd" fill="none" fill-opacity="1" stroke="#FF0000" stroke-opacity="1" stroke-width="0.1" stroke-linecap="round" stroke-linejoin="round"/>
<path id="path_09d1acd2b7c6b518f3a27133cb19c24f" d="M 113.7483 238.2765 L 127.5543 238.2251" fill-rule="evenodd" fill="none" fill-opacity="1" stroke="#FF0000" stroke-opacity="1" stroke-width="0.1" stroke-dasharray="1 1" stroke-dashoffset="0" stroke-linecap="round" stroke-linejoin="round"/>
<path id="path_b3f2bd92379c9fa516433c180b4a9d6a" d="M 194.5197 238.2413 L 208.6579 238.1886 C 208.6579 238.1886 208.4719 178.6399 208.4513 172.0234 L 206.1451 166.1086 L 196.7735 166.0693 L 194.2513 172.0763 L 194.2516 172.1791" fill-rule="evenodd" fill="none" fill-opacity="1" stroke="#FF0000" stroke-opacity="1" stroke-width="0.1" stroke-linecap="round" stroke-linejoin="round"/>
<path id="path_19057a001a4f07acc0cbd00d28529370" d="M 208.2545 172.1094 L 194.4486 172.1609" fill-rule="evenodd" fill="none" fill-opacity="1" stroke="#FF0000" stroke-opacity="1" stroke-width="0.1" stroke-dasharray="1 1" stroke-dashoffset="0" stroke-linecap="round" stroke-linejoin="round"/>
<path id="path_7820d440688adc1332cfc1153ab6b9da" d="M 127.9059 238.4972 L 127.9043 252.6354 C 127.9043 252.6354 187.4527 252.6785 194.0692 252.6832 L 199.9928 250.3999 L 200.0682 241.0286 L 194.0709 238.4833 L 193.9681 238.4832" fill-rule="evenodd" fill="none" fill-opacity="1" stroke="#FF0000" stroke-opacity="1" stroke-width="0.1" stroke-linecap="round" stroke-linejoin="round"/>
<path id="path_ac20e229a8af92a6f9f5d594f52e8303" d="M 193.9839 252.4861 L 193.9855 238.6803" fill-rule="evenodd" fill="none" fill-opacity="1" stroke="#FF0000" stroke-opacity="1" stroke-width="0.1" stroke-dasharray="1 1" stroke-dashoffset="0" stroke-linecap="round" stroke-linejoin="round"/>
<path id="path_b3d22548bd0ef76150b36b30d6378abf" d="M 193.9913 171.9111 L 193.993 157.7729 C 193.993 157.7729 134.4443 157.7299 127.8277 157.7251 L 121.9042 160.0085 L 121.8288 169.3797 L 127.8261 171.925 L 127.9288 171.9251" fill-rule="evenodd" fill="none" fill-opacity="1" stroke="#FF0000" stroke-opacity="1" stroke-width="0.1" stroke-linecap="round" stroke-linejoin="round"/>
<path id="path_f476b95ed30c485ff83e43e9ce4030b3" d="M 127.913 157.9222 L 127.9114 171.728" fill-rule="evenodd" fill="none" fill-opacity="1" stroke="#FF0000" stroke-opacity="1" stroke-width="0.1" stroke-dasharray="1 1" stroke-dashoffset="0" stroke-linecap="round" stroke-linejoin="round"/>
<path id="path_86e9115834e5e23e78139f8845e8932d" d="M 172.2174 265.4836 L 172.2174 256.3926 L 173.4204 256.3926 L 173.4204 265.4836 L 172.2174 265.4836 Z" fill-rule="evenodd" fill="none" fill-opacity="1" stroke="#FF0000" stroke-opacity="1" stroke-width="0.1" stroke-linecap="round" stroke-linejoin="round"/>
<path id="path_610e52ad61fbecf3eb95285e1ba71673" d="M 175.3986 265.4836 L 175.3986 258.8979 L 176.4031 258.8979 L 176.4031 259.8343 C 176.8868 259.1108 177.5855 258.7491 178.4991 258.7491 C 178.896 258.7491 179.2608 258.8204 179.5936 258.963 C 179.9264 259.1057 180.1755 259.2927 180.3409 259.5243 C 180.5062 259.7558 180.622 260.0307 180.6881 260.349 C 180.7295 260.5557 180.7501 260.9174 180.7501 261.4342 L 180.7501 265.4836 L 179.6339 265.4836 L 179.6339 261.4776 C 179.6339 261.0229 179.5905 260.6828 179.5037 260.4575 C 179.4169 260.2322 179.2629 260.0524 179.0417 259.918 C 178.8206 259.7837 178.5611 259.7165 178.2635 259.7165 C 177.7881 259.7165 177.3777 259.8674 177.0325 260.1692 C 176.6873 260.471 176.5148 261.0435 176.5148 261.8869 L 176.5148 265.4836 L 175.3986 265.4836 Z" fill-rule="evenodd" fill="none" fill-opacity="1" stroke="#FF0000" stroke-opacity="1" stroke-width="0.1" stroke-linecap="round" stroke-linejoin="round"/>
<path id="path_7464f88c095c7d282e6e6ed5ac03d544" d="M 182.0152 263.5178 L 183.119 263.3442 C 183.181 263.7865 183.3536 264.1255 183.6368 264.3612 C 183.92 264.5968 184.3158 264.7146 184.8243 264.7146 C 185.337 264.7146 185.7173 264.6103 185.9653 264.4015 C 186.2134 264.1927 186.3374 263.9478 186.3374 263.6666 C 186.3374 263.4144 186.2279 263.216 186.0088 263.0713 C 185.8558 262.9721 185.4755 262.846 184.8677 262.6931 C 184.0492 262.4863 183.4818 262.3076 183.1655 262.1566 C 182.8493 262.0057 182.6095 261.797 182.4462 261.5303 C 182.2829 261.2637 182.2012 260.9691 182.2012 260.6467 C 182.2012 260.3531 182.2684 260.0813 182.4028 259.8312 C 182.5371 259.5811 182.7201 259.3734 182.9516 259.208 C 183.1252 259.0798 183.3619 258.9713 183.6616 258.8824 C 183.9613 258.7936 184.2827 258.7491 184.6259 258.7491 C 185.1427 258.7491 185.5964 258.8235 185.9871 258.9724 C 186.3777 259.1212 186.6661 259.3227 186.8521 259.577 C 187.0381 259.8312 187.1663 260.1712 187.2366 260.597 L 186.1452 260.7459 C 186.0956 260.4069 185.9519 260.1423 185.7142 259.9521 C 185.4765 259.762 185.1406 259.6669 184.7065 259.6669 C 184.1939 259.6669 183.828 259.7516 183.6089 259.9211 C 183.3898 260.0906 183.2802 260.2891 183.2802 260.5164 C 183.2802 260.6611 183.3257 260.7914 183.4167 260.9071 C 183.5076 261.027 183.6502 261.1262 183.8445 261.2048 C 183.9562 261.2461 184.2848 261.3412 184.8305 261.49 C 185.6201 261.7009 186.171 261.8734 186.4832 262.0078 C 186.7953 262.1422 187.0402 262.3375 187.218 262.5938 C 187.3958 262.8502 187.4846 263.1685 187.4846 263.5488 C 187.4846 263.9209 187.3761 264.2712 187.1591 264.5999 C 186.942 264.9286 186.6289 265.1829 186.2196 265.3627 C 185.8103 265.5425 185.3473 265.6324 184.8305 265.6324 C 183.9748 265.6324 183.3226 265.4547 182.8741 265.0991 C 182.4255 264.7436 182.1392 264.2165 182.0152 263.5178 Z" fill-rule="evenodd" fill="none" fill-opacity="1" stroke="#FF0000" stroke-opacity="1" stroke-width="0.1" stroke-linecap="round" stroke-linejoin="round"/>
<path id="path_63816ccfa04c8f8834dbf7028561fbfc" d="M 193.3199 263.3628 L 194.4734 263.5054 C 194.2915 264.1793 193.9545 264.7022 193.4626 265.0743 C 192.9706 265.4464 192.3422 265.6324 191.5774 265.6324 C 190.6142 265.6324 189.8504 265.3358 189.2861 264.7426 C 188.7218 264.1493 188.4396 263.3173 188.4396 262.2466 C 188.4396 261.1386 188.7249 260.2787 189.2954 259.6669 C 189.8659 259.055 190.6059 258.7491 191.5154 258.7491 C 192.396 258.7491 193.1153 259.0488 193.6734 259.6483 C 194.2315 260.2477 194.5106 261.0911 194.5106 262.1783 C 194.5106 262.2445 194.5085 262.3437 194.5044 262.476 L 189.593 262.476 C 189.6344 263.1995 189.839 263.7535 190.207 264.1379 C 190.5749 264.5224 191.0338 264.7146 191.5836 264.7146 C 191.9929 264.7146 192.3422 264.6071 192.6316 264.3922 C 192.921 264.1772 193.1505 263.8341 193.3199 263.3628 Z M 189.6551 261.5582 L 193.3323 261.5582 C 193.2827 261.0043 193.1422 260.5888 192.9107 260.3118 C 192.5551 259.8818 192.0942 259.6669 191.5278 259.6669 C 191.0152 259.6669 190.5842 259.8384 190.2349 260.1816 C 189.8855 260.5247 189.6923 260.9836 189.6551 261.5582 Z" fill-rule="evenodd" fill="none" fill-opacity="1" stroke="#FF0000" stroke-opacity="1" stroke-width="0.1" stroke-linecap="round" stroke-linejoin="round"/>
<path id="path_fc21947de6ad7be38dc8c54d6eb3e184" d="M 195.8625 265.4836 L 195.8625 258.8979 L 196.867 258.8979 L 196.867 259.8963 C 197.1234 259.4292 197.36 259.1212 197.5771 258.9724 C 197.7941 258.8235 198.0329 258.7491 198.2933 258.7491 C 198.6695 258.7491 199.0519 258.869 199.4405 259.1088 L 199.0561 260.1444 C 198.7832 259.9832 198.5103 259.9025 198.2375 259.9025 C 197.9936 259.9025 197.7745 259.9759 197.5802 260.1227 C 197.3859 260.2694 197.2474 260.473 197.1647 260.7335 C 197.0407 261.1304 196.9787 261.5645 196.9787 262.0357 L 196.9787 265.4836 L 195.8625 265.4836 Z" fill-rule="evenodd" fill="none" fill-opacity="1" stroke="#FF0000" stroke-opacity="1" stroke-width="0.1" stroke-linecap="round" stroke-linejoin="round"/>
<path id="path_217278591a61e69711285dca15645313" d="M 202.5411 264.4852 L 202.7023 265.4712 C 202.3881 265.5374 202.107 265.5704 201.8589 265.5704 C 201.4538 265.5704 201.1396 265.5063 200.9164 265.3782 C 200.6931 265.25 200.536 265.0815 200.4451 264.8728 C 200.3541 264.664 200.3087 264.2247 200.3087 263.555 L 200.3087 259.7661 L 199.4901 259.7661 L 199.4901 258.8979 L 200.3087 258.8979 L 200.3087 257.267 L 201.4187 256.5973 L 201.4187 258.8979 L 202.5411 258.8979 L 202.5411 259.7661 L 201.4187 259.7661 L 201.4187 263.617 C 201.4187 263.9354 201.4383 264.14 201.4776 264.231 C 201.5168 264.3219 201.5809 264.3943 201.6698 264.448 C 201.7587 264.5017 201.8858 264.5286 202.0512 264.5286 C 202.1752 264.5286 202.3385 264.5141 202.5411 264.4852 Z" fill-rule="evenodd" fill="none" fill-opacity="1" stroke="#FF0000" stroke-opacity="1" stroke-width="0.1" stroke-linecap="round" stroke-linejoin="round"/>
<path id="path_9dd9ee713dbd9c5b6431cc74b4e13155" d="M 189.0672 2.395977 L 189.0672 137.778 L 204.3072 137.778 L 204.3072 2.395977 L 189.0672 2.395977 Z" fill-rule="evenodd" fill="none" fill-opacity="1" stroke="#FF0000" stroke-opacity="1" stroke-width="0.1" stroke-linecap="round" stroke-linejoin="round"/>
<path id="path_ab5912bdb7c410c9db6594afcc23d79f" d="M 189.1544 69.82423 L 204.5149 69.82423" fill-rule="evenodd" fill="none" fill-opacity="1" stroke="#FF0000" stroke-opacity="1" stroke-width="0.1" stroke-dasharray="1 1" stroke-dashoffset="0" stroke-linecap="round" stroke-linejoin="round"/>
<path id="path_b7a7cc172c86dded4bf83d075d9df5b6" d="M 196.7271 16.31255 C 195.7765 15.0879 192.9319 11.64264 192.9319 11.64264 C 192.9319 11.64264 196.5365 7.237278 196.727 6.990604 C 199.2471 10.09195 200.5072 11.64262 200.5072 11.64262 C 200.5072 11.64262 197.6777 15.0879 196.7271 16.31255 Z" fill-rule="evenodd" fill="none" fill-opacity="1" stroke="#F50000" stroke-opacity="1" stroke-width="0.1" stroke-linecap="round" stroke-linejoin="round"/>
<path id="path_64917f92a1ce730cf1d985d87539d9ef" d="M 196.7164 28.54985 C 195.7658 27.32528 192.9211 23.88025 192.9211 23.88025 C 192.9211 23.88025 196.5257 19.47517 196.7162 19.22851 C 199.2363 22.32965 200.4963 23.88023 200.4963 23.88023 C 200.4963 23.88023 197.667 27.32528 196.7164 28.54985 Z" fill-rule="evenodd" fill="none" fill-opacity="1" stroke="#F50000" stroke-opacity="1" stroke-width="0.1" stroke-linecap="round" stroke-linejoin="round"/>
<path id="path_ce4dd0266007bc3a88db7f14f0f9d31f" d="M 196.7153 40.78743 C 195.7648 39.56288 192.9201 36.11782 192.9201 36.11782 C 192.9201 36.11782 196.5247 31.71276 196.7152 31.46611 C 199.2353 34.56724 200.4953 36.11781 200.4953 36.11781 C 200.4953 36.11781 197.6659 39.56286 196.7153 40.78743 Z" fill-rule="evenodd" fill="none" fill-opacity="1" stroke="#F50000" stroke-opacity="1" stroke-width="0.1" stroke-linecap="round" stroke-linejoin="round"/>
<path id="path_967315dfc3222024b1e5cc00d03db543" d="M 196.7156 53.02488 C 195.765 51.80032 192.9203 48.3553 192.9203 48.3553 C 192.9203 48.3553 196.525 43.95021 196.7154 43.70356 C 199.2355 46.80469 200.4956 48.35527 200.4956 48.35527 C 200.4956 48.35527 197.6662 51.80032 196.7156 53.02488 Z" fill-rule="evenodd" fill="none" fill-opacity="1" stroke="#F50000" stroke-opacity="1" stroke-width="0.1" stroke-linecap="round" stroke-linejoin="round"/>
<path id="path_6637f86e78738b47e72b09efad793ce5" d="M 196.7122 65.26245 C 195.7616 64.03789 192.917 60.59285 192.917 60.59285 C 192.917 60.59285 196.5216 56.18776 196.7121 55.94109 C 199.2322 59.04225 200.4922 60.59283 200.4922 60.59283 C 200.4922 60.59283 197.6628 64.0379 196.7122 65.26245 Z" fill-rule="evenodd" fill="none" fill-opacity="1" stroke="#F50000" stroke-opacity="1" stroke-width="0.1" stroke-linecap="round" stroke-linejoin="round"/>
<path id="path_ccfd79511fb28df945ea8ec92fefadee" d="M 196.7271 83.41658 C 195.7765 82.19193 192.9319 78.74666 192.9319 78.74666 C 192.9319 78.74666 196.5365 74.34131 196.727 74.09464 C 199.2471 77.19598 200.5071 78.74664 200.5071 78.74664 C 200.5071 78.74664 197.6777 82.19193 196.7271 83.41658 Z" fill-rule="evenodd" fill="none" fill-opacity="1" stroke="#F50000" stroke-opacity="1" stroke-width="0.1" stroke-linecap="round" stroke-linejoin="round"/>
<path id="path_6c1f4fb44e638e578ac29ff9eff46799" d="M 196.7164 95.65388 C 195.7658 94.42932 192.9211 90.98428 192.9211 90.98428 C 192.9211 90.98428 196.5257 86.57922 196.7162 86.33257 C 199.2363 89.43372 200.4963 90.98428 200.4963 90.98428 C 200.4963 90.98428 197.6669 94.42932 196.7164 95.65388 Z" fill-rule="evenodd" fill="none" fill-opacity="1" stroke="#F50000" stroke-opacity="1" stroke-width="0.1" stroke-linecap="round" stroke-linejoin="round"/>
<path id="path_66c0d884cf34a5d28a1874ab97b520ed" d="M 196.7153 107.8915 C 195.7647 106.6669 192.9201 103.2219 192.9201 103.2219 C 192.9201 103.2219 196.5247 98.81683 196.7152 98.57018 C 199.2353 101.6713 200.4953 103.2219 200.4953 103.2219 C 200.4953 103.2219 197.6659 106.6669 196.7153 107.8915 Z" fill-rule="evenodd" fill="none" fill-opacity="1" stroke="#F50000" stroke-opacity="1" stroke-width="0.1" stroke-linecap="round" stroke-linejoin="round"/>
<path id="path_62bd43b944962d2aa5d1331b677636b2" d="M 196.7156 120.1289 C 195.765 118.9044 192.9203 115.4593 192.9203 115.4593 C 192.9203 115.4593 196.5249 111.0543 196.7154 110.8076 C 199.2355 113.9087 200.4956 115.4593 200.4956 115.4593 C 200.4956 115.4593 197.6661 118.9044 196.7156 120.1289 Z" fill-rule="evenodd" fill="none" fill-opacity="1" stroke="#F50000" stroke-opacity="1" stroke-width="0.1" stroke-linecap="round" stroke-linejoin="round"/>
<path id="path_45cdae44f3380b146364c57d59653773" d="M 196.7123 132.3665 C 195.7617 131.1419 192.917 127.6969 192.917 127.6969 C 192.917 127.6969 196.5216 123.2918 196.7121 123.0451 C 199.2322 126.1463 200.4922 127.6969 200.4922 127.6969 C 200.4922 127.6969 197.6629 131.1419 196.7123 132.3665 Z" fill-rule="evenodd" fill="none" fill-opacity="1" stroke="#F50000" stroke-opacity="1" stroke-width="0.1" stroke-linecap="round" stroke-linejoin="round"/>
<path id="path_187b5804dc3ce7282a2dbfcde121383a" d="M 168.5424 2.778286 L 168.5424 138.1603 L 183.7824 138.1603 L 183.7823 2.778286 L 168.5424 2.778286 Z" fill-rule="evenodd" fill="none" fill-opacity="1" stroke="#FF0000" stroke-opacity="1" stroke-width="0.1" stroke-linecap="round" stroke-linejoin="round"/>
<path id="path_afb63d56e5927b557c6eb4cae5e763a9" d="M 168.6295 70.20654 L 183.99 70.20654" fill-rule="evenodd" fill="none" fill-opacity="1" stroke="#FF0000" stroke-opacity="1" stroke-width="0.1" stroke-dasharray="1 1" stroke-dashoffset="0" stroke-linecap="round" stroke-linejoin="round"/>
<path id="path_9a0dca9d2c6488df6d13ae3cb5421ae0" d="M 176.2023 16.69486 C 175.2517 15.47021 172.4071 12.02494 172.4071 12.02494 C 172.4071 12.02494 176.0117 7.619587 176.2022 7.372913 C 178.7223 10.47426 179.9823 12.02493 179.9823 12.02493 C 179.9823 12.02493 177.1529 15.47021 176.2023 16.69486 Z" fill-rule="evenodd" fill="none" fill-opacity="1" stroke="#F50000" stroke-opacity="1" stroke-width="0.1" stroke-linecap="round" stroke-linejoin="round"/>
<path id="path_d8c4cdeac9c79548821dd6d9ef3213ba" d="M 176.1915 28.93216 C 175.2409 27.70759 172.3963 24.26255 172.3963 24.26255 C 172.3963 24.26255 176.0009 19.85748 176.1914 19.61082 C 178.7114 22.71196 179.9715 24.26254 179.9715 24.26254 C 179.9715 24.26254 177.1421 27.70758 176.1915 28.93216 Z" fill-rule="evenodd" fill="none" fill-opacity="1" stroke="#F50000" stroke-opacity="1" stroke-width="0.1" stroke-linecap="round" stroke-linejoin="round"/>
<path id="path_282390ce2d4cc9fc36f84bc41b7b2dca" d="M 176.1905 41.16973 C 175.2399 39.94518 172.3953 36.50013 172.3953 36.50013 C 172.3953 36.50013 175.9999 32.09507 176.1904 31.84842 C 178.7104 34.94955 179.9705 36.50012 179.9705 36.50012 C 179.9705 36.50012 177.1411 39.94517 176.1905 41.16973 Z" fill-rule="evenodd" fill="none" fill-opacity="1" stroke="#F50000" stroke-opacity="1" stroke-width="0.1" stroke-linecap="round" stroke-linejoin="round"/>
<path id="path_7fea8ea6d864db31cafc3688e0a2d839" d="M 176.1907 53.40719 C 175.2401 52.18263 172.3954 48.73761 172.3954 48.73761 C 172.3954 48.73761 176.0001 44.33252 176.1906 44.08586 C 178.7106 47.18699 179.9707 48.73758 179.9707 48.73758 C 179.9707 48.73758 177.1413 52.18263 176.1907 53.40719 Z" fill-rule="evenodd" fill="none" fill-opacity="1" stroke="#F50000" stroke-opacity="1" stroke-width="0.1" stroke-linecap="round" stroke-linejoin="round"/>
<path id="path_c60fa14fb858ac7ed335a48758a5fd79" d="M 176.1874 65.64476 C 175.2368 64.4202 172.3922 60.97516 172.3922 60.97516 C 172.3922 60.97516 175.9968 56.57006 176.1873 56.3234 C 178.7074 59.42456 179.9674 60.97514 179.9674 60.97514 C 179.9674 60.97514 177.138 64.4202 176.1874 65.64476 Z" fill-rule="evenodd" fill="none" fill-opacity="1" stroke="#F50000" stroke-opacity="1" stroke-width="0.1" stroke-linecap="round" stroke-linejoin="round"/>
<path id="path_3414326af4ba3bfc0ba345442a53324c" d="M 176.2022 83.79889 C 175.2516 82.57425 172.4071 79.12897 172.4071 79.12897 C 172.4071 79.12897 176.0117 74.72362 176.2021 74.47694 C 178.7222 77.57829 179.9823 79.12895 179.9823 79.12895 C 179.9823 79.12895 177.1528 82.57425 176.2022 83.79889 Z" fill-rule="evenodd" fill="none" fill-opacity="1" stroke="#F50000" stroke-opacity="1" stroke-width="0.1" stroke-linecap="round" stroke-linejoin="round"/>
<path id="path_c8e964d3a6a57bc0f0608e7e0df4a77e" d="M 176.1915 96.03621 C 175.2409 94.81165 172.3963 91.36659 172.3963 91.36659 C 172.3963 91.36659 176.0009 86.96153 176.1914 86.71486 C 178.7115 89.81602 179.9715 91.36658 179.9715 91.36658 C 179.9715 91.36658 177.1421 94.81163 176.1915 96.03621 Z" fill-rule="evenodd" fill="none" fill-opacity="1" stroke="#F50000" stroke-opacity="1" stroke-width="0.1" stroke-linecap="round" stroke-linejoin="round"/>
<path id="path_26f793ccf7e15ee72da0b3ab9a6880d4" d="M 176.1905 108.2738 C 175.2399 107.0492 172.3953 103.6042 172.3953 103.6042 C 172.3953 103.6042 175.9999 99.19914 176.1904 98.95248 C 178.7104 102.0536 179.9705 103.6042 179.9705 103.6042 C 179.9705 103.6042 177.1411 107.0492 176.1905 108.2738 Z" fill-rule="evenodd" fill="none" fill-opacity="1" stroke="#F50000" stroke-opacity="1" stroke-width="0.1" stroke-linecap="round" stroke-linejoin="round"/>
<path id="path_d24164156013eedc4c9559683d83d59f" d="M 176.1907 120.5112 C 175.2401 119.2867 172.3954 115.8416 172.3954 115.8416 C 172.3954 115.8416 176.0001 111.4366 176.1906 111.1899 C 178.7106 114.291 179.9707 115.8416 179.9707 115.8416 C 179.9707 115.8416 177.1413 119.2867 176.1907 120.5112 Z" fill-rule="evenodd" fill="none" fill-opacity="1" stroke="#F50000" stroke-opacity="1" stroke-width="0.1" stroke-linecap="round" stroke-linejoin="round"/>
<path id="path_88c087b8b0f837a397aebafc20db647c" d="M 176.1874 132.7488 C 175.2368 131.5242 172.3922 128.0792 172.3922 128.0792 C 172.3922 128.0792 175.9968 123.6741 176.1873 123.4274 C 178.7074 126.5286 179.9674 128.0792 179.9674 128.0792 C 179.9674 128.0792 177.138 131.5242 176.1874 132.7488 Z" fill-rule="evenodd" fill="none" fill-opacity="1" stroke="#F50000" stroke-opacity="1" stroke-width="0.1" stroke-linecap="round" stroke-linejoin="round"/>
<path id="path_34a104b9c8bab5c904c8862cfb856603" d="M 150.2204 148.1111 L 150.2204 139.0201 L 153.352 139.0201 C 154.0589 139.0201 154.5984 139.0635 154.9705 139.1504 C 155.4914 139.2702 155.9358 139.4873 156.3037 139.8015 C 156.7833 140.2066 157.1419 140.7244 157.3796 141.3549 C 157.6174 141.9853 157.7362 142.7057 157.7362 143.516 C 157.7362 144.2064 157.6556 144.8182 157.4944 145.3515 C 157.3331 145.8848 157.1264 146.3262 156.8742 146.6755 C 156.6221 147.0248 156.3461 147.2997 156.0464 147.5002 C 155.7467 147.7007 155.3849 147.8527 154.9612 147.956 C 154.5374 148.0594 154.0506 148.1111 153.5008 148.1111 L 150.2204 148.1111 Z M 151.4234 147.0383 L 153.3644 147.0383 C 153.9638 147.0383 154.4341 146.9824 154.7751 146.8708 C 155.1162 146.7592 155.388 146.6021 155.5906 146.3995 C 155.8759 146.1143 156.0981 145.7308 156.2572 145.2492 C 156.4164 144.7676 156.496 144.1836 156.496 143.4974 C 156.496 142.5465 156.3399 141.8158 156.0278 141.3053 C 155.7157 140.7947 155.3363 140.4526 154.8899 140.279 C 154.5674 140.155 154.0486 140.0929 153.3334 140.0929 L 151.4234 140.0929 L 151.4234 147.0383 Z" fill-rule="evenodd" fill="none" fill-opacity="1" stroke="#FF0000" stroke-opacity="1" stroke-width="0.1" stroke-linecap="round" stroke-linejoin="round"/>
<path id="path_4a0d66bee9fac8348f28823ce3d60167" d="M 163.7575 145.9902 L 164.9109 146.1329 C 164.729 146.8067 164.3921 147.3297 163.9002 147.7018 C 163.4082 148.0739 162.7798 148.2599 162.015 148.2599 C 161.0518 148.2599 160.288 147.9633 159.7237 147.37 C 159.1594 146.7768 158.8772 145.9448 158.8772 144.874 C 158.8772 143.7661 159.1625 142.9062 159.733 142.2944 C 160.3035 141.6825 161.0435 141.3766 161.953 141.3766 C 162.8336 141.3766 163.5529 141.6763 164.111 142.2758 C 164.6691 142.8752 164.9482 143.7186 164.9482 144.8058 C 164.9482 144.872 164.9461 144.9712 164.942 145.1035 L 160.0306 145.1035 C 160.072 145.827 160.2766 146.3809 160.6445 146.7654 C 161.0125 147.1499 161.4714 147.3421 162.0212 147.3421 C 162.4305 147.3421 162.7798 147.2346 163.0692 147.0197 C 163.3586 146.8047 163.588 146.4615 163.7575 145.9902 Z M 160.0927 144.1857 L 163.7699 144.1857 C 163.7203 143.6317 163.5798 143.2163 163.3483 142.9393 C 162.9927 142.5093 162.5318 142.2944 161.9654 142.2944 C 161.4528 142.2944 161.0218 142.4659 160.6725 142.8091 C 160.3231 143.1522 160.1299 143.6111 160.0927 144.1857 Z" fill-rule="evenodd" fill="none" fill-opacity="1" stroke="#FF0000" stroke-opacity="1" stroke-width="0.1" stroke-linecap="round" stroke-linejoin="round"/>
<path id="path_77134ec0fb7f0250f6ed10ee03fe75f9" d="M 170.6098 145.6988 L 171.7074 145.8414 C 171.5875 146.598 171.2806 147.1902 170.7866 147.6181 C 170.2925 148.0459 169.6859 148.2599 168.9665 148.2599 C 168.0653 148.2599 167.3408 147.9653 166.793 147.3762 C 166.2452 146.7871 165.9713 145.9427 165.9713 144.843 C 165.9713 144.132 166.0892 143.5098 166.3248 142.9765 C 166.5605 142.4432 166.9191 142.0432 167.4007 141.7766 C 167.8824 141.5099 168.4063 141.3766 168.9727 141.3766 C 169.6879 141.3766 170.2729 141.5574 170.7277 141.9192 C 171.1824 142.2809 171.4739 142.7946 171.602 143.4602 L 170.5168 143.6276 C 170.4135 143.1853 170.2305 142.8525 169.968 142.6292 C 169.7055 142.406 169.3882 142.2944 169.0161 142.2944 C 168.4539 142.2944 167.9971 142.4959 167.6457 142.899 C 167.2943 143.302 167.1186 143.9397 167.1186 144.812 C 167.1186 145.6967 167.2881 146.3396 167.6271 146.7406 C 167.9661 147.1416 168.4084 147.3421 168.9541 147.3421 C 169.3923 147.3421 169.7582 147.2077 170.0517 146.939 C 170.3452 146.6703 170.5313 146.2569 170.6098 145.6988 Z" fill-rule="evenodd" fill="none" fill-opacity="1" stroke="#FF0000" stroke-opacity="1" stroke-width="0.1" stroke-linecap="round" stroke-linejoin="round"/>
<path id="path_5ff929de2dfa5af0a837b313e389d4f0" d="M 172.2469 144.8182 C 172.2469 143.5987 172.5859 142.6954 173.2639 142.1083 C 173.8303 141.6205 174.5207 141.3766 175.3351 141.3766 C 176.2405 141.3766 176.9805 141.6732 177.5551 142.2664 C 178.1298 142.8597 178.4171 143.6793 178.4171 144.7252 C 178.4171 145.5727 178.29 146.2393 178.0357 146.7251 C 177.7815 147.2108 177.4115 147.5881 176.9257 147.8568 C 176.44 148.1255 175.9098 148.2599 175.3351 148.2599 C 174.4132 148.2599 173.6681 147.9643 173.0996 147.3731 C 172.5312 146.7819 172.2469 145.9303 172.2469 144.8182 Z M 173.3942 144.8182 C 173.3942 145.6616 173.5781 146.2931 173.9461 146.7127 C 174.314 147.1323 174.777 147.3421 175.3351 147.3421 C 175.8891 147.3421 176.3501 147.1313 176.718 146.7096 C 177.0859 146.2879 177.2699 145.6451 177.2699 144.781 C 177.2699 143.9666 177.0849 143.3496 176.7149 142.93 C 176.3449 142.5104 175.885 142.3006 175.3351 142.3006 C 174.777 142.3006 174.314 142.5093 173.9461 142.9269 C 173.5781 143.3444 173.3942 143.9749 173.3942 144.8182 Z" fill-rule="evenodd" fill="none" fill-opacity="1" stroke="#FF0000" stroke-opacity="1" stroke-width="0.1" stroke-linecap="round" stroke-linejoin="round"/>
<path id="path_a3219515a5e8913e8cb881d093d3cb42" d="M 179.7131 148.1111 L 179.7131 141.5254 L 180.7177 141.5254 L 180.7177 142.5238 C 180.974 142.0566 181.2107 141.7487 181.4278 141.5998 C 181.6448 141.451 181.8835 141.3766 182.144 141.3766 C 182.5202 141.3766 182.9026 141.4965 183.2912 141.7363 L 182.9067 142.7719 C 182.6339 142.6106 182.361 142.53 182.0882 142.53 C 181.8443 142.53 181.6252 142.6034 181.4309 142.7501 C 181.2366 142.8969 181.0981 143.1005 181.0154 143.361 C 180.8914 143.7578 180.8293 144.1919 180.8293 144.6632 L 180.8293 148.1111 L 179.7131 148.1111 Z" fill-rule="evenodd" fill="none" fill-opacity="1" stroke="#FF0000" stroke-opacity="1" stroke-width="0.1" stroke-linecap="round" stroke-linejoin="round"/>
<path id="path_4c9ed4c8da5fff146a540d6bdd42f520" d="M 188.2522 147.2987 C 187.8388 147.6501 187.4409 147.8981 187.0584 148.0428 C 186.676 148.1875 186.2657 148.2599 185.8275 148.2599 C 185.104 148.2599 184.548 148.0831 184.1594 147.7297 C 183.7708 147.3762 183.5765 146.9246 183.5765 146.3747 C 183.5765 146.0523 183.6499 145.7577 183.7966 145.4911 C 183.9434 145.2244 184.1356 145.0105 184.3733 144.8492 C 184.611 144.688 184.8787 144.5661 185.1764 144.4834 C 185.3955 144.4255 185.7262 144.3697 186.1686 144.3159 C 187.0698 144.2085 187.7333 144.0803 188.1591 143.9315 C 188.1633 143.7785 188.1653 143.6814 188.1653 143.64 C 188.1653 143.1853 188.0599 142.8649 187.8491 142.6788 C 187.5638 142.4267 187.1401 142.3006 186.5779 142.3006 C 186.0528 142.3006 185.6653 142.3925 185.4151 142.5765 C 185.165 142.7605 184.98 143.086 184.8601 143.5532 L 183.7687 143.4044 C 183.8679 142.9372 184.0312 142.56 184.2586 142.2726 C 184.486 141.9853 184.8147 141.7642 185.2446 141.6091 C 185.6746 141.4541 186.1727 141.3766 186.7391 141.3766 C 187.3013 141.3766 187.7581 141.4427 188.1095 141.575 C 188.4609 141.7073 188.7193 141.8737 188.8847 142.0742 C 189.05 142.2747 189.1658 142.5279 189.2319 142.8339 C 189.2692 143.024 189.2878 143.3672 189.2878 143.8633 L 189.2878 145.3515 C 189.2878 146.3892 189.3115 147.0455 189.3591 147.3204 C 189.4066 147.5953 189.5007 147.8589 189.6412 148.1111 L 188.4754 148.1111 C 188.3596 147.8795 188.2852 147.6088 188.2522 147.2987 Z M 188.1591 144.8058 C 187.754 144.9712 187.1463 145.1118 186.336 145.2275 C 185.8771 145.2937 185.5526 145.3681 185.3624 145.4507 C 185.1723 145.5334 185.0255 145.6544 184.9221 145.8135 C 184.8188 145.9727 184.7671 146.1494 184.7671 146.3437 C 184.7671 146.6414 184.8798 146.8894 185.1051 147.0879 C 185.3304 147.2863 185.6601 147.3855 186.0941 147.3855 C 186.5241 147.3855 186.9065 147.2915 187.2414 147.1034 C 187.5762 146.9153 187.8222 146.6579 187.9793 146.3313 C 188.0992 146.0791 188.1591 145.7071 188.1591 145.2151 L 188.1591 144.8058 Z" fill-rule="evenodd" fill="none" fill-opacity="1" stroke="#FF0000" stroke-opacity="1" stroke-width="0.1" stroke-linecap="round" stroke-linejoin="round"/>
<path id="path_9a12c7469f867f7a8b14d2b999d773c0" d="M 193.455 147.1127 L 193.6162 148.0986 C 193.302 148.1648 193.0209 148.1979 192.7728 148.1979 C 192.3677 148.1979 192.0535 148.1338 191.8302 148.0056 C 191.607 147.8775 191.4499 147.709 191.3589 147.5002 C 191.268 147.2915 191.2225 146.8522 191.2225 146.1825 L 191.2225 142.3936 L 190.404 142.3936 L 190.404 141.5254 L 191.2225 141.5254 L 191.2225 139.8945 L 192.3326 139.2248 L 192.3326 141.5254 L 193.455 141.5254 L 193.455 142.3936 L 192.3326 142.3936 L 192.3326 146.2445 C 192.3326 146.5628 192.3522 146.7675 192.3914 146.8584 C 192.4307 146.9494 192.4948 147.0217 192.5837 147.0755 C 192.6726 147.1292 192.7997 147.1561 192.9651 147.1561 C 193.0891 147.1561 193.2524 147.1416 193.455 147.1127 Z" fill-rule="evenodd" fill="none" fill-opacity="1" stroke="#FF0000" stroke-opacity="1" stroke-width="0.1" stroke-linecap="round" stroke-linejoin="round"/>
<path id="path_5f1d798bfa290e354d5422c1e36701ef" d="M 194.5525 140.3038 L 194.5525 139.0201 L 195.6687 139.0201 L 195.6687 140.3038 L 194.5525 140.3038 Z M 194.5525 148.1111 L 194.5525 141.5254 L 195.6687 141.5254 L 195.6687 148.1111 L 194.5525 148.1111 Z" fill-rule="evenodd" fill="none" fill-opacity="1" stroke="#FF0000" stroke-opacity="1" stroke-width="0.1" stroke-linecap="round" stroke-linejoin="round"/>
<path id="path_3ae6c4760fbc9792c136a0c641f9ceb3" d="M 196.9524 144.8182 C 196.9524 143.5987 197.2914 142.6954 197.9694 142.1083 C 198.5357 141.6205 199.2262 141.3766 200.0406 141.3766 C 200.946 141.3766 201.6859 141.6732 202.2606 142.2664 C 202.8352 142.8597 203.1225 143.6793 203.1225 144.7252 C 203.1225 145.5727 202.9954 146.2393 202.7412 146.7251 C 202.4869 147.2108 202.1169 147.5881 201.6312 147.8568 C 201.1454 148.1255 200.6152 148.2599 200.0406 148.2599 C 199.1187 148.2599 198.3735 147.9643 197.805 147.3731 C 197.2366 146.7819 196.9524 145.9303 196.9524 144.8182 Z M 198.0996 144.8182 C 198.0996 145.6616 198.2835 146.2931 198.6515 146.7127 C 199.0194 147.1323 199.4825 147.3421 200.0406 147.3421 C 200.5945 147.3421 201.0555 147.1313 201.4234 146.7096 C 201.7914 146.2879 201.9753 145.6451 201.9753 144.781 C 201.9753 143.9666 201.7903 143.3496 201.4203 142.93 C 201.0503 142.5104 200.5904 142.3006 200.0406 142.3006 C 199.4825 142.3006 199.0194 142.5093 198.6515 142.9269 C 198.2836 143.3444 198.0996 143.9749 198.0996 144.8182 Z" fill-rule="evenodd" fill="none" fill-opacity="1" stroke="#FF0000" stroke-opacity="1" stroke-width="0.1" stroke-linecap="round" stroke-linejoin="round"/>
<path id="path_8576a226a28bb1130f6c8c043740cb0a" d="M 204.431 148.1111 L 204.431 141.5254 L 205.4356 141.5254 L 205.4356 142.4618 C 205.9193 141.7383 206.618 141.3766 207.5316 141.3766 C 207.9285 141.3766 208.2933 141.4479 208.6261 141.5905 C 208.9589 141.7332 209.2079 141.9202 209.3733 142.1517 C 209.5387 142.3832 209.6544 142.6582 209.7206 142.9765 C 209.7619 143.1832 209.7826 143.5449 209.7826 144.0617 L 209.7826 148.1111 L 208.6664 148.1111 L 208.6664 144.1051 C 208.6664 143.6503 208.623 143.3103 208.5362 143.085 C 208.4493 142.8597 208.2954 142.6799 208.0742 142.5455 C 207.853 142.4111 207.5936 142.344 207.2959 142.344 C 206.8205 142.344 206.4102 142.4949 206.065 142.7966 C 205.7198 143.0984 205.5472 143.671 205.5472 144.5144 L 205.5472 148.1111 L 204.431 148.1111 Z" fill-rule="evenodd" fill="none" fill-opacity="1" stroke="#FF0000" stroke-opacity="1" stroke-width="0.1" stroke-linecap="round" stroke-linejoin="round"/>
</defs>
<g>
<g>
<use xlink:href="#path_55a0df0c3970069c48d96e14fec8959c"/>
</g>
<g>
<g>
<use xlink:href="#path_d10a2ccc1ade30bf87a92071b3884f32"/>
</g>
<g>
<use xlink:href="#path_82ecc01685c0fed2d83d7e2cdf467287"/>
</g>
</g>
<g>
<g>
<use xlink:href="#path_83439ec458f421b5fc007de431b89063"/>
</g>
<g>
<use xlink:href="#path_3a7e48dca6b5f835ab8927604e1ae7d4"/>
</g>
</g>
<g>
<g>
<use xlink:href="#path_fb12ed15108d80a767824956c98a7a00"/>
</g>
<g>
<use xlink:href="#path_3324d446b8617c6f4b84ea9ce02de788"/>
</g>
</g>
<g>
<g>
<use xlink:href="#path_5a9e8aef7ca564910b04c6fff31af3ff"/>
</g>
<g>
<use xlink:href="#path_026a812b8710a5fccc27478881611283"/>
</g>
</g>
</g>
<g>
<g>
<use xlink:href="#path_30a418526147a64bc66a966505971c71"/>
</g>
<g>
<use xlink:href="#path_3b42edf9e3e6d7acf5c60d748e06792f"/>
</g>
<g>
<use xlink:href="#path_b1a86c1033e38246b650be5064eb9631"/>
</g>
<g>
<use xlink:href="#path_0aa64a5c03525fe681d68b0511575a39"/>
</g>
<g>
<use xlink:href="#path_e181ad5b7e484ac748238890c5e2d8b0"/>
</g>
<g>
<use xlink:href="#path_3a0c1b283f8578f3eec6eb51adebf532"/>
</g>
<g>
<use xlink:href="#path_2804ce66319fad34492c7facb0778742"/>
</g>
<g>
<use xlink:href="#path_caa6f5b0b81c1d0d44b8e0731de2b55e"/>
</g>
<g>
<use xlink:href="#path_5d651c5b81774c24370c44d1a9418691"/>
</g>
<g>
<use xlink:href="#path_059b63b98e74dd60a912ffd918323fb7"/>
</g>
</g>
<g>
<g>
<use xlink:href="#path_1700c4c33e01f0649d8ae9184dfe81f3"/>
</g>
<g>
<use xlink:href="#path_5c4c0c94e9656d43d195f054c61d8a7d"/>
</g>
<g>
<g>
<use xlink:href="#path_279f1d418002e6c61f18f5d811afdd4c"/>
</g>
<g>
<use xlink:href="#path_5901b3a2f892c2da6d2ed3795e63273c"/>
</g>
<g>
<use xlink:href="#path_e9a7801a9cdce42d0c23414ac56754c4"/>
</g>
<g>
<use xlink:href="#path_7bc09f207d5247e4c68510a2986618d2"/>
</g>
<g>
<use xlink:href="#path_cb12e8a14e2c9509f65e4ae01ecfb09a"/>
</g>
<g>
<use xlink:href="#path_b9157b5f4c356620b2a9fe8d90d2b464"/>
</g>
<g>
<use xlink:href="#path_4813378cc039a2187e66b4eec85a9f87"/>
</g>
<g>
<use xlink:href="#path_f68b8ca95098ab650ecc68d24fe9b018"/>
</g>
</g>
</g>
<g>
<g>
<use xlink:href="#path_dada3cd2cae9615020959133b0e959da"/>
</g>
<g>
<use xlink:href="#path_88ee06e063bfe9e06653e1b9e07c7301"/>
</g>
<g>
<use xlink:href="#path_76cf4c6ba316feb6fddca12ee150bd26"/>
</g>
</g>
<g>
<g>
<use xlink:href="#path_f76edfa47421bbc0556be41268ce9c7f"/>
</g>
<g>
<use xlink:href="#path_c29777908dc8d569127dc92f4dd24c0c"/>
</g>
<g>
<g>
<use xlink:href="#path_8a65a5e4e88f40ec51834bc079ea26bd"/>
</g>
<g>
<use xlink:href="#path_09d1acd2b7c6b518f3a27133cb19c24f"/>
</g>
<g>
<use xlink:href="#path_b3f2bd92379c9fa516433c180b4a9d6a"/>
</g>
<g>
<use xlink:href="#path_19057a001a4f07acc0cbd00d28529370"/>
</g>
<g>
<use xlink:href="#path_7820d440688adc1332cfc1153ab6b9da"/>
</g>
<g>
<use xlink:href="#path_ac20e229a8af92a6f9f5d594f52e8303"/>
</g>
<g>
<use xlink:href="#path_b3d22548bd0ef76150b36b30d6378abf"/>
</g>
<g>
<use xlink:href="#path_f476b95ed30c485ff83e43e9ce4030b3"/>
</g>
</g>
</g>
<g>
<g>
<use xlink:href="#path_86e9115834e5e23e78139f8845e8932d"/>
</g>
<g>
<use xlink:href="#path_610e52ad61fbecf3eb95285e1ba71673"/>
</g>
<g>
<use xlink:href="#path_7464f88c095c7d282e6e6ed5ac03d544"/>
</g>
<g>
<use xlink:href="#path_63816ccfa04c8f8834dbf7028561fbfc"/>
</g>
<g>
<use xlink:href="#path_fc21947de6ad7be38dc8c54d6eb3e184"/>
</g>
<g>
<use xlink:href="#path_217278591a61e69711285dca15645313"/>
</g>
</g>
<g>
<g>
<use xlink:href="#path_9dd9ee713dbd9c5b6431cc74b4e13155"/>
</g>
<g>
<use xlink:href="#path_ab5912bdb7c410c9db6594afcc23d79f"/>
</g>
<g>
<use xlink:href="#path_b7a7cc172c86dded4bf83d075d9df5b6"/>
</g>
<g>
<use xlink:href="#path_64917f92a1ce730cf1d985d87539d9ef"/>
</g>
<g>
<use xlink:href="#path_ce4dd0266007bc3a88db7f14f0f9d31f"/>
</g>
<g>
<use xlink:href="#path_967315dfc3222024b1e5cc00d03db543"/>
</g>
<g>
<use xlink:href="#path_6637f86e78738b47e72b09efad793ce5"/>
</g>
<g>
<use xlink:href="#path_ccfd79511fb28df945ea8ec92fefadee"/>
</g>
<g>
<use xlink:href="#path_6c1f4fb44e638e578ac29ff9eff46799"/>
</g>
<g>
<use xlink:href="#path_66c0d884cf34a5d28a1874ab97b520ed"/>
</g>
<g>
<use xlink:href="#path_62bd43b944962d2aa5d1331b677636b2"/>
</g>
<g>
<use xlink:href="#path_45cdae44f3380b146364c57d59653773"/>
</g>
</g>
<g>
<g>
<use xlink:href="#path_187b5804dc3ce7282a2dbfcde121383a"/>
</g>
<g>
<use xlink:href="#path_afb63d56e5927b557c6eb4cae5e763a9"/>
</g>
<g>
<use xlink:href="#path_9a0dca9d2c6488df6d13ae3cb5421ae0"/>
</g>
<g>
<use xlink:href="#path_d8c4cdeac9c79548821dd6d9ef3213ba"/>
</g>
<g>
<use xlink:href="#path_282390ce2d4cc9fc36f84bc41b7b2dca"/>
</g>
<g>
<use xlink:href="#path_7fea8ea6d864db31cafc3688e0a2d839"/>
</g>
<g>
<use xlink:href="#path_c60fa14fb858ac7ed335a48758a5fd79"/>
</g>
<g>
<use xlink:href="#path_3414326af4ba3bfc0ba345442a53324c"/>
</g>
<g>
<use xlink:href="#path_c8e964d3a6a57bc0f0608e7e0df4a77e"/>
</g>
<g>
<use xlink:href="#path_26f793ccf7e15ee72da0b3ab9a6880d4"/>
</g>
<g>
<use xlink:href="#path_d24164156013eedc4c9559683d83d59f"/>
</g>
<g>
<use xlink:href="#path_88c087b8b0f837a397aebafc20db647c"/>
</g>
</g>
<g>
<g>
<use xlink:href="#path_34a104b9c8bab5c904c8862cfb856603"/>
</g>
<g>
<use xlink:href="#path_4a0d66bee9fac8348f28823ce3d60167"/>
</g>
<g>
<use xlink:href="#path_77134ec0fb7f0250f6ed10ee03fe75f9"/>
</g>
<g>
<use xlink:href="#path_5ff929de2dfa5af0a837b313e389d4f0"/>
</g>
<g>
<use xlink:href="#path_a3219515a5e8913e8cb881d093d3cb42"/>
</g>
<g>
<use xlink:href="#path_4c9ed4c8da5fff146a540d6bdd42f520"/>
</g>
<g>
<use xlink:href="#path_9a12c7469f867f7a8b14d2b999d773c0"/>
</g>
<g>
<use xlink:href="#path_5f1d798bfa290e354d5422c1e36701ef"/>
</g>
<g>
<use xlink:href="#path_3ae6c4760fbc9792c136a0c641f9ceb3"/>
</g>
<g>
<use xlink:href="#path_8576a226a28bb1130f6c8c043740cb0a"/>
</g>
</g>
</svg>