0
SECTION
2
HEADER
9
$INSUNITS
70
4
9
$ACADVER
1
AC1014
9
$HANDSEED
5
FFFF
0
ENDSEC
0
SECTION
2
TABLES
0
TABLE
2
VPORT
5
8
100
AcDbSymbolTable
0
ENDTAB
0
TABLE
2
LTYPE
5
5
100
AcDbSymbolTable
0
LTYPE
5
14
100
AcDbSymbolTableRecord
100
AcDbLinetypeTableRecord
2
BYBLOCK
70
0
0
LTYPE
5
15
100
AcDbSymbolTableRecord
100
AcDbLinetypeTableRecord
2
BYLAYER
70
0
0
ENDTAB
0
TABLE
2
LAYER
5
2
100
AcDbSymbolTable
70
2
0
LAYER
5
50
100
AcDbSymbolTableRecord
100
AcDbLayerTableRecord
2
0
70
0
6
CONTINUOUS
0
ENDTAB
0
TABLE
2
STYLE
5
3
100
AcDbSymbolTable
70
1
0
STYLE
5
11
100
AcDbSymbolTableRecord
100
AcDbTextStyleTableRecord
2
STANDARD
70
0
0
ENDTAB
0
TABLE
2
VIEW
5
6
100
AcDbSymbolTable
70
0
0
ENDTAB
0
TABLE
2
UCS
5
7
100
AcDbSymbolTable
70
0
0
ENDTAB
0
TABLE
2
APPID
5
9
100
AcDbSymbolTable
70
2
0
APPID
5
12
100
AcDbSymbolTableRecord
100
AcDbRegAppTableRecord
2
ACAD
70
0
0
ENDTAB
0
TABLE
2
DIMSTYLE
5
A
100
AcDbSymbolTable
70
1
0
ENDTAB
0
TABLE
2
BLOCK_RECORD
5
1
100
AcDbSymbolTable
70
1
0
BLOCK_RECORD
5
1F
100
AcDbSymbolTableRecord
100
AcDbBlockTableRecord
2
*MODEL_SPACE
0
BLOCK_RECORD
5
1B
100
AcDbSymbolTableRecord
100
AcDbBlockTableRecord
2
*PAPER_SPACE
0
ENDTAB
0
ENDSEC
0
SECTION
2
BLOCKS
0
BLOCK
5
20
100
AcDbEntity
100
AcDbBlockBegin
2
*MODEL_SPACE
0
ENDBLK
5
21
100
AcDbEntity
100
AcDbBlockEnd
0
BLOCK
5
1C
100
AcDbEntity
100
AcDbBlockBegin
2
*PAPER_SPACE
0
ENDBLK
5
1D
100
AcDbEntity
100
AcDbBlockEnd
0
ENDSEC
0
SECTION
2
ENTITIES
0
SPLINE
5
100
100
AcDbEntity
8
0
100
AcDbSpline
70
0
71
3
72
12
73
8
74
0
42
0.000000001
43
0.0000000001
44
0.0000000001
40
0
40
0
40
0
40
0
40
0.43742887031980443
40
0.43742887031980443
40
0.70670131892043431
40
0.70670131892043431
40
1.5490815350475695
40
1.5490815350475695
40
1.5490815350475695
40
1.5490815350475695
10
10.000003845129328
20
-33.253658485713082
30
0
10
11.457993392251796
20
-33.271296775062822
30
0
10
12.791621337407397
20
-33.423890050720914
30
0
10
14.822346779803418
20
-33.995887690539767
30
0
10
15.548730052960016
20
-34.285025951050507
30
0
10
18.091725455963786
20
-35.235451719567621
30
0
10
19.11906855593956
20
-35.339698124456753
30
0
10
19.910066612503879
20
-35.36816963770427
30
0
0
LINE
5
101
100
AcDbEntity
8
0
100
AcDbLine
10
19.910066612503879
20
-35.36816963770427
30
0
11
19.910594228773952
21
-35.368169637704284
31
0
0
SPLINE
5
102
100
AcDbEntity
8
0
100
AcDbSpline
70
0
71
3
72
14
73
10
74
0
42
0.000000001
43
0.0000000001
44
0.0000000001
40
-0.25384813288588814
40
-0.25384813288588814
40
-0.25384813288588814
40
-0.25384813288588814
40
-0.20653686637053506
40
-0.20653686637053506
40
-0.20653686637053506
40
-0.145318943217291
40
-0.145318943217291
40
-0.145318943217291
40
-0.0010204852714690547
40
-0.0010204852714690547
40
-0.0010204852714690547
40
-0.0010204852714690547
10
25.239296493507624
20
-33.492760173612112
30
0
10
24.814086489888176
20
-33.917970177231552
30
0
10
24.364181619825761
20
-34.22133109960663
30
0
10
24.006624812919995
20
-34.424270984147078
30
0
10
23.538006337889378
20
-34.690246564472986
30
0
10
23.075118994653558
20
-34.873286196931048
30
0
10
22.676999801427513
20
-34.999260283828789
30
0
10
21.730131743407544
20
-35.29887115678153
30
0
10
20.783488919609894
20
-35.397797047159756
30
0
10
19.910594228845028
20
-35.368169637706693
30
0
0
SPLINE
5
103
100
AcDbEntity
8
0
100
AcDbSpline
70
0
71
3
72
38
73
34
74
0
42
0.000000001
43
0.0000000001
44
0.0000000001
40
-1.2811145089019365
40
-1.2811145089019365
40
-1.2811145089019365
40
-1.2811145089019365
40
-1.1048082019575347
40
-1.1048082019575347
40
-1.1048082019575347
40
-0.87243426263475765
40
-0.87243426263475765
40
-0.87243426263475765
40
-0.67035321052575736
40
-0.67035321052575736
40
-0.67035321052575736
40
-0.52995964954033381
40
-0.52995964954033381
40
-0.52995964954033381
40
-0.39440757751091859
40
-0.39440757751091859
40
-0.39440757751091859
40
-0.28503719440662523
40
-0.28503719440662523
40
-0.28503719440662523
40
-0.2085159057860847
40
-0.2085159057860847
40
-0.2085159057860847
40
-0.13443382546629865
40
-0.13443382546629865
40
-0.13443382546629865
40
-0.08366245013312798
40
-0.08366245013312798
40
-0.08366245013312798
40
-0.032177865435821039
40
-0.032177865435821039
40
-0.032177865435821039
40
-4.2008637851073075e-15
40
-4.2008637851073075e-15
40
-4.2008637851073075e-15
40
-4.2008637851073075e-15
10
25.000194852183601
20
-18.253463699882133
30
0
10
25.006258577792696
20
-18.754462557653557
30
0
10
25.028478070630378
20
-19.243982052386702
30
0
10
25.069310705727233
20
-19.720531421119951
30
0
10
25.122998817994482
20
-20.34711444591732
30
0
10
25.209346462790208
20
-20.949745209066712
30
0
10
25.33225097541002
20
-21.524623317213411
30
0
10
25.438362304103975
20
-22.020952366425909
30
0
10
25.5764319192097
20
-22.514660481281872
30
0
10
25.749175998771349
20
-23.024544210762741
30
0
10
25.868774359089745
20
-23.377559249852276
30
0
10
26.017172814991383
20
-23.770437386254457
30
0
10
26.185437456914062
20
-24.217906797466966
30
0
10
26.347217513425374
20
-24.648131625487046
30
0
10
26.548359446337781
20
-25.178969718703179
30
0
10
26.728276725458198
20
-25.809542406148907
30
0
10
26.876461812425188
20
-26.328900352117046
30
0
10
27.008992176393662
20
-26.919860616232096
30
0
10
27.075195843977966
20
-27.577606493880342
30
0
10
27.121399471018233
20
-28.036648210556177
30
0
10
27.133316361002052
20
-28.509655206718492
30
0
10
27.102865358536945
20
-28.993748463650402
30
0
10
27.073725239414948
20
-29.457002019565852
30
0
10
27.005633098095121
20
-29.934152243861138
30
0
10
26.889495855361801
20
-30.414417361539225
30
0
10
26.810241459581704
20
-30.742159960037423
30
0
10
26.703896973506094
20
-31.090563462980665
30
0
10
26.561421809824338
20
-31.446031607719263
30
0
10
26.42106926051401
20
-31.796203939678236
30
0
10
26.221265104425008
20
-32.21235400707198
30
0
10
25.942983036088755
20
-32.63053948522834
30
0
10
25.765855338670779
20
-32.896716286638224
30
0
10
25.534289675337646
20
-33.197766991781997
30
0
10
25.239296493508018
20
-33.492760173611714
30
0
0
SPLINE
5
104
100
AcDbEntity
8
0
100
AcDbSpline
70
0
71
3
72
38
73
34
74
0
42
0.000000001
43
0.0000000001
44
0.0000000001
40
-1.2848848067110399
40
-1.2848848067110399
40
-1.2848848067110399
40
-1.2848848067110399
40
-1.2440173483082511
40
-1.2440173483082511
40
-1.2440173483082511
40
-1.1892047708829765
40
-1.1892047708829765
40
-1.1892047708829765
40
-1.1444421882045916
40
-1.1444421882045916
40
-1.1444421882045916
40
-1.0703601077306584
40
-1.0703601077306584
40
-1.0703601077306584
40
-0.99684321580850543
40
-0.99684321580850543
40
-0.99684321580850543
40
-0.88987634996272647
40
-0.88987634996272647
40
-0.88987634996272647
40
-0.75456674440999383
40
-0.75456674440999383
40
-0.75456674440999383
40
-0.61453159618229269
40
-0.61453159618229269
40
-0.61453159618229269
40
-0.41361540397916052
40
-0.41361540397916052
40
-0.41361540397916052
40
-0.18141008221243937
40
-0.18141008221243937
40
-0.18141008221243937
40
-0.0037702791916418297
40
-0.0037702791916418297
40
-0.0037702791916418297
40
-0.0037702791916418297
10
25.239296493507688
20
-3.014167365410747
30
0
10
25.610048988568902
20
-3.3849198604719803
30
0
10
25.885109510074784
20
-3.7706363041143192
30
0
10
26.079845687052881
20
-4.091803962954276
30
0
10
26.341008720132912
20
-4.5225257795753526
30
0
10
26.526433564302899
20
-4.9482683114502581
30
0
10
26.657090369624605
20
-5.313224940861744
30
0
10
26.766914590128877
20
-5.6199910311874159
30
0
10
26.851792394688804
20
-5.9214004094430726
30
0
10
26.916978249968416
20
-6.2100592818788956
30
0
10
27.024977630181837
20
-6.6883068891619999
30
0
10
27.08633048045602
20
-7.1636712730678713
30
0
10
27.109239009588244
20
-7.6266138328381121
30
0
10
27.132209491769828
20
-8.0908083587688715
30
0
10
27.116499062484717
20
-8.5437156931095224
30
0
10
27.069632538239922
20
-8.9829827933611597
30
0
10
27.001310752769538
20
-9.6233441828857966
30
0
10
26.870819411926284
20
-10.199143652054817
30
0
10
26.725852204695016
20
-10.705871245870149
30
0
10
26.546079253697449
20
-11.334261049550054
30
0
10
26.34550014489847
20
-11.863408005674801
30
0
10
26.184128155106634
20
-12.292502408908765
30
0
10
26.016407612561121
20
-12.738477861070479
30
0
10
25.868482465176722
20
-13.130229864034524
30
0
10
25.749175998758318
20
-13.482383328295382
30
0
10
25.577405628804229
20
-13.989392987139569
30
0
10
25.439939827461497
20
-14.480291487162615
30
0
10
25.334108529792356
20
-14.973630396910085
30
0
10
25.210919975548002
20
-15.547881194006759
30
0
10
25.124256035381425
20
-16.149770503823429
30
0
10
25.070239567225148
20
-16.775595162409843
30
0
10
25.028814921045544
20
-17.255533335661244
30
0
10
25.006304444976895
20
-17.74867061148327
30
0
10
25.000194852184968
20
-18.253463683571532
30
0
0
SPLINE
5
105
100
AcDbEntity
8
0
100
AcDbSpline
70
0
71
3
72
38
73
34
74
0
42
0.000000001
43
0.0000000001
44
0.0000000001
40
-1.2811145089002163
40
-1.2811145089002163
40
-1.2811145089002163
40
-1.2811145089002163
40
-1.1048082019563958
40
-1.1048082019563958
40
-1.1048082019563958
40
-0.87243426263550139
40
-0.87243426263550139
40
-0.87243426263550139
40
-0.67035321052636399
40
-0.67035321052636399
40
-0.67035321052636399
40
-0.52995964954067565
40
-0.52995964954067565
40
-0.52995964954067565
40
-0.39440757751153765
40
-0.39440757751153765
40
-0.39440757751153765
40
-0.28503719440713293
40
-0.28503719440713293
40
-0.28503719440713293
40
-0.20851590578658433
40
-0.20851590578658433
40
-0.20851590578658433
40
-0.13443382546663693
40
-0.13443382546663693
40
-0.13443382546663693
40
-0.083662450133403385
40
-0.083662450133403385
40
-0.083662450133403385
40
-0.032177865435925594
40
-0.032177865435925594
40
-0.032177865435925594
40
-1.9775580819947205e-15
40
-1.9775580819947205e-15
40
-1.9775580819947205e-15
40
-1.9775580819947205e-15
10
10.000000019780394
20
-3.2532690067345733
30
0
10
10.500998877556915
20
-3.2472052811235601
30
0
10
10.990518372293817
20
-3.2249857882851889
30
0
10
11.467067741028787
20
-3.1841531531884133
30
0
10
12.093650765824639
20
-3.1304650409215986
30
0
10
12.696281528969578
20
-3.0441173961276906
30
0
10
13.271159637107409
20
-2.9212128835105262
30
0
10
13.767488686316177
20
-2.8151015548180114
30
0
10
14.261196801168193
20
-2.6770319397131837
30
0
10
14.771080530647275
20
-2.5042878601512744
30
0
10
15.124095569736511
20
-2.3846894998323789
30
0
10
15.516973706140703
20
-2.236291043929159
30
0
10
15.964443117356492
20
-2.0680264020048842
30
0
10
16.394667945378977
20
-1.9062463454923129
30
0
10
16.925506038595906
20
-1.7051044125800434
30
0
10
17.556078726040539
20
-1.5251871334603064
30
0
10
18.075436672008259
20
-1.3770020464937349
30
0
10
18.666396936121931
20
-1.2444716825258118
30
0
10
19.32414281376775
20
-1.1782680149412041
30
0
10
19.783184530441744
20
-1.1320643879007353
30
0
10
20.256191526603082
20
-1.120147497916171
30
0
10
20.740284783534722
20
-1.1505985003804773
30
0
10
21.203538339451118
20
-1.1797386195017827
30
0
10
21.680688563747932
20
-1.2478307608210808
30
0
10
22.160953681427888
20
-1.3639680035543558
30
0
10
22.488696279927382
20
-1.4432223993344282
30
0
10
22.837099782871455
20
-1.5495668854100471
30
0
10
23.192567927610916
20
-1.692042049091975
30
0
10
23.542740259571179
20
-1.8323945984026526
30
0
10
23.958890326965957
20
-2.0321987544921156
30
0
10
24.377075805123162
20
-2.3104808228289446
30
0
10
24.643252606532471
20
-2.4876085202465501
30
0
10
24.944303311677686
20
-2.7191741835807095
30
0
10
25.239296493507759
20
-3.0141673654108185
30
0
0
SPLINE
5
106
100
AcDbEntity
8
0
100
AcDbSpline
70
0
71
3
72
38
73
34
74
0
42
0.000000001
43
0.0000000001
44
0.0000000001
40
-1.2848848067102701
40
-1.2848848067102701
40
-1.2848848067102701
40
-1.2848848067102701
40
-1.2440173483077177
40
-1.2440173483077177
40
-1.2440173483077177
40
-1.1892047708819593
40
-1.1892047708819593
40
-1.1892047708819593
40
-1.1444421882038536
40
-1.1444421882038536
40
-1.1444421882038536
40
-1.0703601077300446
40
-1.0703601077300446
40
-1.0703601077300446
40
-0.99684321580847879
40
-0.99684321580847879
40
-0.99684321580847879
40
-0.88987634996325027
40
-0.88987634996325027
40
-0.88987634996325027
40
-0.75456674441464711
40
-0.75456674441464711
40
-0.75456674441464711
40
-0.61453159618428976
40
-0.61453159618428976
40
-0.61453159618428976
40
-0.41361540398086338
40
-0.41361540398086338
40
-0.41361540398086338
40
-0.18141008223089172
40
-0.18141008223089172
40
-0.18141008223089172
40
-0.0037702791931132915
40
-0.0037702791931132915
40
-0.0037702791931132915
40
-0.0037702791931132915
10
-5.2392963146937142
20
-3.0141673654106542
30
0
10
-4.8685438196332571
20
-2.6434148703502105
30
0
10
-4.4828273759919899
20
-2.3683543488451475
30
0
10
-4.1616597171543823
20
-2.1736181718681675
30
0
10
-3.7309379005296677
20
-1.9124551387855393
30
0
10
-3.3051953686513968
20
-1.7270302946144445
30
0
10
-2.9402387392380716
20
-1.5963734892923145
30
0
10
-2.6334726489149856
20
-1.4865492687891682
30
0
10
-2.3320632706616746
20
-1.4016714642298287
30
0
10
-2.0434043982276808
20
-1.3364856089504882
30
0
10
-1.5651567909458439
20
-1.228486228737107
30
0
10
-1.0897924070401572
20
-1.1671333784624811
30
0
10
-0.62684984726918869
20
-1.1442248493300746
30
0
10
-0.16265532134019023
20
-1.1212543671484221
30
0
10
0.29025201299908321
20
-1.1369647964333252
30
0
10
0.72951911324999874
20
-1.1838313206781157
30
0
10
1.369880502775833
20
-1.2521531061487265
30
0
10
1.9456799719441056
20
-1.3826444469928507
30
0
10
2.4524075657566469
20
-1.5276116542238662
30
0
10
3.0807973694165747
20
-1.7073846052163977
30
0
10
3.6099443255243187
20
-1.9079637140078023
30
0
10
4.039038728744389
20
-2.0693357037932909
30
0
10
4.4850141809137458
20
-2.2370562463405266
30
0
10
4.8767661838836949
20
-2.3849813937258624
30
0
10
5.2289196481508675
20
-2.5042878601448697
30
0
10
5.7359293069964057
20
-2.6760582300972025
30
0
10
6.2268278070260212
20
-2.8135240314400001
30
0
10
6.7201667167813239
20
-2.9193553291103469
30
0
10
7.294417513845346
20
-3.0425438833471481
30
0
10
7.8963068236240321
20
-3.1292078235126675
30
0
10
8.5221314821663317
20
-3.1832242916729792
30
0
10
9.0020696554641848
20
-3.2246489378626091
30
0
10
9.4952069313338665
20
-3.2471594139378528
30
0
10
10.00000000346985
20
-3.2532690067332055
30
0
0
SPLINE
5
107
100
AcDbEntity
8
0
100
AcDbSpline
70
0
71
3
72
38
73
34
74
0
42
0.000000001
43
0.0000000001
44
0.0000000001
40
-1.2746933354204399
40
-1.2746933354204399
40
-1.2746933354204399
40
-1.2746933354204399
40
-1.1048082019630614
40
-1.1048082019630614
40
-1.1048082019630614
40
-0.872434262635154
40
-0.872434262635154
40
-0.872434262635154
40
-0.67035321052830721
40
-0.67035321052830721
40
-0.67035321052830721
40
-0.52995964954923047
40
-0.52995964954923047
40
-0.52995964954923047
40
-0.39440757751356409
40
-0.39440757751356409
40
-0.39440757751356409
40
-0.28503719440796776
40
-0.28503719440796776
40
-0.28503719440796776
40
-0.20851590578570864
40
-0.20851590578570864
40
-0.20851590578570864
40
-0.13443382546603325
40
-0.13443382546603325
40
-0.13443382546603325
40
-0.083662450132874183
40
-0.083662450132874183
40
-0.083662450132874183
40
-0.032177865435723194
40
-0.032177865435723194
40
-0.032177865435723194
40
-3.82498407574616e-15
40
-3.82498407574616e-15
40
-3.82498407574616e-15
40
-3.82498407574616e-15
10
-5.0009214599056602
20
-18.198769381526265
30
0
10
-5.007898770327369
20
-17.716822988976723
30
0
10
-5.0299650390074504
20
-17.245589294281551
30
0
10
-5.0693105268785654
20
-16.786396117898065
30
0
10
-5.1229986391363731
20
-16.159813093118881
30
0
10
-5.2093462839306994
20
-15.55718232998451
30
0
10
-5.3322507965553108
20
-14.982304221846023
30
0
10
-5.4383621252501406
20
-14.485975172655936
30
0
10
-5.5764317403607073
20
-13.992267057811393
30
0
10
-5.7491758199298086
20
-13.482383328329652
30
0
10
-5.8687741802496234
20
-13.129368289250555
30
0
10
-6.0171726361510736
20
-12.736490152858801
30
0
10
-6.1854372780708662
20
-12.289020741661176
30
0
10
-6.3472173345940668
20
-11.858795913616426
30
0
10
-6.5483592675194444
20
-11.327957820371337
30
0
10
-6.7282765466477983
20
-10.697385132892034
30
0
10
-6.8764616336160636
20
-10.17802718691469
30
0
10
-7.008991997582612
20
-9.5870669227948753
30
0
10
-7.0751956651652232
20
-8.9293210451458673
30
0
10
-7.1213992922047673
20
-8.4702793284649847
30
0
10
-7.1333161821876123
20
-7.9972723322971699
30
0
10
-7.1028651797210056
20
-7.5131790753597363
30
0
10
-7.0737250605982673
20
-7.0499255194500154
30
0
10
-7.0056329192789217
20
-6.5727752951587259
30
0
10
-6.8894956765464368
20
-6.0925101774832058
30
0
10
-6.810241280766749
20
-5.7647675789860937
30
0
10
-6.703896794691576
20
-5.4163640760430347
30
0
10
-6.5614216310098925
20
-5.0608959313039339
30
0
10
-6.4210690817000513
20
-4.7107235993455179
30
0
10
-6.2212649256112957
20
-4.2945735319513796
30
0
10
-5.9429828572747336
20
-3.8763880537943809
30
0
10
-5.7658551598566081
20
-3.6102112523841559
30
0
10
-5.5342894965233516
20
-3.3091605472403169
30
0
10
-5.2392963146938971
20
-3.0141673654108359
30
0
0
SPLINE
5
108
100
AcDbEntity
8
0
100
AcDbSpline
70
0
71
3
72
35
73
31
74
0
42
0.000000001
43
0.0000000001
44
0.0000000001
40
-1.2734829490452459
40
-1.2734829490452459
40
-1.2734829490452459
40
-1.2734829490452459
40
-1.2390820791224755
40
-1.2390820791224755
40
-1.2390820791224755
40
-1.1933481572297384
40
-1.1933481572297384
40
-1.1933481572297384
40
-1.1186153951972273
40
-1.1186153951972273
40
-1.1186153951972273
40
-1.0395255800237915
40
-1.0395255800237915
40
-1.0395255800237915
40
-0.93159863133291632
40
-0.93159863133291632
40
-0.93159863133291632
40
-0.79066111472278888
40
-0.79066111472278888
40
-0.79066111472278888
40
-0.68381569206632353
40
-0.68381569206632353
40
-0.68381569206632353
40
-0.50672996814456839
40
-0.50672996814456839
40
-0.50672996814456839
40
-0.30340129727418852
40
-0.30340129727418852
40
-0.30340129727418852
40
-0.0099434079896544795
40
-0.0099434079896544795
40
-0.0099434079896544795
40
-0.0099434079896544795
10
-5.2392963146938012
20
-33.492760173612027
30
0
10
-5.6010595516636865
20
-33.130996936642127
30
0
10
-5.8658820799280109
20
-32.757853904414276
30
0
10
-6.0576583640835677
20
-32.435137303801241
30
0
10
-6.3058558445398791
20
-32.017476446900879
30
0
10
-6.4758496149639209
20
-31.608117249103039
30
0
10
-6.589463084551781
20
-31.278190302102715
30
0
10
-6.7781658119475257
20
-30.730208491793096
30
0
10
-6.8814848237585293
20
-30.206271432477074
30
0
10
-6.9391323996541825
20
-29.754776987727158
30
0
10
-7.0017749995185508
20
-29.264161633932424
30
0
10
-7.0190487453672592
20
-28.790856547417036
30
0
10
-7.0061621157382534
20
-28.343509546024855
30
0
10
-6.9884058599188741
20
-27.72711813683334
30
0
10
-6.9127229209099736
20
-27.149997295273394
30
0
10
-6.8082548330806993
20
-26.61774281944334
30
0
10
-6.672841636392695
20
-25.927826104001657
30
0
10
-6.4940021957832865
20
-25.328012574344669
30
0
10
-6.334554882755727
20
-24.822884967477012
30
0
10
-6.2138360000660295
20
-24.440448668244777
30
0
10
-6.098356369176928
20
-24.095413887061987
30
0
10
-5.997965153983924
20
-23.78405128966838
30
0
10
-5.8326456444779424
20
-23.271314076749317
30
0
10
-5.6909183663022773
20
-22.795581317418048
30
0
10
-5.5754474692097382
20
-22.33647921903783
30
0
10
-5.4416981504533748
20
-21.804703728900598
30
0
10
-5.3332327371600439
20
-21.263465511920749
30
0
10
-5.2475130599030617
20
-20.708570900828811
30
0
10
-5.1233088220174121
20
-19.904551748132882
30
0
10
-5.0446174840687377
20
-19.064760980599612
30
0
10
-5.0009214599056495
20
-18.198769381525956
30
0
0
SPLINE
5
109
100
AcDbEntity
8
0
100
AcDbSpline
70
0
71
3
72
17
73
13
74
0
42
0.000000001
43
0.0000000001
44
0.0000000001
40
-0.25284496410096735
40
-0.25284496410096735
40
-0.25284496410096735
40
-0.25284496410096735
40
-0.15379595397111917
40
-0.15379595397111917
40
-0.15379595397111917
40
-0.08352390808193097
40
-0.08352390808193097
40
-0.08352390808193097
40
-0.032177865435611103
40
-0.032177865435611103
40
-0.032177865435611103
40
-1.7816777859032858e-15
40
-1.7816777859032858e-15
40
-1.7816777859032858e-15
40
-1.7816777859032858e-15
10
0.089386912968110716
20
-35.368169637704234
30
0
10
-0.51985974886212105
20
-35.388804867380188
30
0
10
-1.1492371022864791
20
-35.346141344200845
30
0
10
-1.7841923197976199
20
-35.224509409072567
30
0
10
-2.2273997989577468
20
-35.139608644629888
30
0
10
-2.7076358600608588
20
-35.009503991238489
30
0
10
-3.1955185020215868
20
-34.813702031491907
30
0
10
-3.5448982141370209
20
-34.673485457987745
30
0
10
-3.9598756229533776
20
-34.474055090191136
30
0
10
-4.3769277698563585
20
-34.196545104287537
30
0
10
-4.6432118702769101
20
-34.019357437222851
30
0
10
-4.9441678035287548
20
-33.787888684777066
30
0
10
-5.239296314693707
20
-33.492760173612119
30
0
0
LINE
5
110
100
AcDbEntity
8
0
100
AcDbLine
10
0.089386912968110716
20
-35.368169637704234
30
0
11
0.089933566309479684
21
-35.368169637704263
31
0
0
SPLINE
5
111
100
AcDbEntity
8
0
100
AcDbSpline
70
0
71
3
72
12
73
8
74
0
42
0.000000001
43
0.0000000001
44
0.0000000001
40
0
40
0
40
0
40
0
40
0.092568278786867561
40
0.092568278786867561
40
0.18724873690672192
40
0.18724873690672192
40
0.2861794805968394
40
0.2861794805968394
40
0.2861794805968394
40
0.2861794805968394
10
0.089933566310093471
20
-35.368169637704241
30
0
10
0.39829480415772311
20
-35.357070354974553
30
0
10
1.1432872502764393
20
-35.33025478681602
30
0
10
3.3731789804820216
20
-34.736464638066018
30
0
10
4.294151747417045
20
-34.311745538641546
30
0
10
6.4166917647988031
20
-33.608991049884757
30
0
10
7.8046666713952533
20
-33.280228555563667
30
0
10
10.000003845129486
20
-33.253658485713082
30
0
0
CIRCLE
5
112
100
AcDbEntity
8
0
100
AcDbCircle
10
5.0010235357757038
20
-31.596729751158115
30
0
40
1.5000000000000002
210
0
220
0
230
1
0
CIRCLE
5
113
100
AcDbEntity
8
0
100
AcDbCircle
10
15.101023535775706
20
-31.596729751158115
30
0
40
1.5000000000000002
210
0
220
0
230
1
0
CIRCLE
5
114
100
AcDbEntity
8
0
100
AcDbCircle
10
10.000000089406944
20
-18.253463769511388
30
0
40
1.749999999999998
210
-0
220
0
230
1
0
CIRCLE
5
115
100
AcDbEntity
8
0
100
AcDbCircle
10
20.500000238418558
20
-7.7534636204997707
30
0
40
1.4999999999999991
210
-0
220
0
230
1
0
CIRCLE
5
116
100
AcDbEntity
8
0
100
AcDbCircle
10
-0.50000005960467009
20
-7.7534636204997707
30
0
40
1.5000000000000002
210
-0
220
0
230
1
0
CIRCLE
5
117
100
AcDbEntity
8
0
100
AcDbCircle
10
20.500000238418558
20
-28.753463620499772
30
0
40
1.4999999999999991
210
-0
220
0
230
1
0
CIRCLE
5
118
100
AcDbEntity
8
0
100
AcDbCircle
10
-0.50000005960467009
20
-28.753463620499772
30
0
40
1.5000000000000002
210
-0
220
0
230
1
0
ENDSEC
0
SECTION
2
OBJECTS
0
DICTIONARY
5
C
100
AcDbDictionary
3
ACAD_GROUP
350
D
3
ACAD_MLINESTYLE
350
17
0
DICTIONARY
5
D
100
AcDbDictionary
0
DICTIONARY
5
1A
330
C
100
AcDbDictionary
0
DICTIONARY
5
17
100
AcDbDictionary
0
ENDSEC
0
EOF
