<?xml version="1.0" encoding="utf-8"?>
<!-- Generator: Adobe Illustrator 25.2.1, SVG Export Plug-In . SVG Version: 6.00 Build 0)  -->
<svg version="1.1" id="_x30_" xmlns="http://www.w3.org/2000/svg" xmlns:xlink="http://www.w3.org/1999/xlink" x="0px" y="0px"
	 viewBox="0 0 1728 864" style="enable-background:new 0 0 1728 864;" xml:space="preserve">
<style type="text/css">
	.st0{fill:none;stroke:#000000;stroke-width:0.7087;stroke-linecap:round;stroke-linejoin:round;stroke-miterlimit:10;}
</style>
<g id="CIRCLE">
	<circle class="st0" cx="849.83" cy="469.81" r="4.25"/>
</g>
<g id="CIRCLE_1_">
	<circle class="st0" cx="878.46" cy="469.81" r="4.25"/>
</g>
<g id="CIRCLE_2_">
	<circle class="st0" cx="864" cy="431.98" r="19.13"/>
</g>
<g id="CIRCLE_3_">
	<circle class="st0" cx="893.76" cy="402.22" r="4.25"/>
</g>
<g id="CIRCLE_4_">
	<circle class="st0" cx="834.24" cy="402.22" r="4.25"/>
</g>
<g id="CIRCLE_5_">
	<circle class="st0" cx="893.76" cy="461.75" r="4.25"/>
</g>
<g id="CIRCLE_6_">
	<circle class="st0" cx="834.24" cy="461.75" r="4.25"/>
</g>
<g id="SPLINE">
	<path class="st0" d="M864,389.46c1.42-0.02,2.81-0.08,4.16-0.2c1.78-0.15,3.48-0.4,5.11-0.75c1.41-0.3,2.81-0.69,4.25-1.18
		c1-0.34,2.11-0.76,3.38-1.24c1.22-0.46,2.72-1.03,4.51-1.54c1.47-0.42,3.15-0.8,5.01-0.98c1.3-0.13,2.64-0.16,4.01-0.08
		c1.31,0.08,2.67,0.28,4.03,0.6c0.93,0.22,1.92,0.53,2.92,0.93c0.99,0.4,2.17,0.96,3.36,1.75c0.75,0.5,1.61,1.16,2.44,1.99"/>
</g>
<g id="SPLINE_1_">
	<path class="st0" d="M820.8,388.79c1.05-1.05,2.14-1.83,3.05-2.38c1.22-0.74,2.43-1.27,3.46-1.64c0.87-0.31,1.72-0.55,2.54-0.74
		c1.36-0.31,2.7-0.48,4.02-0.54c1.32-0.07,2.6-0.02,3.84,0.11c1.82,0.19,3.45,0.56,4.88,0.97c1.78,0.51,3.28,1.08,4.5,1.54
		c1.26,0.48,2.37,0.89,3.37,1.23c1.44,0.49,2.83,0.88,4.23,1.18c1.63,0.35,3.33,0.59,5.11,0.75c1.36,0.12,2.76,0.18,4.19,0.2"/>
</g>
<g id="SPLINE_2_">
	<path class="st0" d="M821.48,431.83c-0.02-1.37-0.08-2.7-0.19-4c-0.15-1.78-0.4-3.48-0.75-5.11c-0.3-1.41-0.69-2.81-1.18-4.25
		c-0.34-1-0.76-2.11-1.24-3.38c-0.46-1.22-1.03-2.72-1.54-4.51c-0.42-1.47-0.8-3.15-0.98-5.01c-0.13-1.3-0.16-2.64-0.08-4.01
		c0.08-1.31,0.28-2.67,0.6-4.03c0.22-0.93,0.53-1.92,0.93-2.92c0.4-0.99,0.96-2.17,1.75-3.36c0.5-0.75,1.16-1.61,1.99-2.44"/>
</g>
<g id="SPLINE_3_">
	<path class="st0" d="M820.8,475.18c-1.03-1.03-1.78-2.08-2.32-3c-0.7-1.18-1.19-2.34-1.51-3.28c-0.53-1.55-0.83-3.04-0.99-4.32
		c-0.18-1.39-0.23-2.73-0.19-4c0.05-1.75,0.26-3.38,0.56-4.89c0.38-1.96,0.89-3.66,1.34-5.09c0.34-1.08,0.67-2.06,0.95-2.94
		c0.47-1.45,0.87-2.8,1.2-4.1c0.38-1.51,0.69-3.04,0.93-4.61c0.35-2.28,0.58-4.66,0.7-7.11"/>
</g>
<g id="SPLINE_4_">
	<path class="st0" d="M835.91,480.5c-1.73,0.06-3.51-0.06-5.31-0.41c-1.26-0.24-2.62-0.61-4-1.16c-0.99-0.4-2.17-0.96-3.35-1.75
		c-0.75-0.5-1.61-1.16-2.44-1.99"/>
</g>
<g id="LINE">
	<line class="st0" x1="835.91" y1="480.5" x2="892.09" y2="480.5"/>
</g>
<g id="SPLINE_5_">
	<path class="st0" d="M907.2,475.18c-1.21,1.21-2.48,2.07-3.49,2.64c-1.33,0.75-2.64,1.27-3.77,1.63c-2.68,0.85-5.37,1.13-7.84,1.05
		"/>
</g>
<g id="SPLINE_6_">
	<path class="st0" d="M906.52,431.98c0.02,1.42,0.08,2.81,0.2,4.16c0.15,1.78,0.4,3.48,0.75,5.11c0.3,1.41,0.69,2.81,1.18,4.25
		c0.34,1,0.76,2.11,1.24,3.38c0.46,1.22,1.03,2.72,1.54,4.51c0.42,1.47,0.8,3.15,0.98,5.01c0.13,1.3,0.16,2.64,0.08,4.01
		c-0.08,1.31-0.28,2.67-0.6,4.03c-0.22,0.93-0.53,1.92-0.93,2.92c-0.4,0.99-0.96,2.17-1.75,3.36c-0.5,0.75-1.16,1.61-1.99,2.44"/>
</g>
<g id="SPLINE_7_">
	<path class="st0" d="M907.2,388.79c1.05,1.05,1.83,2.14,2.38,3.05c0.74,1.22,1.27,2.43,1.64,3.46c0.31,0.87,0.55,1.72,0.74,2.54
		c0.31,1.36,0.48,2.7,0.55,4.02c0.07,1.32,0.02,2.6-0.11,3.84c-0.19,1.82-0.56,3.45-0.97,4.88c-0.51,1.78-1.08,3.28-1.54,4.5
		c-0.48,1.26-0.89,2.37-1.23,3.37c-0.49,1.44-0.88,2.83-1.18,4.23c-0.35,1.63-0.59,3.33-0.75,5.11c-0.12,1.36-0.18,2.76-0.2,4.19"/>
</g>
</svg>
