0
SECTION
2
HEADER
9
$INSUNITS
70
4
9
$ACADVER
1
AC1014
9
$HANDSEED
5
FFFF
0
ENDSEC
0
SECTION
2
TABLES
0
TABLE
2
VPORT
5
8
100
AcDbSymbolTable
0
ENDTAB
0
TABLE
2
LTYPE
5
5
100
AcDbSymbolTable
0
LTYPE
5
14
100
AcDbSymbolTableRecord
100
AcDbLinetypeTableRecord
2
BYBLOCK
70
0
0
LTYPE
5
15
100
AcDbSymbolTableRecord
100
AcDbLinetypeTableRecord
2
BYLAYER
70
0
0
ENDTAB
0
TABLE
2
LAYER
5
2
100
AcDbSymbolTable
70
2
0
LAYER
5
50
100
AcDbSymbolTableRecord
100
AcDbLayerTableRecord
2
0
70
0
6
CONTINUOUS
0
ENDTAB
0
TABLE
2
STYLE
5
3
100
AcDbSymbolTable
70
1
0
STYLE
5
11
100
AcDbSymbolTableRecord
100
AcDbTextStyleTableRecord
2
STANDARD
70
0
0
ENDTAB
0
TABLE
2
VIEW
5
6
100
AcDbSymbolTable
70
0
0
ENDTAB
0
TABLE
2
UCS
5
7
100
AcDbSymbolTable
70
0
0
ENDTAB
0
TABLE
2
APPID
5
9
100
AcDbSymbolTable
70
2
0
APPID
5
12
100
AcDbSymbolTableRecord
100
AcDbRegAppTableRecord
2
ACAD
70
0
0
ENDTAB
0
TABLE
2
DIMSTYLE
5
A
100
AcDbSymbolTable
70
1
0
ENDTAB
0
TABLE
2
BLOCK_RECORD
5
1
100
AcDbSymbolTable
70
1
0
BLOCK_RECORD
5
1F
100
AcDbSymbolTableRecord
100
AcDbBlockTableRecord
2
*MODEL_SPACE
0
BLOCK_RECORD
5
1B
100
AcDbSymbolTableRecord
100
AcDbBlockTableRecord
2
*PAPER_SPACE
0
ENDTAB
0
ENDSEC
0
SECTION
2
BLOCKS
0
BLOCK
5
20
100
AcDbEntity
100
AcDbBlockBegin
2
*MODEL_SPACE
0
ENDBLK
5
21
100
AcDbEntity
100
AcDbBlockEnd
0
BLOCK
5
1C
100
AcDbEntity
100
AcDbBlockBegin
2
*PAPER_SPACE
0
ENDBLK
5
1D
100
AcDbEntity
100
AcDbBlockEnd
0
ENDSEC
0
SECTION
2
ENTITIES
0
CIRCLE
5
100
100
AcDbEntity
8
0
100
AcDbCircle
10
5.0010235357757065
20
-31.596729751158136
30
0
40
1.5000000000000004
210
0
220
-0
230
1
0
CIRCLE
5
101
100
AcDbEntity
8
0
100
AcDbCircle
10
15.101023535775706
20
-31.596729751158136
30
0
40
1.5000000000000004
210
0
220
-0
230
1
0
CIRCLE
5
102
100
AcDbEntity
8
0
100
AcDbCircle
10
10.000000089406779
20
-18.253463769511374
30
0
40
6.7499999999999991
210
-0
220
0
230
1
0
CIRCLE
5
103
100
AcDbEntity
8
0
100
AcDbCircle
10
20.500000238418394
20
-7.7534636204997573
30
0
40
1.4999999999999993
210
-0
220
0
230
1
0
CIRCLE
5
104
100
AcDbEntity
8
0
100
AcDbCircle
10
-0.50000005960483218
20
-7.7534636204997573
30
0
40
1.5000000000000004
210
-0
220
0
230
1
0
CIRCLE
5
105
100
AcDbEntity
8
0
100
AcDbCircle
10
20.500000238418394
20
-28.753463620499762
30
0
40
1.4999999999999993
210
-0
220
0
230
1
0
CIRCLE
5
106
100
AcDbEntity
8
0
100
AcDbCircle
10
-0.50000005960483218
20
-28.753463620499762
30
0
40
1.5000000000000004
210
-0
220
0
230
1
0
SPLINE
5
107
100
AcDbEntity
8
0
100
AcDbSpline
70
0
71
3
72
38
73
34
74
0
42
0.000000001
43
0.0000000001
44
0.0000000001
40
-1.2811145089002107
40
-1.2811145089002107
40
-1.2811145089002107
40
-1.2811145089002107
40
-1.1048082019563958
40
-1.1048082019563958
40
-1.1048082019563958
40
-0.87243426263550139
40
-0.87243426263550139
40
-0.87243426263550139
40
-0.67035321052636399
40
-0.67035321052636399
40
-0.67035321052636399
40
-0.52995964954067565
40
-0.52995964954067565
40
-0.52995964954067565
40
-0.39440757751153765
40
-0.39440757751153765
40
-0.39440757751153765
40
-0.28503719440713293
40
-0.28503719440713293
40
-0.28503719440713293
40
-0.20851590578658433
40
-0.20851590578658433
40
-0.20851590578658433
40
-0.13443382546663693
40
-0.13443382546663693
40
-0.13443382546663693
40
-0.083662450133403385
40
-0.083662450133403385
40
-0.083662450133403385
40
-0.032177865435925594
40
-0.032177865435925594
40
-0.032177865435925594
40
-1.9775580819947205e-15
40
-1.9775580819947205e-15
40
-1.9775580819947205e-15
40
-1.9775580819947205e-15
10
10.000000019780281
20
-3.253269006734556
30
0
10
10.500998877556778
20
-3.2472052811235423
30
0
10
10.990518372293669
20
-3.2249857882851733
30
0
10
11.467067741028622
20
-3.1841531531883986
30
0
10
12.093650765824473
20
-3.130465040921584
30
0
10
12.696281528969411
20
-3.0441173961276755
30
0
10
13.27115963710725
20
-2.9212128835105098
30
0
10
13.767488686316014
20
-2.8151015548179963
30
0
10
14.261196801168028
20
-2.677031939713169
30
0
10
14.771080530647112
20
-2.5042878601512597
30
0
10
15.124095569736344
20
-2.384689499832366
30
0
10
15.516973706140538
20
-2.2362910439291452
30
0
10
15.964443117356332
20
-2.0680264020048673
30
0
10
16.394667945378817
20
-1.9062463454922971
30
0
10
16.925506038595742
20
-1.7051044125800279
30
0
10
17.556078726040376
20
-1.5251871334602909
30
0
10
18.075436672008099
20
-1.3770020464937196
30
0
10
18.666396936121771
20
-1.2444716825257962
30
0
10
19.32414281376759
20
-1.178268014941187
30
0
10
19.783184530441584
20
-1.1320643879007195
30
0
10
20.256191526602919
20
-1.120147497916155
30
0
10
20.740284783534555
20
-1.1505985003804617
30
0
10
21.203538339450954
20
-1.1797386195017672
30
0
10
21.680688563747768
20
-1.2478307608210653
30
0
10
22.160953681427724
20
-1.3639680035543402
30
0
10
22.488696279927218
20
-1.4432223993344127
30
0
10
22.837099782871281
20
-1.5495668854100311
30
0
10
23.192567927610757
20
-1.692042049091961
30
0
10
23.542740259571016
20
-1.8323945984026377
30
0
10
23.958890326965793
20
-2.032198754492101
30
0
10
24.377075805122992
20
-2.3104808228289246
30
0
10
24.643252606532307
20
-2.4876085202465297
30
0
10
24.944303311677519
20
-2.7191741835806909
30
0
10
25.239296493507592
20
-3.014167365410803
30
0
0
SPLINE
5
108
100
AcDbEntity
8
0
100
AcDbSpline
70
0
71
3
72
38
73
34
74
0
42
0.000000001
43
0.0000000001
44
0.0000000001
40
-1.2848848067102701
40
-1.2848848067102701
40
-1.2848848067102701
40
-1.2848848067102701
40
-1.2440173483077177
40
-1.2440173483077177
40
-1.2440173483077177
40
-1.1892047708819593
40
-1.1892047708819593
40
-1.1892047708819593
40
-1.1444421882038536
40
-1.1444421882038536
40
-1.1444421882038536
40
-1.0703601077300446
40
-1.0703601077300446
40
-1.0703601077300446
40
-0.99684321580847879
40
-0.99684321580847879
40
-0.99684321580847879
40
-0.88987634996325027
40
-0.88987634996325027
40
-0.88987634996325027
40
-0.75456674441464711
40
-0.75456674441464711
40
-0.75456674441464711
40
-0.61453159618428976
40
-0.61453159618428976
40
-0.61453159618428976
40
-0.41361540398086338
40
-0.41361540398086338
40
-0.41361540398086338
40
-0.18141008223089172
40
-0.18141008223089172
40
-0.18141008223089172
40
-0.0037702791931098524
40
-0.0037702791931098524
40
-0.0037702791931098524
40
-0.0037702791931098524
10
-5.2392963146938731
20
-3.0141673654106356
30
0
10
-4.8685438196334179
20
-2.6434148703501945
30
0
10
-4.4828273759921551
20
-2.3683543488451342
30
0
10
-4.1616597171545378
20
-2.1736181718681475
30
0
10
-3.7309379005298271
20
-1.9124551387855226
30
0
10
-3.3051953686515589
20
-1.7270302946144289
30
0
10
-2.9402387392382332
20
-1.5963734892922989
30
0
10
-2.6334726489151477
20
-1.4865492687891526
30
0
10
-2.3320632706618345
20
-1.4016714642298125
30
0
10
-2.0434043982278483
20
-1.3364856089504737
30
0
10
-1.5651567909460085
20
-1.228486228737091
30
0
10
-1.0897924070403193
20
-1.1671333784624656
30
0
10
-0.62684984726935622
20
-1.1442248493300597
30
0
10
-0.16265532134035407
20
-1.1212543671484059
30
0
10
0.29025201299892112
20
-1.1369647964333096
30
0
10
0.72951911324983665
20
-1.1838313206781002
30
0
10
1.3698805027756709
20
-1.252153106148711
30
0
10
1.9456799719439422
20
-1.3826444469928354
30
0
10
2.4524075657564879
20
-1.5276116542238507
30
0
10
3.0807973694164135
20
-1.7073846052163821
30
0
10
3.6099443255241552
20
-1.9079637140077865
30
0
10
4.0390387287442238
20
-2.069335703793274
30
0
10
4.4850141809135868
20
-2.2370562463405115
30
0
10
4.8767661838835368
20
-2.3849813937258495
30
0
10
5.2289196481507041
20
-2.5042878601448555
30
0
10
5.735929306996244
20
-2.6760582300971887
30
0
10
6.226827807025856
20
-2.813524031439985
30
0
10
6.7201667167811667
20
-2.9193553291103318
30
0
10
7.2944175138451861
20
-3.0425438833471334
30
0
10
7.8963068236238696
20
-3.1292078235126528
30
0
10
8.5221314821661753
20
-3.1832242916729641
30
0
10
9.0020696554640303
20
-3.2246489378625953
30
0
10
9.4952069313337031
20
-3.2471594139378386
30
0
10
10.000000003469713
20
-3.25326900673319
30
0
0
SPLINE
5
109
100
AcDbEntity
8
0
100
AcDbSpline
70
0
71
3
72
38
73
34
74
0
42
0.000000001
43
0.0000000001
44
0.0000000001
40
-1.2746933354204402
40
-1.2746933354204402
40
-1.2746933354204402
40
-1.2746933354204402
40
-1.1048082019630614
40
-1.1048082019630614
40
-1.1048082019630614
40
-0.872434262635154
40
-0.872434262635154
40
-0.872434262635154
40
-0.67035321052830721
40
-0.67035321052830721
40
-0.67035321052830721
40
-0.52995964954923047
40
-0.52995964954923047
40
-0.52995964954923047
40
-0.39440757751356409
40
-0.39440757751356409
40
-0.39440757751356409
40
-0.28503719440796776
40
-0.28503719440796776
40
-0.28503719440796776
40
-0.20851590578570864
40
-0.20851590578570864
40
-0.20851590578570864
40
-0.13443382546603325
40
-0.13443382546603325
40
-0.13443382546603325
40
-0.083662450132874183
40
-0.083662450132874183
40
-0.083662450132874183
40
-0.032177865435723194
40
-0.032177865435723194
40
-0.032177865435723194
40
-3.82498407574616e-15
40
-3.82498407574616e-15
40
-3.82498407574616e-15
40
-3.82498407574616e-15
10
-5.0009214599058227
20
-18.198769381526255
30
0
10
-5.0078987703275315
20
-17.716822988976705
30
0
10
-5.0299650390076112
20
-17.245589294281537
30
0
10
-5.0693105268787271
20
-16.78639611789805
30
0
10
-5.1229986391365356
20
-16.159813093118871
30
0
10
-5.2093462839308611
20
-15.557182329984496
30
0
10
-5.3322507965554733
20
-14.982304221846007
30
0
10
-5.4383621252503023
20
-14.48597517265592
30
0
10
-5.5764317403608699
20
-13.992267057811379
30
0
10
-5.7491758199299703
20
-13.482383328329636
30
0
10
-5.868774180249785
20
-13.129368289250539
30
0
10
-6.0171726361512352
20
-12.736490152858785
30
0
10
-6.1854372780710287
20
-12.289020741661162
30
0
10
-6.3472173345942284
20
-11.858795913616412
30
0
10
-6.548359267519607
20
-11.327957820371321
30
0
10
-6.7282765466479599
20
-10.69738513289202
30
0
10
-6.8764616336162252
20
-10.178027186914678
30
0
10
-7.0089919975827737
20
-9.5870669227948628
30
0
10
-7.0751956651653858
20
-8.9293210451458531
30
0
10
-7.1213992922049298
20
-8.4702793284649704
30
0
10
-7.1333161821877749
20
-7.9972723322971557
30
0
10
-7.1028651797211673
20
-7.5131790753597212
30
0
10
-7.073725060598429
20
-7.0499255194500012
30
0
10
-7.0056329192790834
20
-6.57277529515871
30
0
10
-6.8894956765465976
20
-6.0925101774831862
30
0
10
-6.8102412807669097
20
-5.7647675789860777
30
0
10
-6.7038967946917367
20
-5.4163640760430187
30
0
10
-6.561421631010055
20
-5.0608959313039197
30
0
10
-6.4210690817002138
20
-4.7107235993455037
30
0
10
-6.2212649256114583
20
-4.294573531951368
30
0
10
-5.9429828572748891
20
-3.8763880537943556
30
0
10
-5.7658551598567662
20
-3.6102112523841381
30
0
10
-5.5342894965235159
20
-3.3091605472403063
30
0
10
-5.2392963146940685
20
-3.0141673654108296
30
0
0
SPLINE
5
110
100
AcDbEntity
8
0
100
AcDbSpline
70
0
71
3
72
35
73
31
74
0
42
0.000000001
43
0.0000000001
44
0.0000000001
40
-1.2734829490452459
40
-1.2734829490452459
40
-1.2734829490452459
40
-1.2734829490452459
40
-1.2390820791224755
40
-1.2390820791224755
40
-1.2390820791224755
40
-1.1933481572297384
40
-1.1933481572297384
40
-1.1933481572297384
40
-1.1186153951972273
40
-1.1186153951972273
40
-1.1186153951972273
40
-1.0395255800237915
40
-1.0395255800237915
40
-1.0395255800237915
40
-0.93159863133291632
40
-0.93159863133291632
40
-0.93159863133291632
40
-0.79066111472278888
40
-0.79066111472278888
40
-0.79066111472278888
40
-0.68381569206632353
40
-0.68381569206632353
40
-0.68381569206632353
40
-0.50672996814456839
40
-0.50672996814456839
40
-0.50672996814456839
40
-0.30340129727418852
40
-0.30340129727418852
40
-0.30340129727418852
40
-0.0099434079896550849
40
-0.0099434079896550849
40
-0.0099434079896550849
40
-0.0099434079896550849
10
-5.2392963146939628
20
-33.492760173612027
30
0
10
-5.6010595516638482
20
-33.13099693664212
30
0
10
-5.8658820799281646
20
-32.757853904414276
30
0
10
-6.0576583640837303
20
-32.435137303801234
30
0
10
-6.3058558445400417
20
-32.017476446900879
30
0
10
-6.4758496149640834
20
-31.608117249103032
30
0
10
-6.5894630845519426
20
-31.278190302102708
30
0
10
-6.7781658119476873
20
-30.730208491793093
30
0
10
-6.8814848237586919
20
-30.206271432477067
30
0
10
-6.9391323996543441
20
-29.754776987727148
30
0
10
-7.0017749995187124
20
-29.264161633932414
30
0
10
-7.0190487453674208
20
-28.790856547417025
30
0
10
-7.006162115738416
20
-28.343509546024848
30
0
10
-6.9884058599190357
20
-27.727118136833329
30
0
10
-6.9127229209101362
20
-27.149997295273387
30
0
10
-6.808254833080861
20
-26.617742819443329
30
0
10
-6.6728416363928567
20
-25.927826104001642
30
0
10
-6.4940021957834482
20
-25.328012574344658
30
0
10
-6.3345548827558895
20
-24.822884967477002
30
0
10
-6.2138360000661921
20
-24.440448668244766
30
0
10
-6.0983563691770906
20
-24.095413887061973
30
0
10
-5.9979651539840866
20
-23.784051289668366
30
0
10
-5.832645644478105
20
-23.271314076749302
30
0
10
-5.6909183663024399
20
-22.795581317418034
30
0
10
-5.5754474692098981
20
-22.336479219037809
30
0
10
-5.4416981504535356
20
-21.804703728900584
30
0
10
-5.3332327371602064
20
-21.263465511920735
30
0
10
-5.2475130599032234
20
-20.7085709008288
30
0
10
-5.1233088220175738
20
-19.904551748132867
30
0
10
-5.0446174840689011
20
-19.064760980599608
30
0
10
-5.0009214599058129
20
-18.198769381525942
30
0
0
SPLINE
5
111
100
AcDbEntity
8
0
100
AcDbSpline
70
0
71
3
72
17
73
13
74
0
42
0.000000001
43
0.0000000001
44
0.0000000001
40
-0.25284496410097235
40
-0.25284496410097235
40
-0.25284496410097235
40
-0.25284496410097235
40
-0.15379595397111917
40
-0.15379595397111917
40
-0.15379595397111917
40
-0.08352390808193097
40
-0.08352390808193097
40
-0.08352390808193097
40
-0.032177865435611103
40
-0.032177865435611103
40
-0.032177865435611103
40
-1.7816777859032858e-15
40
-1.7816777859032858e-15
40
-1.7816777859032858e-15
40
-1.7816777859032858e-15
10
0.089386912967970869
20
-35.368169637704241
30
0
10
-0.51985974886228981
20
-35.388804867380188
30
0
10
-1.1492371022866092
20
-35.346141344200845
30
0
10
-1.7841923197977825
20
-35.224509409072567
30
0
10
-2.2273997989579088
20
-35.139608644629881
30
0
10
-2.7076358600610204
20
-35.009503991238482
30
0
10
-3.1955185020217494
20
-34.813702031491907
30
0
10
-3.5448982141371834
20
-34.673485457987738
30
0
10
-3.9598756229535574
20
-34.474055090191122
30
0
10
-4.3769277698565201
20
-34.196545104287537
30
0
10
-4.6432118702770717
20
-34.019357437222851
30
0
10
-4.9441678035289165
20
-33.787888684777059
30
0
10
-5.2392963146938687
20
-33.492760173612112
30
0
0
LINE
5
112
100
AcDbEntity
8
0
100
AcDbLine
10
0.089386912967970869
20
-35.368169637704241
30
0
11
19.910594228773803
21
-35.368169637704277
31
0
0
SPLINE
5
113
100
AcDbEntity
8
0
100
AcDbSpline
70
0
71
3
72
14
73
10
74
0
42
0.000000001
43
0.0000000001
44
0.0000000001
40
-0.25384813288588814
40
-0.25384813288588814
40
-0.25384813288588814
40
-0.25384813288588814
40
-0.20653686637053506
40
-0.20653686637053506
40
-0.20653686637053506
40
-0.145318943217291
40
-0.145318943217291
40
-0.145318943217291
40
-0.0010204852714687806
40
-0.0010204852714687806
40
-0.0010204852714687806
40
-0.0010204852714687806
10
25.239296493507464
20
-33.492760173612105
30
0
10
24.814086489888012
20
-33.917970177231545
30
0
10
24.364181619825594
20
-34.22133109960663
30
0
10
24.006624812919803
20
-34.4242709841471
30
0
10
23.5380063378892
20
-34.690246564472979
30
0
10
23.075118994653376
20
-34.873286196931048
30
0
10
22.67699980142735
20
-34.999260283828775
30
0
10
21.73013174340738
20
-35.29887115678153
30
0
10
20.783488919609677
20
-35.397797047159749
30
0
10
19.910594228844818
20
-35.368169637706671
30
0
0
SPLINE
5
114
100
AcDbEntity
8
0
100
AcDbSpline
70
0
71
3
72
38
73
34
74
0
42
0.000000001
43
0.0000000001
44
0.0000000001
40
-1.2811145089019167
40
-1.2811145089019167
40
-1.2811145089019167
40
-1.2811145089019167
40
-1.1048082019575347
40
-1.1048082019575347
40
-1.1048082019575347
40
-0.87243426263475765
40
-0.87243426263475765
40
-0.87243426263475765
40
-0.67035321052575736
40
-0.67035321052575736
40
-0.67035321052575736
40
-0.52995964954033381
40
-0.52995964954033381
40
-0.52995964954033381
40
-0.39440757751091859
40
-0.39440757751091859
40
-0.39440757751091859
40
-0.28503719440662523
40
-0.28503719440662523
40
-0.28503719440662523
40
-0.2085159057860847
40
-0.2085159057860847
40
-0.2085159057860847
40
-0.13443382546629865
40
-0.13443382546629865
40
-0.13443382546629865
40
-0.08366245013312798
40
-0.08366245013312798
40
-0.08366245013312798
40
-0.032177865435821039
40
-0.032177865435821039
40
-0.032177865435821039
40
-4.2008637851073075e-15
40
-4.2008637851073075e-15
40
-4.2008637851073075e-15
40
-4.2008637851073075e-15
10
25.000194852183448
20
-18.253463699882328
30
0
10
25.006258577792543
20
-18.754462557653689
30
0
10
25.028478070630218
20
-19.243982052386748
30
0
10
25.069310705727069
20
-19.720531421119937
30
0
10
25.122998817994318
20
-20.347114445917306
30
0
10
25.209346462790045
20
-20.949745209066705
30
0
10
25.332250975409853
20
-21.5246233172134
30
0
10
25.438362304103812
20
-22.020952366425895
30
0
10
25.576431919209533
20
-22.514660481281862
30
0
10
25.749175998771182
20
-23.024544210762734
30
0
10
25.868774359089581
20
-23.377559249852268
30
0
10
26.01717281499122
20
-23.77043738625445
30
0
10
26.185437456913899
20
-24.217906797466959
30
0
10
26.34721751342521
20
-24.648131625487039
30
0
10
26.548359446337617
20
-25.178969718703172
30
0
10
26.728276725458034
20
-25.809542406148896
30
0
10
26.876461812425024
20
-26.328900352117032
30
0
10
27.008992176393498
20
-26.919860616232082
30
0
10
27.075195843977799
20
-27.577606493880328
30
0
10
27.121399471018069
20
-28.036648210556166
30
0
10
27.133316361001892
20
-28.509655206718499
30
0
10
27.102865358536782
20
-28.993748463650345
30
0
10
27.073725239414792
20
-29.457002019565831
30
0
10
27.005633098094961
20
-29.934152243861117
30
0
10
26.889495855361638
20
-30.414417361539222
30
0
10
26.81024145958154
20
-30.742159960037412
30
0
10
26.70389697350593
20
-31.090563462980661
30
0
10
26.561421809824175
20
-31.446031607719259
30
0
10
26.421069260513846
20
-31.796203939678232
30
0
10
26.221265104424845
20
-32.212354007071973
30
0
10
25.942983036088592
20
-32.630539485228326
30
0
10
25.765855338670612
20
-32.896716286638217
30
0
10
25.53428967533748
20
-33.197766991781997
30
0
10
25.239296493507855
20
-33.492760173611707
30
0
0
SPLINE
5
115
100
AcDbEntity
8
0
100
AcDbSpline
70
0
71
3
72
38
73
34
74
0
42
0.000000001
43
0.0000000001
44
0.0000000001
40
-1.2848848067110399
40
-1.2848848067110399
40
-1.2848848067110399
40
-1.2848848067110399
40
-1.2440173483082511
40
-1.2440173483082511
40
-1.2440173483082511
40
-1.1892047708829765
40
-1.1892047708829765
40
-1.1892047708829765
40
-1.1444421882045916
40
-1.1444421882045916
40
-1.1444421882045916
40
-1.0703601077306584
40
-1.0703601077306584
40
-1.0703601077306584
40
-0.99684321580850543
40
-0.99684321580850543
40
-0.99684321580850543
40
-0.88987634996272647
40
-0.88987634996272647
40
-0.88987634996272647
40
-0.75456674440999383
40
-0.75456674440999383
40
-0.75456674440999383
40
-0.61453159618229269
40
-0.61453159618229269
40
-0.61453159618229269
40
-0.41361540397916052
40
-0.41361540397916052
40
-0.41361540397916052
40
-0.18141008221243937
40
-0.18141008221243937
40
-0.18141008221243937
40
-0.0037702791916215039
40
-0.0037702791916215039
40
-0.0037702791916215039
40
-0.0037702791916215039
10
25.239296493507531
20
-3.0141673654107386
30
0
10
25.610048988568739
20
-3.3849198604719688
30
0
10
25.885109510074624
20
-3.7706363041143076
30
0
10
26.07984568705275
20
-4.0918039629542982
30
0
10
26.341008720132756
20
-4.5225257795753562
30
0
10
26.526433564302742
20
-4.9482683114502573
30
0
10
26.657090369624466
20
-5.3132249408617866
30
0
10
26.766914590128717
20
-5.6199910311874248
30
0
10
26.851792394688641
20
-5.9214004094430592
30
0
10
26.916978249968246
20
-6.2100592818788805
30
0
10
27.02497763018167
20
-6.6883068891619857
30
0
10
27.086330480455857
20
-7.1636712730678562
30
0
10
27.109239009588077
20
-7.626613832838097
30
0
10
27.132209491769665
20
-8.0908083587688573
30
0
10
27.116499062484554
20
-8.5437156931095242
30
0
10
27.069632538239755
20
-8.982982793361117
30
0
10
27.001310752769378
20
-9.6233441828857753
30
0
10
26.870819411926121
20
-10.199143652054801
30
0
10
26.725852204694853
20
-10.705871245870139
30
0
10
26.546079253697282
20
-11.33426104955004
30
0
10
26.345500144898306
20
-11.863408005674776
30
0
10
26.184128155106468
20
-12.292502408908774
30
0
10
26.016407612560954
20
-12.738477861070471
30
0
10
25.868482465176559
20
-13.130229864034508
30
0
10
25.749175998758158
20
-13.482383328295366
30
0
10
25.577405628804073
20
-13.989392987139553
30
0
10
25.439939827461334
20
-14.480291487162599
30
0
10
25.334108529792196
20
-14.973630396910069
30
0
10
25.210919975547842
20
-15.547881194006745
30
0
10
25.124256035381261
20
-16.149770503823415
30
0
10
25.070239567224988
20
-16.775595162409857
30
0
10
25.028814921045374
20
-17.255533335661294
30
0
10
25.00630444497672
20
-17.748670611483355
30
0
10
25.000194852184801
20
-18.253463683571688
30
0
0
ENDSEC
0
SECTION
2
OBJECTS
0
DICTIONARY
5
C
100
AcDbDictionary
3
ACAD_GROUP
350
D
3
ACAD_MLINESTYLE
350
17
0
DICTIONARY
5
D
100
AcDbDictionary
0
DICTIONARY
5
1A
330
C
100
AcDbDictionary
0
DICTIONARY
5
17
100
AcDbDictionary
0
ENDSEC
0
EOF
