0
SECTION
2
HEADER
9
$INSUNITS
70
4
9
$ACADVER
1
AC1014
9
$HANDSEED
5
FFFF
0
ENDSEC
0
SECTION
2
TABLES
0
TABLE
2
VPORT
5
8
100
AcDbSymbolTable
0
ENDTAB
0
TABLE
2
LTYPE
5
5
100
AcDbSymbolTable
0
LTYPE
5
14
100
AcDbSymbolTableRecord
100
AcDbLinetypeTableRecord
2
BYBLOCK
70
0
0
LTYPE
5
15
100
AcDbSymbolTableRecord
100
AcDbLinetypeTableRecord
2
BYLAYER
70
0
0
ENDTAB
0
TABLE
2
LAYER
5
2
100
AcDbSymbolTable
70
2
0
LAYER
5
50
100
AcDbSymbolTableRecord
100
AcDbLayerTableRecord
2
0
70
0
6
CONTINUOUS
0
ENDTAB
0
TABLE
2
STYLE
5
3
100
AcDbSymbolTable
70
1
0
STYLE
5
11
100
AcDbSymbolTableRecord
100
AcDbTextStyleTableRecord
2
STANDARD
70
0
0
ENDTAB
0
TABLE
2
VIEW
5
6
100
AcDbSymbolTable
70
0
0
ENDTAB
0
TABLE
2
UCS
5
7
100
AcDbSymbolTable
70
0
0
ENDTAB
0
TABLE
2
APPID
5
9
100
AcDbSymbolTable
70
2
0
APPID
5
12
100
AcDbSymbolTableRecord
100
AcDbRegAppTableRecord
2
ACAD
70
0
0
ENDTAB
0
TABLE
2
DIMSTYLE
5
A
100
AcDbSymbolTable
70
1
0
ENDTAB
0
TABLE
2
BLOCK_RECORD
5
1
100
AcDbSymbolTable
70
1
0
BLOCK_RECORD
5
1F
100
AcDbSymbolTableRecord
100
AcDbBlockTableRecord
2
*MODEL_SPACE
0
BLOCK_RECORD
5
1B
100
AcDbSymbolTableRecord
100
AcDbBlockTableRecord
2
*PAPER_SPACE
0
ENDTAB
0
ENDSEC
0
SECTION
2
BLOCKS
0
BLOCK
5
20
100
AcDbEntity
100
AcDbBlockBegin
2
*MODEL_SPACE
0
ENDBLK
5
21
100
AcDbEntity
100
AcDbBlockEnd
0
BLOCK
5
1C
100
AcDbEntity
100
AcDbBlockBegin
2
*PAPER_SPACE
0
ENDBLK
5
1D
100
AcDbEntity
100
AcDbBlockEnd
0
ENDSEC
0
SECTION
2
ENTITIES
0
CIRCLE
5
100
100
AcDbEntity
8
0
100
AcDbCircle
10
38.010549999999981
20
120.43344999999999
30
0
40
3.1499999999999773
210
0
220
-0
230
1
0
CIRCLE
5
101
100
AcDbEntity
8
0
100
AcDbCircle
10
20.010549999999974
20
105.43344999999999
30
0
40
3.1500000000000128
210
0
220
-0
230
1
0
CIRCLE
5
102
100
AcDbEntity
8
0
100
AcDbCircle
10
38.010549999999981
20
90.433449999999993
30
0
40
3.149999999999995
210
0
220
-0
230
1
0
LWPOLYLINE
5
103
100
AcDbEntity
8
0
100
AcDbPolyline
90
28
70
1
43
0.0
10
22.59545000000001
20
70.222699999999918
10
22.59545000000001
20
67.022699999999915
10
9.7049499999999966
20
67.022699999999915
10
9.7049499999999966
20
70.222699999999918
10
0.010549999999982518
20
70.222699999999918
10
0.010549999999982518
20
82.478199999999973
10
-3.1894500000000203
20
82.478199999999973
10
-3.1894500000000203
20
97.908699999999982
10
0.010549999999982518
20
97.908699999999982
10
0.010549999999982518
20
112.95819999999999
10
-3.1894500000000203
20
112.95819999999999
10
-3.1894500000000203
20
128.38869999999997
10
0.010549999999982518
20
128.38869999999997
10
0.010549999999982518
20
140.62309999999997
10
9.7049499999999966
20
140.62309999999997
10
9.7049499999999966
20
143.82309999999995
10
22.59545000000001
20
143.82309999999995
10
22.59545000000001
20
140.62309999999997
10
35.104949999999988
20
140.62309999999997
10
35.104949999999988
20
143.82309999999995
10
47.995450000000005
20
143.82309999999995
10
47.995450000000005
20
140.62309999999997
10
60.695450000000037
20
140.62309999999997
10
60.695450000000037
20
70.222699999999918
10
47.995450000000005
20
70.222699999999918
10
47.995450000000005
20
67.022699999999915
10
35.104949999999988
20
67.022699999999915
10
35.104949999999988
20
70.222699999999918
0
ENDSEC
0
SECTION
2
OBJECTS
0
DICTIONARY
5
C
100
AcDbDictionary
3
ACAD_GROUP
350
D
3
ACAD_MLINESTYLE
350
17
0
DICTIONARY
5
D
100
AcDbDictionary
0
DICTIONARY
5
1A
330
C
100
AcDbDictionary
0
DICTIONARY
5
17
100
AcDbDictionary
0
ENDSEC
0
EOF
