<?xml version="1.0" encoding="utf-8"?>
<!-- Generator: Adobe Illustrator 25.2.1, SVG Export Plug-In . SVG Version: 6.00 Build 0)  -->
<svg version="1.1" id="Layer_1" xmlns="http://www.w3.org/2000/svg" xmlns:xlink="http://www.w3.org/1999/xlink" x="0px" y="0px"
	 viewBox="0 0 1728 864" style="enable-background:new 0 0 1728 864;" xml:space="preserve">
<style type="text/css">
	.st0{fill:none;stroke:#010101;stroke-width:1.000000e-03;stroke-linecap:round;stroke-linejoin:round;stroke-miterlimit:10;}
	.st1{font-family:'TimesNewRomanPS-BoldMT';}
	.st2{font-size:24px;}
</style>
<g id="LWPOLYLINE">
	<polygon class="st0" points="158.72,222.18 140.72,222.18 140.72,231.25 32,231.25 32,222.18 14,222.18 14,22.5 32,22.5 32,13.43 
		140.72,13.43 140.72,22.5 158.72,22.5 	"/>
</g>
<g id="LWPOLYLINE_1_">
	<polygon class="st0" points="308.72,222.18 290.72,222.18 290.72,231.25 182,231.25 182,222.18 164,222.18 164,22.5 182,22.5 
		182,13.43 290.72,13.43 290.72,22.5 308.72,22.5 	"/>
</g>
<g id="LWPOLYLINE_2_">
	<path class="st0" d="M314.01,154.91v-31.18c0.78,0,1.42-0.63,1.42-1.42s-0.63-1.42-1.42-1.42V89.71c0.78,0,1.42-0.63,1.42-1.42
		c0-0.78-0.63-1.42-1.42-1.42l0-42c0-0.01,0-0.02,0-0.02c0.01-4.14,3.38-7.49,7.52-7.48h11.19v12.6h8.52V194.7h-8.52v12.6
		l-11.19-0.06c-0.01,0-0.02,0-0.03,0c-4.14,0-7.5-3.36-7.5-7.5l0-42c0.78,0,1.42-0.63,1.42-1.42
		C315.42,155.54,314.79,154.91,314.01,154.91C314.01,154.91,314.01,154.91,314.01,154.91z"/>
</g>
<g id="LWPOLYLINE_3_">
	<path class="st0" d="M346.53,154.91v-31.18c0.78,0,1.42-0.63,1.42-1.42s-0.63-1.42-1.42-1.42V89.71c0.78,0,1.42-0.63,1.42-1.42
		c0-0.78-0.63-1.42-1.42-1.42l0-42c0-0.01,0-0.02,0-0.02c0.01-4.14,3.38-7.49,7.52-7.48h11.19v12.6h8.52V194.7h-8.52v12.6
		l-11.19-0.06c-0.01,0-0.02,0-0.03,0c-4.14,0-7.5-3.36-7.5-7.5l0-42c0.78,0,1.42-0.63,1.42-1.42
		C347.94,155.54,347.31,154.91,346.53,154.91C346.53,154.91,346.53,154.91,346.53,154.91z"/>
</g>
<g id="CIRCLE">
	<circle class="st0" cx="469.87" cy="122.38" r="17.98"/>
</g>
<g id="LWPOLYLINE_4_">
	<polygon class="st0" points="452.13,13.49 452.13,22.56 487.59,22.56 487.59,13.49 524.13,13.49 524.13,22.56 560.13,22.56 
		560.13,222.12 524.13,222.12 524.13,231.19 487.59,231.19 487.59,222.12 452.13,222.12 452.13,231.19 415.59,231.19 415.59,222.12 
		388.11,222.12 388.11,187.44 379.04,187.44 379.04,143.7 388.11,143.7 388.11,101.04 379.04,101.04 379.04,57.3 388.11,57.3 
		388.11,22.56 415.59,22.56 415.59,13.49 	"/>
</g>
<g id="CIRCLE_1_">
	<circle class="st0" cx="637.72" cy="122.34" r="17.23"/>
</g>
<g id="LWPOLYLINE_5_">
	<polygon class="st0" points="583.41,222.22 565.41,222.22 565.41,22.54 583.41,22.54 583.41,13.47 692.13,13.47 692.13,22.54 
		710.13,22.54 710.13,222.22 692.13,222.22 692.13,231.29 583.41,231.29 	"/>
</g>
<g id="LWPOLYLINE_9_">
	<rect x="438.47" y="268.91" class="st0" width="8.52" height="108.06"/>
</g>
<g id="LWPOLYLINE_8_">
	<rect x="1120.78" y="332.52" class="st0" width="108.06" height="8.52"/>
</g>
<g id="LWPOLYLINE_7_">
	<rect x="798.96" y="268.91" class="st0" width="8.52" height="108.06"/>
</g>
<g id="LWPOLYLINE_6_">
	<polygon class="st0" points="31.8,309.27 14,309.27 14,345.87 31.8,345.87 31.8,381.27 14,381.27 14,409.35 158,409.35 158,417.87 
		302.6,417.87 302.6,409.35 446,409.35 446,417.87 590.6,417.87 590.6,409.35 734,409.35 734,417.87 878.6,417.87 878.6,409.35 
		1022,409.35 1022,417.87 1166.6,417.87 1166.6,409.35 1310,409.35 1310,417.87 1454.6,417.87 1454.6,409.35 1598.6,409.35 
		1598.6,381.27 1590.08,381.27 1590.08,345.87 1598.6,345.87 1598.6,309.27 1590.08,309.27 1590.08,273.87 1598.6,273.87 
		1598.6,237.27 14,237.27 14,273.87 31.8,273.87 	"/>
</g>
<g id="LWPOLYLINE_13_">
	<rect x="438.47" y="455.5" class="st0" width="8.52" height="108.06"/>
</g>
<g id="LWPOLYLINE_12_">
	<rect x="1120.78" y="519.11" class="st0" width="108.06" height="8.52"/>
</g>
<g id="LWPOLYLINE_11_">
	<rect x="798.96" y="455.5" class="st0" width="8.52" height="108.06"/>
</g>
<g id="LWPOLYLINE_10_">
	<polygon class="st0" points="31.8,495.85 14,495.85 14,532.45 31.8,532.45 31.8,567.85 14,567.85 14,595.93 158,595.93 158,604.45 
		302.6,604.45 302.6,595.93 446,595.93 446,604.45 590.6,604.45 590.6,595.93 734,595.93 734,604.45 878.6,604.45 878.6,595.93 
		1022,595.93 1022,604.45 1166.6,604.45 1166.6,595.93 1310,595.93 1310,604.45 1454.6,604.45 1454.6,595.93 1598.6,595.93 
		1598.6,567.85 1590.08,567.85 1590.08,532.45 1598.6,532.45 1598.6,495.85 1590.08,495.85 1590.08,460.45 1598.6,460.45 
		1598.6,423.85 14,423.85 14,460.45 31.8,460.45 	"/>
</g>
<g id="CIRCLE_5_">
	<circle class="st0" cx="1546.08" cy="718.74" r="2.13"/>
</g>
<g id="LWPOLYLINE_16_">
	<rect x="1490.16" y="646.74" class="st0" width="8.52" height="144"/>
</g>
<g id="CIRCLE_4_">
	<circle class="st0" cx="1176.01" cy="718.75" r="17.25"/>
</g>
<g id="LWPOLYLINE_15_">
	<rect x="116.28" y="646.74" class="st0" width="8.52" height="144"/>
</g>
<g id="CIRCLE_2_">
	<circle class="st0" cx="1546.08" cy="682.64" r="2.13"/>
</g>
<g id="CIRCLE_3_">
	<circle class="st0" cx="1546.08" cy="754.84" r="2.13"/>
</g>
<g id="LWPOLYLINE_14_">
	<polygon class="st0" points="15.18,740.64 15.18,696.84 32.98,696.84 32.98,654.24 15.18,654.24 15.18,610.44 159.78,610.44 
		159.78,618.96 303.18,618.96 303.18,610.44 447.78,610.44 447.78,618.96 591.18,618.96 591.18,610.44 735.78,610.44 735.78,618.96 
		879.18,618.96 879.18,610.44 1023.78,610.44 1023.78,618.96 1167.18,618.96 1167.18,610.44 1311.78,610.44 1311.78,618.96 
		1455.18,618.96 1455.18,610.44 1599.78,610.44 1599.78,654.24 1591.26,654.24 1591.26,696.84 1599.78,696.84 1599.78,740.64 
		1591.26,740.64 1591.26,783.24 1599.78,783.24 1599.78,827.04 1455.18,827.04 1455.18,818.52 1311.78,818.52 1311.78,827.04 
		1167.18,827.04 1167.18,818.52 1023.78,818.52 1023.78,827.04 879.18,827.04 879.18,818.52 735.78,818.52 735.78,827.04 
		591.18,827.04 591.18,818.52 447.78,818.52 447.78,827.04 303.18,827.04 303.18,818.52 159.78,818.52 159.78,827.04 15.18,827.04 
		15.18,783.24 32.98,783.24 32.98,740.64 	"/>
</g>
<text transform="matrix(1 0 0 1 77.6421 131.7243)" class="st1 st2">A</text>
<text transform="matrix(1 0 0 1 236.3638 131.7242)" class="st1 st2">A</text>
<text transform="matrix(1 0 0 1 630.5571 183.0576)" class="st1 st2">B</text>
<text transform="matrix(-1 0 0 -1 1316.896 332.5244)" class="st1 st2">C</text>
<text transform="matrix(-1 0 0 -1 1316.5112 518.7705)" class="st1 st2">C</text>
<g id="CIRCLE_8_">
	<circle class="st0" cx="832.55" cy="79.79" r="8.93"/>
</g>
<g id="CIRCLE_7_">
	<circle class="st0" cx="781.52" cy="122.31" r="8.93"/>
</g>
<g id="CIRCLE_6_">
	<circle class="st0" cx="832.55" cy="164.83" r="8.93"/>
</g>
<g id="LWPOLYLINE_17_">
	<polygon class="st0" points="788.85,222.12 788.85,231.19 752.31,231.19 752.31,222.12 724.83,222.12 724.83,187.38 715.76,187.38 
		715.76,143.64 724.83,143.64 724.83,100.98 715.76,100.98 715.76,57.24 724.83,57.24 724.83,22.56 752.31,22.56 752.31,13.49 
		788.85,13.49 788.85,22.56 824.31,22.56 824.31,13.49 860.85,13.49 860.85,22.56 896.85,22.56 896.85,222.12 860.85,222.12 
		860.85,231.19 824.31,231.19 824.31,222.12 	"/>
</g>
<text transform="matrix(-1.836970e-16 -1 1 -1.836970e-16 837.2578 130.5981)" class="st1 st2">D</text>
<g id="CIRCLE_11_">
	<circle class="st0" cx="1021.7" cy="164.86" r="9.35"/>
</g>
<g id="CIRCLE_10_">
	<circle class="st0" cx="1021.7" cy="79.82" r="9.35"/>
</g>
<g id="CIRCLE_9_">
	<circle class="st0" cx="970.67" cy="122.34" r="9.35"/>
</g>
<g id="LWPOLYLINE_18_">
	<polygon class="st0" points="978,13.46 978,22.53 1013.46,22.53 1013.46,13.46 1050,13.46 1050,22.53 1086,22.53 1086,222.09 
		1050,222.09 1050,231.16 1013.46,231.16 1013.46,222.09 978,222.09 978,231.16 941.46,231.16 941.46,222.09 913.98,222.09 
		913.98,187.41 904.91,187.41 904.91,143.67 913.98,143.67 913.98,101.01 904.91,101.01 904.91,57.27 913.98,57.27 913.98,22.53 
		941.46,22.53 941.46,13.46 	"/>
</g>
<text transform="matrix(6.123234e-17 -1 1 6.123234e-17 1031.0508 129.998)" class="st1 st2">E</text>
<text transform="matrix(6.123234e-17 -1 1 6.123234e-17 527.4914 129.5186)" class="st1 st2">F</text>
<text transform="matrix(6.123234e-17 -1 1 6.123234e-17 337.9204 131.4741)" class="st1 st2">G</text>
<text transform="matrix(6.123234e-17 -1 1 6.123234e-17 367.288 131.7251)" class="st1 st2">G</text>
<text transform="matrix(1 0 0 1 1300.8882 728.1816)" class="st1 st2">H</text>
</svg>
