0
SECTION
2
HEADER
9
$INSUNITS
70
4
9
$ACADVER
1
AC1014
9
$HANDSEED
5
FFFF
0
ENDSEC
0
SECTION
2
TABLES
0
TABLE
2
VPORT
5
8
100
AcDbSymbolTable
0
ENDTAB
0
TABLE
2
LTYPE
5
5
100
AcDbSymbolTable
0
LTYPE
5
14
100
AcDbSymbolTableRecord
100
AcDbLinetypeTableRecord
2
BYBLOCK
70
0
0
LTYPE
5
15
100
AcDbSymbolTableRecord
100
AcDbLinetypeTableRecord
2
BYLAYER
70
0
0
ENDTAB
0
TABLE
2
LAYER
5
2
100
AcDbSymbolTable
70
2
0
LAYER
5
50
100
AcDbSymbolTableRecord
100
AcDbLayerTableRecord
2
0
70
0
6
CONTINUOUS
0
ENDTAB
0
TABLE
2
STYLE
5
3
100
AcDbSymbolTable
70
1
0
STYLE
5
11
100
AcDbSymbolTableRecord
100
AcDbTextStyleTableRecord
2
STANDARD
70
0
0
ENDTAB
0
TABLE
2
VIEW
5
6
100
AcDbSymbolTable
70
0
0
ENDTAB
0
TABLE
2
UCS
5
7
100
AcDbSymbolTable
70
0
0
ENDTAB
0
TABLE
2
APPID
5
9
100
AcDbSymbolTable
70
2
0
APPID
5
12
100
AcDbSymbolTableRecord
100
AcDbRegAppTableRecord
2
ACAD
70
0
0
ENDTAB
0
TABLE
2
DIMSTYLE
5
A
100
AcDbSymbolTable
70
1
0
ENDTAB
0
TABLE
2
BLOCK_RECORD
5
1
100
AcDbSymbolTable
70
1
0
BLOCK_RECORD
5
1F
100
AcDbSymbolTableRecord
100
AcDbBlockTableRecord
2
*MODEL_SPACE
0
BLOCK_RECORD
5
1B
100
AcDbSymbolTableRecord
100
AcDbBlockTableRecord
2
*PAPER_SPACE
0
ENDTAB
0
ENDSEC
0
SECTION
2
BLOCKS
0
BLOCK
5
20
100
AcDbEntity
100
AcDbBlockBegin
2
*MODEL_SPACE
0
ENDBLK
5
21
100
AcDbEntity
100
AcDbBlockEnd
0
BLOCK
5
1C
100
AcDbEntity
100
AcDbBlockBegin
2
*PAPER_SPACE
0
ENDBLK
5
1D
100
AcDbEntity
100
AcDbBlockEnd
0
ENDSEC
0
SECTION
2
ENTITIES
0
LWPOLYLINE
5
100
100
AcDbEntity
8
0
100
AcDbPolyline
90
4
70
1
43
0.0
10
-150.16970000000001
20
49.543800000000005
10
-147.16520000000003
20
49.543800000000005
10
-147.16520000000003
20
11.423799999999996
10
-150.16970000000001
20
11.423799999999996
0
LWPOLYLINE
5
101
100
AcDbEntity
8
0
100
AcDbPolyline
90
4
70
1
43
0.0
10
90.535399999999981
20
24.098900000000008
10
90.535399999999981
20
27.103400000000008
10
128.65539999999999
20
27.103400000000008
10
128.65539999999999
20
24.098900000000008
0
LWPOLYLINE
5
102
100
AcDbEntity
8
0
100
AcDbPolyline
90
4
70
1
43
0.0
10
-19.989500000000042
20
49.543800000000005
10
-19.989500000000042
20
11.423800000000011
10
-22.994500000000038
20
11.423800000000014
10
-22.994500000000038
20
49.543800000000005
0
LWPOLYLINE
5
103
100
AcDbEntity
8
0
100
AcDbPolyline
90
40
70
1
43
0.0
10
-293.63200000000001
20
35.306000000000012
10
-299.91049999999996
20
35.305999999999997
10
-299.91049999999996
20
22.394400000000005
10
-293.63200000000001
20
22.394400000000005
10
-293.63200000000001
20
9.9060000000000201
10
-299.91050000000001
20
9.9060000000000024
10
-299.91049999999996
20
4.4408920985006262e-15
10
-249.1105
20
4.4408920985006262e-15
10
-249.1105
20
-3.0056000000000038
10
-198.09879999999995
20
-3.0056000000000038
10
-198.09879999999995
20
4.4408920985006262e-15
10
-147.51050000000001
20
4.4408920985006262e-15
10
-147.51050000000001
20
-3.0056000000000038
10
-96.498800000000017
20
-3.0056000000000038
10
-96.498800000000017
20
4.4408920985006262e-15
10
-45.910499999999992
20
4.4408920985006262e-15
10
-45.910499999999992
20
-3.0056000000000038
10
5.1012000000000057
20
-3.0056000000000038
10
5.1012000000000057
20
4.4408920985006262e-15
10
55.68950000000001
20
4.4408920985006262e-15
10
55.68950000000001
20
-3.0056000000000038
10
106.70120000000004
20
-3.0056000000000038
10
106.70120000000004
20
4.4408920985006262e-15
10
157.28949999999998
20
4.4408920985006262e-15
10
157.28949999999998
20
-3.0056000000000038
10
208.30119999999994
20
-3.0056000000000038
10
208.30119999999994
20
4.4408920985006262e-15
10
259.10119999999995
20
4.4408920985006262e-15
10
259.10119999999995
20
9.9060000000000024
10
256.09550000000002
20
9.9060000000000024
10
256.09550000000002
20
22.394400000000005
10
259.10119999999995
20
22.394400000000005
10
259.10119999999995
20
35.305999999999997
10
256.09550000000002
20
35.305999999999997
10
256.09550000000002
20
47.794400000000003
10
259.10119999999995
20
47.794400000000003
10
259.10119999999995
20
60.705999999999996
10
-299.91049999999996
20
60.705999999999996
10
-299.91049999999996
20
47.794400000000003
10
-293.63200000000001
20
47.794400000000003
0
ENDSEC
0
SECTION
2
OBJECTS
0
DICTIONARY
5
C
100
AcDbDictionary
3
ACAD_GROUP
350
D
3
ACAD_MLINESTYLE
350
17
0
DICTIONARY
5
D
100
AcDbDictionary
0
DICTIONARY
5
1A
330
C
100
AcDbDictionary
0
DICTIONARY
5
17
100
AcDbDictionary
0
ENDSEC
0
EOF
