0
SECTION
2
HEADER
9
$INSUNITS
70
4
9
$ACADVER
1
AC1014
9
$HANDSEED
5
FFFF
0
ENDSEC
0
SECTION
2
TABLES
0
TABLE
2
VPORT
5
8
100
AcDbSymbolTable
0
ENDTAB
0
TABLE
2
LTYPE
5
5
100
AcDbSymbolTable
0
LTYPE
5
14
100
AcDbSymbolTableRecord
100
AcDbLinetypeTableRecord
2
BYBLOCK
70
0
0
LTYPE
5
15
100
AcDbSymbolTableRecord
100
AcDbLinetypeTableRecord
2
BYLAYER
70
0
0
ENDTAB
0
TABLE
2
LAYER
5
2
100
AcDbSymbolTable
70
2
0
LAYER
5
50
100
AcDbSymbolTableRecord
100
AcDbLayerTableRecord
2
0
70
0
6
CONTINUOUS
0
ENDTAB
0
TABLE
2
STYLE
5
3
100
AcDbSymbolTable
70
1
0
STYLE
5
11
100
AcDbSymbolTableRecord
100
AcDbTextStyleTableRecord
2
STANDARD
70
0
0
ENDTAB
0
TABLE
2
VIEW
5
6
100
AcDbSymbolTable
70
0
0
ENDTAB
0
TABLE
2
UCS
5
7
100
AcDbSymbolTable
70
0
0
ENDTAB
0
TABLE
2
APPID
5
9
100
AcDbSymbolTable
70
2
0
APPID
5
12
100
AcDbSymbolTableRecord
100
AcDbRegAppTableRecord
2
ACAD
70
0
0
ENDTAB
0
TABLE
2
DIMSTYLE
5
A
100
AcDbSymbolTable
70
1
0
ENDTAB
0
TABLE
2
BLOCK_RECORD
5
1
100
AcDbSymbolTable
70
1
0
BLOCK_RECORD
5
1F
100
AcDbSymbolTableRecord
100
AcDbBlockTableRecord
2
*MODEL_SPACE
0
BLOCK_RECORD
5
1B
100
AcDbSymbolTableRecord
100
AcDbBlockTableRecord
2
*PAPER_SPACE
0
ENDTAB
0
ENDSEC
0
SECTION
2
BLOCKS
0
BLOCK
5
20
100
AcDbEntity
100
AcDbBlockBegin
2
*MODEL_SPACE
0
ENDBLK
5
21
100
AcDbEntity
100
AcDbBlockEnd
0
BLOCK
5
1C
100
AcDbEntity
100
AcDbBlockBegin
2
*PAPER_SPACE
0
ENDBLK
5
1D
100
AcDbEntity
100
AcDbBlockEnd
0
ENDSEC
0
SECTION
2
ENTITIES
0
CIRCLE
5
100
100
AcDbEntity
8
0
100
AcDbCircle
10
240.15606757973211
20
105.61729999999997
30
0
40
0.74999999999999289
210
0
220
0
230
1
0
LWPOLYLINE
5
101
100
AcDbEntity
8
0
100
AcDbPolyline
90
4
70
1
43
0.0
10
223.4349
20
131.01680000000002
10
220.43019999999996
20
131.01680000000002
10
220.43019999999996
20
80.217799999999997
10
223.4349
20
80.217799999999997
0
CIRCLE
5
102
100
AcDbEntity
8
0
100
AcDbCircle
10
109.60496493624484
20
105.61104829529847
30
0
40
6.086458392633566
210
0
220
0
230
1
0
LWPOLYLINE
5
103
100
AcDbEntity
8
0
100
AcDbPolyline
90
4
70
1
43
0.0
10
-264.24410000000012
20
131.01680000000002
10
-264.24410000000012
20
80.217799999999997
10
-261.23949999999996
20
80.217799999999997
10
-261.23949999999996
20
131.01680000000002
0
CIRCLE
5
104
100
AcDbEntity
8
0
100
AcDbCircle
10
240.15606757973211
20
118.35309999999996
30
0
40
0.74999999999999289
210
0
220
0
230
1
0
CIRCLE
5
105
100
AcDbEntity
8
0
100
AcDbCircle
10
240.15606757973211
20
92.881500000000003
30
0
40
0.74999999999999289
210
0
220
0
230
1
0
LWPOLYLINE
5
106
100
AcDbEntity
8
0
100
AcDbPolyline
90
60
70
1
43
0.0
10
-299.91049999999996
20
97.891500000000008
10
-299.91049999999996
20
113.34310000000002
10
-293.63199999999995
20
113.34310000000002
10
-293.63199999999995
20
128.3715
10
-299.91049999999996
20
128.3715
10
-299.91049999999996
20
143.82309999999995
10
-248.89880000000008
20
143.82309999999995
10
-248.89880000000008
20
140.81750000000002
10
-198.31050000000002
20
140.81750000000002
10
-198.31050000000002
20
143.82309999999995
10
-147.29879999999997
20
143.82309999999995
10
-147.29879999999997
20
140.81750000000002
10
-96.71050000000001
20
140.81750000000002
10
-96.71050000000001
20
143.82309999999995
10
-45.698800000000013
20
143.82309999999995
10
-45.698800000000013
20
140.81750000000002
10
4.8894999999999911
20
140.81750000000002
10
4.8894999999999911
20
143.82309999999995
10
55.901199999999989
20
143.82309999999995
10
55.901199999999989
20
140.81750000000002
10
106.48949999999999
20
140.81750000000002
10
106.48949999999999
20
143.82309999999995
10
157.50120000000007
20
143.82309999999995
10
157.50120000000007
20
140.81750000000002
10
208.08950000000004
20
140.81750000000002
10
208.08950000000004
20
143.82309999999995
10
259.10119999999995
20
143.82309999999995
10
259.10119999999995
20
128.3715
10
256.09550000000002
20
128.3715
10
256.09550000000002
20
113.34310000000002
10
259.10119999999995
20
113.34310000000002
10
259.10119999999995
20
97.891500000000008
10
256.09550000000002
20
97.891500000000008
10
256.09550000000002
20
82.863100000000003
10
259.10119999999995
20
82.863100000000003
10
259.10119999999995
20
67.411500000000004
10
208.08950000000004
20
67.411500000000004
10
208.08950000000004
20
70.417099999999991
10
157.50120000000007
20
70.417099999999991
10
157.50120000000007
20
67.411500000000004
10
106.48949999999999
20
67.411500000000004
10
106.48949999999999
20
70.417099999999991
10
55.901199999999989
20
70.417099999999991
10
55.901199999999989
20
67.411500000000004
10
4.8894999999999911
20
67.411500000000004
10
4.8894999999999911
20
70.417099999999991
10
-45.698800000000013
20
70.417099999999991
10
-45.698800000000013
20
67.411500000000004
10
-96.71050000000001
20
67.411500000000004
10
-96.71050000000001
20
70.417099999999991
10
-147.29879999999997
20
70.417099999999991
10
-147.29879999999997
20
67.411500000000004
10
-198.31050000000002
20
67.411500000000004
10
-198.31050000000002
20
70.417099999999991
10
-248.89880000000008
20
70.417099999999991
10
-248.89880000000008
20
67.411500000000004
10
-299.91049999999996
20
67.411500000000004
10
-299.91049999999996
20
82.863100000000003
10
-293.63199999999995
20
82.863100000000003
10
-293.63199999999995
20
97.891499999999994
0
ENDSEC
0
SECTION
2
OBJECTS
0
DICTIONARY
5
C
100
AcDbDictionary
3
ACAD_GROUP
350
D
3
ACAD_MLINESTYLE
350
17
0
DICTIONARY
5
D
100
AcDbDictionary
0
DICTIONARY
5
1A
330
C
100
AcDbDictionary
0
DICTIONARY
5
17
100
AcDbDictionary
0
ENDSEC
0
EOF
